<svg width="24" height="24" viewBox="0 0 24 24" fill="none" xmlns="http://www.w3.org/2000/svg">
<g clip-path="url(#clip0_193_6741)">
<path d="M12 23.25C18.2132 23.25 23.25 18.2132 23.25 12C23.25 5.7868 18.2132 0.75 12 0.75C5.7868 0.75 0.75 5.7868 0.75 12C0.75 18.2132 5.7868 23.25 12 23.25Z" fill="#148035"/>
<path d="M11.8887 10.0125C11.8512 9.675 12.0387 9.3375 12.3762 9.4125C12.6387 9.45 12.9387 9.7125 12.7887 9.975C12.5637 10.3875 11.9637 10.3875 11.5887 10.6125C11.6262 10.8375 12.7137 10.575 12.9012 10.575C13.0887 10.575 13.2762 10.65 13.1637 10.875C13.0512 11.1 12.6762 11.1 12.4512 11.1375C12.2262 11.175 11.8512 11.175 11.7387 11.3625C11.5137 11.6625 11.9637 11.7 12.1137 11.775C12.4887 11.9625 11.8887 12.15 11.7387 12.1125C11.1762 12 11.0637 11.7 10.7262 11.325C10.3887 11.775 9.33867 12.7875 9.11367 11.7375C8.73867 11.8875 8.36367 12.075 7.95117 12.1125C8.13867 11.85 8.51367 11.7375 8.81367 11.5875C9.18867 11.4 9.18867 11.0625 9.41367 10.7625C9.48867 10.875 9.41367 11.025 9.45117 11.175C9.75117 11.025 10.1262 10.725 9.97617 10.35C9.97617 10.3125 9.52617 9.4125 9.90117 9.5625C10.2387 9.7125 10.1262 10.05 10.2012 10.3125C10.3137 10.8 10.0887 11.0625 9.71367 11.3625C9.56367 11.475 9.15117 11.925 9.63867 11.925C9.97617 11.925 10.2762 11.55 10.4637 11.325C10.6887 11.025 10.6137 10.725 10.4637 10.3875C10.3512 10.125 10.0887 9.5625 10.4262 9.375C10.6887 9.7875 10.8012 10.275 10.9137 10.7625C10.9887 11.175 11.0637 11.5875 11.5137 11.7C11.4762 11.4 11.6637 11.175 11.9262 11.0625C11.7387 10.9125 10.6887 11.1 11.1012 10.5375C11.1387 10.275 11.8887 10.1625 11.8887 10.0125Z" fill="white"/>
<path d="M6.14974 11.4C6.33724 11.925 6.97474 11.7375 7.34974 11.5875C7.94974 11.2875 7.94974 10.8375 7.94974 10.2375C7.72474 10.35 7.76224 10.7625 7.68724 10.95C7.53724 11.25 7.04974 11.5125 6.71224 11.475C6.22474 11.4 5.99974 10.575 6.37474 10.275C6.44974 10.5375 6.26224 11.1 6.71224 11.1375C7.04974 11.175 7.72474 10.7625 7.61224 10.3875C7.16224 10.5375 6.89974 10.3875 7.04974 9.9C7.16224 9.45 7.61224 9.7875 7.79974 10.0125C8.51224 9.6 7.23724 8.025 7.98724 7.6125C8.13724 7.875 8.36224 8.2125 8.17474 8.475C7.94974 8.775 8.17474 9.4125 8.21224 9.75C8.58724 9.4125 8.28724 10.0125 8.58724 10.05C8.77474 10.0875 8.84974 9.6 8.96224 9.6C8.99974 9.7125 8.99974 10.05 9.18724 10.0125C9.41224 9.9375 9.14974 9.6375 9.37474 9.5625C9.44974 9.75 9.41224 10.3125 9.14974 10.275C8.92474 10.2375 8.96224 10.0875 8.69974 10.2375C8.47474 10.35 8.39974 10.2375 8.24974 10.125C8.21224 10.575 8.36224 11.0625 8.09974 11.475C7.87474 11.8125 7.42474 12 7.04974 12.075C6.07474 12.2625 5.81224 11.2875 6.14974 10.5C6.22474 10.725 6.07474 11.1375 6.14974 11.4Z" fill="white"/>
<path d="M15.3007 11.5875C15.4882 12.075 15.8632 11.0625 15.9757 10.9125C16.2757 10.4625 16.7257 11.625 16.9132 10.875C17.0257 10.3875 16.8757 9.9 16.8382 9.4125C16.8007 9.075 16.6882 8.775 16.4632 8.5125C16.2382 8.2125 16.0132 7.95 16.1257 7.575C16.5007 7.725 16.5007 8.025 16.6882 8.325C16.7257 8.1 16.5757 7.8 16.7257 7.6125C16.9132 7.35 17.0632 8.0625 17.0632 8.1375C17.1007 8.325 16.9132 8.4 17.0257 8.7C17.1007 8.925 17.2507 9.15 17.4007 9.3375C17.3632 9.1125 17.0257 7.575 17.4007 7.575C17.5132 7.575 17.6257 8.025 17.6257 8.1C17.7007 8.325 17.5507 8.5125 17.5507 8.775C17.5132 9.225 17.5882 9.75 17.8882 10.0875C18.0382 10.275 18.6007 10.95 18.3007 11.175C18.0757 10.9125 17.9257 10.6125 17.7382 10.35C17.7382 10.65 17.8132 10.9875 17.6632 11.2125C17.5132 11.1375 17.5882 10.65 17.5882 10.5375C17.5882 10.125 17.3257 9.7875 17.1007 9.45C17.0257 10.0125 17.4757 11.0625 16.9507 11.475C16.6132 11.775 16.1632 11.1 16.0507 11.3625C15.9382 11.55 15.6757 12.225 15.3757 12.15C15.0007 12.075 14.7382 11.025 15.1507 10.9125C15.1882 11.1 15.1882 11.3625 15.3007 11.5875Z" fill="white"/>
<path d="M7.27532 9.0375C7.53782 9.075 7.27532 8.175 7.27532 8.025C7.31282 7.875 7.42532 7.8 7.50032 7.95C7.61282 8.175 7.61282 8.4375 7.65032 8.6625C7.65032 8.85 7.68782 9.075 7.53782 9.225C7.31282 9.45 7.01282 9.3375 6.90032 9.0375C6.37532 9.4875 7.05032 10.275 6.60032 10.725C6.52532 10.3125 6.60032 9.8625 6.45032 9.4875C6.37532 9.3 6.03782 9.375 6.00032 9.0375C6.00032 8.8875 6.11282 8.475 5.96282 8.3625C5.88782 8.5125 5.81282 9.675 5.43782 9.3375C5.13782 9.1125 5.21282 8.3625 5.32532 8.0625C5.55032 8.175 5.28782 9 5.58782 9.0375C5.73782 9.075 5.77532 8.4375 5.81282 8.325C5.92532 8.1375 6.30032 7.6125 6.22532 8.1375C6.18782 8.3625 6.00032 9.075 6.45032 9.0375C6.41282 8.6625 6.37532 8.2875 6.30032 7.9125C6.26282 7.725 6.37532 7.35 6.52532 7.6875C6.63782 7.9125 6.56282 8.025 6.52532 8.25C6.48782 8.5125 6.60032 8.775 6.63782 9C6.86282 8.8125 6.56282 8.1 6.75032 7.8C7.20032 8.0625 6.71282 8.9625 7.27532 9.0375Z" fill="white"/>
<path d="M12.1129 9.1125C11.9254 9.375 11.5879 9.15 11.4379 8.9625C11.2504 9.1875 10.8754 9.5625 10.5754 9.2625C10.3504 9.0375 10.6129 8.625 10.4254 8.4375C10.3129 8.625 10.1254 9.525 9.78786 9.1125C9.60036 8.8875 9.33786 8.1 9.75036 7.9125C9.71286 8.2125 9.63786 8.55 9.82536 8.8125C10.0129 9.075 10.2004 8.4 10.2754 8.25C10.3879 7.9875 10.7629 7.5375 10.6879 8.1C10.6504 8.325 10.5754 8.85 10.8004 9C10.9504 9.1125 11.1379 8.925 11.2129 8.8125C11.3629 8.625 11.2879 8.325 11.2504 8.1C11.2129 7.9125 11.1379 7.6875 11.2504 7.5C11.4004 7.275 11.5129 7.8 11.5129 7.9125C11.5129 8.025 11.6629 9.1875 11.9254 8.8125C12.1879 8.475 11.4754 7.725 11.9629 7.5375C12.1504 7.4625 12.4879 8.2125 12.1129 7.9875C12.2254 8.325 12.3754 8.8125 12.1129 9.1125Z" fill="white"/>
<path d="M13.5374 9.5625C13.5749 10.05 13.9874 11.4 13.4249 11.7C13.3499 11.55 13.4249 11.325 13.4624 11.1375C13.4999 10.8 13.4249 10.4625 13.3874 10.1625C13.3124 9.45 13.2374 8.925 12.7499 8.3625C12.6374 8.2125 12.4499 8.1 12.4124 7.875C12.4124 7.8 12.3749 7.4625 12.5249 7.5375C12.6374 7.575 13.2749 8.1375 12.9374 8.1375C12.9749 8.2125 13.1249 8.5125 13.1999 8.5125C13.1999 8.325 12.9749 7.7625 13.1999 7.65C13.3874 7.5375 13.6124 8.25 13.5374 8.4C13.4624 8.5875 13.4624 8.7 13.5374 8.9625C13.6124 9.2625 13.7999 9.525 13.9499 9.7875C14.1749 10.1625 14.6249 10.6875 14.5124 11.175C14.2874 11.0625 14.1374 10.5375 14.0249 10.3125C13.9499 10.125 13.8749 9.9375 13.7624 9.7875C13.7249 9.75 13.4999 9.45 13.5374 9.6375V9.5625Z" fill="white"/>
<path d="M18.7508 10.275C18.7883 11.0625 18.5258 12.075 17.5508 12.075C17.5508 11.85 18.0383 11.625 18.1883 11.5125C18.5633 11.2125 18.5258 10.65 18.4883 10.2375C18.4508 9.675 18.4133 9.1125 18.3008 8.55C18.2633 8.2125 18.0758 7.725 18.3758 7.5C18.5633 7.65 18.8258 8.0625 18.7133 8.2125C18.5258 8.4375 18.7133 10.125 18.7508 10.275Z" fill="white"/>
<path d="M13.9496 11.9625C14.9246 11.4 14.6246 10.2 14.5496 9.2625C14.5121 9 14.5121 8.7375 14.4746 8.475C14.4746 8.2875 14.3246 8.025 14.3996 7.8375C14.5871 7.35 14.7371 7.8 14.7746 8.1C14.8121 8.2875 14.6621 8.325 14.6996 8.475C14.7371 8.775 14.7371 9.075 14.7746 9.375C14.8121 9.8625 14.8871 10.35 14.8496 10.8C14.7746 11.5125 14.3996 12.3 13.5371 12.15C13.5746 12.075 13.8371 12.0375 13.9496 11.9625Z" fill="white"/>
<path d="M15.5254 10.0875C15.5629 10.4625 15.7129 11.1375 15.5254 11.475C15.3754 11.7 15.3754 11.325 15.3379 11.2875C15.3004 10.9875 15.3004 10.6875 15.3004 10.35C15.2254 9.525 14.9629 8.7 14.9629 7.9125C14.9629 6.9 15.8254 8.475 15.3379 8.4C15.3754 8.9625 15.4504 9.525 15.5254 10.0875Z" fill="white"/>
<path d="M9.41276 8.175C9.48776 8.3625 8.55026 8.85 8.43776 8.85C8.40026 8.6625 8.85026 8.4 8.96276 8.325C9.07526 8.2125 9.15026 8.2125 9.11276 8.0625C9.03776 7.9125 9.07526 7.65 9.26276 7.575C9.63776 7.4625 9.37526 8.025 9.41276 8.175Z" fill="white"/>
<path d="M5.55039 11.5125C5.55039 11.8125 5.66289 11.6625 5.81289 11.5875C5.88789 11.7375 5.70039 12.15 5.51289 11.9625C5.25039 11.7 5.47539 11.1 5.58789 10.8375C5.66289 11.025 5.51289 11.325 5.55039 11.5125Z" fill="white"/>
<path d="M16.1256 9.1875C16.1631 9.0375 16.0506 8.8875 16.1631 8.7375C16.3131 8.55 16.4631 8.775 16.3881 8.85C16.3131 8.925 16.2006 8.775 16.2006 9C16.2006 9.1125 16.2756 9.3375 16.1631 9.45C16.0881 9.4125 15.7506 8.925 15.7881 8.85C15.9381 8.7 16.0881 9.15 16.1256 9.1875Z" fill="white"/>
<path d="M6.33828 9.825C6.26328 9.975 5.40078 10.4625 5.36328 10.35C5.36328 10.2375 6.45078 9.6 6.33828 9.825Z" fill="white"/>
<path d="M12.7124 11.7375C12.5999 12.075 13.0874 11.775 13.1999 11.7375C13.0499 12 12.5249 12.225 12.5999 11.7375C12.5624 11.7375 12.4874 11.775 12.4499 11.775C12.3749 11.7 12.8249 11.4 12.7124 11.7375Z" fill="white"/>
<path d="M16.8005 11.625C16.913 11.625 17.1005 11.9625 16.988 12.0375C16.913 12.1125 16.5755 12.15 16.763 12C16.988 11.775 16.8005 11.625 16.8005 11.625Z" fill="white"/>
<path d="M11.5121 9.7125C11.5496 9.6375 11.5496 9.525 11.5871 9.45C11.9621 9.75 10.9871 10.2375 11.1746 9.525C11.2496 9.6 11.2496 9.7125 11.3246 9.75C11.3246 9.675 11.3621 9.5625 11.3621 9.4875C11.4371 9.5625 11.4371 9.675 11.5121 9.7125Z" fill="white"/>
<path d="M15.9013 10.2C15.7888 10.05 16.4638 9.6375 16.5763 9.5625C16.6513 9.675 16.1263 10.0875 15.9013 10.2Z" fill="white"/>
<path d="M18.0006 8.7C17.9256 8.475 17.7006 8.025 17.9256 7.8375C18.0756 7.95 18.1506 8.5125 18.0006 8.7Z" fill="white"/>
<path d="M13.9137 7.95C13.8762 7.875 13.7637 7.8 13.7637 7.6875C13.8012 7.5375 13.8762 7.575 13.9512 7.65C14.0637 7.8 14.1387 8.2125 13.9512 8.325C13.9512 8.2125 13.9887 8.0625 13.9137 7.95Z" fill="white"/>
<path d="M9.33733 8.9625C9.33733 9.1875 8.96233 9.4125 8.92483 9.1125C8.88733 9 9.07483 8.5875 9.14983 8.7C8.99983 9.0375 8.99983 9.15 9.33733 8.9625Z" fill="white"/>
<path d="M14.0257 8.55C14.1757 8.925 14.1007 8.5875 14.2507 8.5125C14.5132 9 13.6882 8.8875 13.8757 8.5875C13.9132 8.625 13.9507 8.7 13.9507 8.7375C13.9882 8.7 13.9882 8.625 14.0257 8.55Z" fill="white"/>
<path d="M16.4255 10.275C16.238 10.125 16.463 9.9375 16.5755 10.125C16.6505 10.2375 16.6505 10.5375 16.5005 10.6125C16.5005 10.5 16.538 10.35 16.4255 10.275Z" fill="white"/>
<path d="M8.73842 11.1C8.73842 11.025 8.70092 10.4625 8.81342 10.5375C8.96342 10.6125 8.92592 11.025 8.73842 11.1Z" fill="white"/>
<path d="M7.16247 7.575C7.19997 7.6875 7.23747 7.8375 7.31247 7.65C7.61247 7.9875 6.56247 7.875 6.93747 7.5375C6.93747 7.575 7.01247 7.8 7.16247 7.575Z" fill="white"/>
<path d="M10.9871 8.4C10.9871 8.25 10.7621 7.6125 10.9496 7.6125C11.1746 7.65 11.1371 8.2125 10.9871 8.4Z" fill="white"/>
<path d="M5.73693 8.0625C5.62443 8.025 5.81193 7.8375 5.73693 7.6875C5.66193 7.725 5.58693 7.6125 5.66193 7.5375C5.96193 7.3125 5.84943 8.0625 5.73693 8.0625Z" fill="white"/>
<path d="M15.45 15.675L15.3 15.225L15.15 15.675H6.9375C6.9375 15.675 7.0125 16.35 7.8375 16.35H15.1125V16.875H17.1V15.675H15.45ZM16.725 16.575H15.375V16.2H16.725V16.575Z" fill="white"/>
</g>
<defs>
<clipPath id="clip0_193_6741">
<rect width="24" height="24" fill="white"/>
</clipPath>
</defs>
</svg>
