<svg width="21" height="20" viewBox="0 0 21 20" fill="none" xmlns="http://www.w3.org/2000/svg">
<path d="M10.6982 5.82168C11.3479 5.82168 12.1623 5.38245 12.6473 4.79681C13.0865 4.26607 13.4068 3.52487 13.4068 2.78367C13.4068 2.68301 13.3977 2.58236 13.3794 2.5C12.6565 2.52745 11.7872 2.98498 11.2656 3.59808C10.8538 4.06476 10.4786 4.79681 10.4786 5.54716C10.4786 5.65697 10.4969 5.76677 10.5061 5.80338C10.5518 5.81253 10.625 5.82168 10.6982 5.82168ZM8.41058 16.8939C9.29819 16.8939 9.69166 16.2991 10.7989 16.2991C11.9244 16.2991 12.1715 16.8756 13.1598 16.8756C14.1297 16.8756 14.7794 15.9789 15.3925 15.1004C16.0788 14.0938 16.3625 13.1056 16.3808 13.0598C16.3167 13.0415 14.4591 12.282 14.4591 10.1499C14.4591 8.3015 15.9232 7.46879 16.0056 7.40474C15.0356 6.01384 13.5624 5.97724 13.1598 5.97724C12.0708 5.97724 11.1832 6.63608 10.625 6.63608C10.0211 6.63608 9.22498 6.01384 8.28247 6.01384C6.48894 6.01384 4.66797 7.49624 4.66797 10.2963C4.66797 12.035 5.34512 13.8742 6.17782 15.0638C6.89157 16.0704 7.51381 16.8939 8.41058 16.8939Z" fill="black"/>
</svg>
