<svg width="21" height="20" viewBox="0 0 21 20" fill="none" xmlns="http://www.w3.org/2000/svg">
<path fill-rule="evenodd" clip-rule="evenodd" d="M17.7 10.1708C17.7 9.63899 17.6523 9.12763 17.5636 8.63672H10.5V11.5379H14.5364C14.3625 12.4754 13.8341 13.2697 13.0398 13.8015V15.6833H15.4636C16.8818 14.3776 17.7 12.4549 17.7 10.1708Z" fill="#4285F4"/>
<path fill-rule="evenodd" clip-rule="evenodd" d="M10.4991 17.4998C12.5241 17.4998 14.2219 16.8282 15.4628 15.6828L13.0389 13.8009C12.3673 14.2509 11.5082 14.5168 10.4991 14.5168C8.54574 14.5168 6.89233 13.1975 6.30256 11.4248H3.79688V13.368C5.03097 15.8191 7.56733 17.4998 10.4991 17.4998Z" fill="#34A853"/>
<path fill-rule="evenodd" clip-rule="evenodd" d="M6.30341 11.425C6.15341 10.975 6.06818 10.4943 6.06818 10C6.06818 9.5057 6.15341 9.02502 6.30341 8.57502V6.63184H3.79773C3.28977 7.64434 3 8.78979 3 10C3 11.2102 3.28977 12.3557 3.79773 13.3682L6.30341 11.425Z" fill="#FBBC05"/>
<path fill-rule="evenodd" clip-rule="evenodd" d="M10.4991 5.48295C11.6003 5.48295 12.5889 5.86136 13.3662 6.60455L15.5173 4.45341C14.2185 3.24318 12.5207 2.5 10.4991 2.5C7.56733 2.5 5.03097 4.18068 3.79688 6.63182L6.30256 8.575C6.89233 6.80227 8.54574 5.48295 10.4991 5.48295Z" fill="#EA4335"/>
</svg>
