<svg width="21" height="20" viewBox="0 0 21 20" fill="none" xmlns="http://www.w3.org/2000/svg">
<path fill-rule="evenodd" clip-rule="evenodd" d="M17.5 9.64087C17.5 5.75208 14.366 2.59961 10.5 2.59961C6.634 2.59961 3.5 5.75208 3.5 9.64087C3.5 13.1554 6.0598 16.0684 9.40625 16.5966L9.40625 11.6762H7.62891V9.64087H9.40625V8.08959C9.40625 6.32487 10.4513 5.3501 12.0503 5.3501C12.8161 5.3501 13.6172 5.48762 13.6172 5.48762V7.22043H12.7345C11.8649 7.22043 11.5938 7.7632 11.5938 8.32004V9.64087H13.5352L13.2248 11.6762L11.5938 11.6762V16.5966C14.9402 16.0684 17.5 13.1554 17.5 9.64087Z" fill="#1877F2"/>
</svg>
