<svg width="155" height="72" viewBox="0 0 155 72" fill="none" xmlns="http://www.w3.org/2000/svg">
<g clip-path="url(#clip0_290_7925)">
<path d="M37.416 3.52615C34.4601 1.97416 31.227 1.02042 27.9019 0.719529C24.5769 0.418641 21.2251 0.776515 18.0385 1.77266C14.8519 2.76881 11.8931 4.38367 9.33146 6.5248C6.76979 8.66593 4.65557 11.2913 3.10984 14.2505C-3.40775 26.6932 2.36921 70.5388 2.36921 70.5388C2.36921 70.5388 41.6229 50.3935 48.1404 37.9509C49.707 34.9885 50.6723 31.7457 50.9809 28.4089C51.2895 25.0721 50.9352 21.7072 49.9385 18.5078C48.9418 15.3085 47.3223 12.3378 45.1732 9.76661C43.0241 7.19546 40.3879 5.07464 37.416 3.52615ZM17.1819 42.0392C13.9958 40.3691 11.3764 37.7918 9.6549 34.6331C7.93341 31.4745 7.18714 27.8763 7.51043 24.2936C7.83373 20.7108 9.21207 17.3044 11.4712 14.5049C13.7303 11.7055 16.7688 9.63872 20.2024 8.56597C23.636 7.49322 27.3106 7.46265 30.7616 8.47812C34.2126 9.4936 37.285 11.5095 39.5904 14.271C41.8958 17.0325 43.3306 20.4155 43.7135 23.9924C44.0964 27.5693 43.41 31.1793 41.7414 34.3662C39.5177 38.6561 35.681 41.887 31.0752 43.3482C26.4695 44.8093 21.4719 44.3811 17.1819 42.1577V42.0392Z" fill="#148035"/>
<path d="M0.442766 25.7451C0.442766 25.7451 -3.23078 45.683 18.4254 61.4733L28.498 55.3113L0.442766 25.7451Z" fill="#1D4C23"/>
<path d="M2.96143 37.5654C9.53827 50.1265 49.177 70.4495 49.177 70.4495C49.177 70.4495 55.1021 26.3077 48.4364 13.7465C46.8724 10.7606 44.7357 8.11197 42.1481 5.95183C39.5605 3.7917 36.5728 2.16237 33.3555 1.15689C26.858 -0.873765 19.8199 -0.240111 13.7895 2.91846C7.75915 6.07703 3.23052 11.5018 1.19986 17.9993C-0.830797 24.4969 -0.197142 31.535 2.96143 37.5654ZM17.7741 29.7739C16.9401 28.2167 16.5891 26.4463 16.7658 24.6886C16.9426 22.931 17.6391 21.2659 18.7664 19.906C19.8937 18.546 21.4008 17.5528 23.0951 17.0531C24.7895 16.5535 26.5943 16.5701 28.2791 17.1009C29.964 17.6316 31.4525 18.6524 32.5546 20.0329C33.6567 21.4134 34.3224 23.091 34.4668 24.8516C34.6111 26.6121 34.2276 28.3758 33.365 29.9174C32.5025 31.459 31.2002 32.7086 29.6243 33.5067C27.5745 34.4924 25.2249 34.6548 23.059 33.9604C20.8932 33.266 19.076 31.7677 17.9815 29.7739H17.7741Z" fill="#D29439"/>
<path d="M68.9082 54.2148L62.7461 71.1013H67.1899L68.1083 68.435H74.4185L75.3665 71.1013H79.8103L73.352 54.2148H68.9082ZM69.3822 64.7911L71.2782 58.2143L73.1446 64.7911H69.3822Z" fill="white"/>
<path d="M80.8477 58.0661H85.6173V71.0421H89.7945V58.0661H94.5642V54.2148H80.8477V58.0661Z" fill="white"/>
<path d="M111.569 54.9561C110.124 54.2361 108.532 53.8613 106.918 53.8613C105.303 53.8613 103.711 54.2361 102.266 54.9561C100.958 55.6227 99.8678 56.6509 99.1262 57.9186C98.3695 59.3286 97.9918 60.9108 98.03 62.5105C97.9915 64.1009 98.3693 65.6736 99.1262 67.0728C99.8597 68.347 100.952 69.3772 102.266 70.0354C103.711 70.7554 105.303 71.1301 106.918 71.1301C108.532 71.1301 110.124 70.7554 111.569 70.0354C112.883 69.3772 113.976 68.347 114.709 67.0728C115.466 65.6736 115.844 64.1009 115.805 62.5105C115.844 60.9108 115.466 59.3286 114.709 57.9186C113.967 56.6509 112.878 55.6227 111.569 54.9561ZM110.236 66.1248C109.811 66.5723 109.295 66.923 108.722 67.1531C108.149 67.3831 107.534 67.4871 106.918 67.458C106.317 67.4707 105.719 67.3588 105.164 67.1294C104.608 66.9 104.106 66.5579 103.688 66.1248C102.92 65.1443 102.502 63.9343 102.502 62.6883C102.502 61.4423 102.92 60.2323 103.688 59.2517C104.592 58.4168 105.777 57.9531 107.007 57.9531C108.237 57.9531 109.421 58.4168 110.325 59.2517C111.13 60.2443 111.57 61.4839 111.57 62.7623C111.57 64.0408 111.13 65.2804 110.325 66.273L110.236 66.1248Z" fill="white"/>
<path d="M131.417 64.3171C131.464 65.1294 131.211 65.9307 130.706 66.5686C130.047 67.1129 129.219 67.4107 128.365 67.4107C127.511 67.4107 126.683 67.1129 126.025 66.5686C125.498 65.9511 125.223 65.1579 125.254 64.3467V54.2148H121.048V64.0801C121.029 65.36 121.335 66.6238 121.936 67.7537C122.529 68.8407 123.411 69.7428 124.484 70.3607C125.66 71.0168 126.99 71.3443 128.336 71.3087C129.71 71.3545 131.072 71.0268 132.276 70.3607C133.343 69.7684 134.21 68.871 134.764 67.7833C135.343 66.6355 135.638 65.3655 135.623 64.0801V54.2148H131.417V64.3171Z" fill="white"/>
<path d="M151.383 65.1762C152.44 64.7767 153.35 64.0634 153.99 63.132C154.666 62.1925 155.019 61.0597 154.997 59.9029C154.998 58.9126 154.732 57.9403 154.227 57.0885C153.734 56.2243 153.018 55.5083 152.153 55.0147C151.255 54.4936 150.228 54.2369 149.191 54.274H141.488V71.1013H145.665V65.5317H146.554L149.932 71.1013H154.997L151.087 65.1762H151.383ZM150.08 61.2656C149.906 61.4409 149.698 61.5786 149.468 61.6703C149.239 61.7621 148.993 61.8058 148.747 61.7989H145.784V57.9772H148.747C148.996 57.9684 149.245 58.0142 149.475 58.1115C149.705 58.2087 149.912 58.355 150.08 58.5401C150.261 58.7047 150.405 58.9062 150.502 59.131C150.599 59.3558 150.647 59.5988 150.643 59.8436C150.648 60.0973 150.601 60.3494 150.504 60.584C150.407 60.8185 150.263 61.0304 150.08 61.2064V61.2656Z" fill="white"/>
<path d="M69.7681 17.835H64.9688V22.0418H69.7681V17.835Z" fill="white"/>
<path d="M76.4321 17.835H71.6328V22.0418H76.4321V17.835Z" fill="white"/>
<path d="M88.4588 15.8496H83.8077V37.4169H79.8082C79.4553 37.4403 79.1014 37.389 78.7697 37.2665C78.4379 37.144 78.1356 36.953 77.8826 36.7059C77.3864 35.9868 77.156 35.1174 77.2308 34.247V25.2112C75.0375 24.8285 72.82 24.6008 70.5947 24.5298C68.9489 24.5024 67.3214 24.8788 65.8547 25.626C64.5388 26.3044 63.4326 27.3286 62.6551 28.5885C61.9037 29.916 61.5154 31.4181 61.5294 32.9435C61.4966 34.4824 61.8641 36.0034 62.5959 37.3576C63.2749 38.6118 64.3043 39.6411 65.5584 40.3202C66.8398 41.0159 68.2776 41.3728 69.7356 41.3571H70.3873L72.1945 37.3576H70.4762C69.9284 37.389 69.3803 37.3021 68.8691 37.1027C68.3579 36.9033 67.8956 36.5962 67.5137 36.2023C66.7663 35.3323 66.3841 34.2071 66.4472 33.062C66.4472 30.0994 67.8099 28.47 70.5355 28.47C71.2423 28.4861 71.9462 28.5654 72.6389 28.707V34.9284C72.509 36.6392 73.0154 38.3377 74.0609 39.698C74.6136 40.29 75.2912 40.7513 76.0445 41.0485C76.7978 41.3457 77.6079 41.4714 78.4158 41.4163H88.4588V15.8496Z" fill="white"/>
<path d="M147.799 39.0171C148.487 39.7524 149.312 40.3462 150.228 40.765C151.029 41.1681 151.909 41.3906 152.805 41.4168L154.583 37.4174C153.772 37.4208 152.979 37.1832 152.304 36.7349C151.629 36.2865 151.102 35.6476 150.791 34.8992L148.984 30.3073C148.339 28.571 147.155 27.0865 145.606 26.0708C143.95 25.0268 142.024 24.4912 140.066 24.5303C137.896 24.513 135.756 25.0428 133.845 26.0708L135.534 29.8629C136.741 29.3074 138.056 29.0242 139.385 29.0334C140.534 29.0072 141.667 29.316 142.644 29.9221C143.574 30.5244 144.29 31.406 144.688 32.4403L146.228 36.1435C144.929 36.6408 143.577 36.9887 142.199 37.1804C140.684 37.3418 139.161 37.4209 137.637 37.4174H108.338V25.2117C106.144 24.829 103.927 24.6013 101.701 24.5303C100.047 24.5064 98.4103 24.8824 96.9318 25.6265C95.6188 26.2979 94.5205 27.3243 93.7619 28.589C92.9969 29.911 92.6077 31.4168 92.6361 32.9439C92.5943 34.4802 92.9515 36.0011 93.673 37.3581C94.3493 38.6143 95.3793 39.6444 96.6355 40.3207C97.8791 41.0443 99.2854 41.4418 100.724 41.476H101.198L103.005 37.4766H101.524C100.977 37.5023 100.43 37.4127 99.9197 37.2136C99.4094 37.0146 98.9465 36.7106 98.5612 36.3212C97.835 35.441 97.465 34.3205 97.5243 33.1809C97.5243 30.2184 98.8871 28.589 101.583 28.589C102.3 28.601 103.014 28.6803 103.716 28.826V40.291C103.767 41.1927 103.55 42.0892 103.094 42.8684C102.65 43.5339 102.007 44.042 101.257 44.3201C100.19 44.6812 99.0877 44.9295 97.9687 45.0607L99.8351 49.2379C101.971 48.9515 104.005 48.1481 105.76 46.8975C106.538 46.222 107.164 45.3899 107.598 44.4556C108.032 43.5214 108.264 42.5061 108.278 41.476H137.637C139.413 41.4654 141.181 41.2567 142.91 40.8539C144.614 40.4596 146.257 39.842 147.799 39.0171Z" fill="white"/>
<path d="M142.854 44.3496H138.055V48.5564H142.854V44.3496Z" fill="white"/>
</g>
<defs>
<clipPath id="clip0_290_7925">
<rect width="155" height="71.3676" fill="white"/>
</clipPath>
</defs>
</svg>
