<svg width="580" height="438" viewBox="0 0 580 438" fill="none" xmlns="http://www.w3.org/2000/svg">
<path d="M27.5337 436.67C196.493 437.246 365.455 437.068 534.414 436.135C543.246 436.087 552.455 435.948 560.307 431.906C581.206 421.149 580.561 391.552 577.249 365.12C575.977 252.819 574.706 140.519 573.432 28.218C573.349 20.8354 572.83 12.4778 567.186 7.71211C563.522 4.61607 558.494 3.80445 553.728 3.25285C535.719 1.16715 517.478 1.09472 496.29 1C345.269 1.13558 194.253 3.88617 43.3268 9.24805C30.8034 9.69379 16.5457 11.0124 8.99858 21.0063C3.80854 27.8781 3.29178 37.0827 3.00922 45.6873C-0.933498 165.577 0.927258 285.657 8.58406 405.368C9.19563 414.929 10.2013 425.335 16.8394 432.25C24.3698 440.097 42.113 435.212 52.9857 434.82C94.954 433.311 115.681 440.216 115.244 421.229C114.926 407.398 114.606 384.279 114.617 370.589C107.667 374.588 100.332 377.92 92.7475 380.522C95.4392 372.74 98.6086 365.123 102.233 357.73C94.8722 354.16 89.803 351.168 84.678 344.794C91.1804 345.074 96.1957 343.126 102.7 343.407C103.761 343.453 104.895 343.481 105.803 342.929C107.622 341.822 113.207 328.199 117.084 319.702C120.387 326.762 123.765 335.25 125.68 342.803C132.771 342.567 139.131 341.568 146.209 342.034C141.77 346.614 137.067 350.941 132.132 354.987C135.926 363.012 138.729 371.503 140.46 380.208C132.53 376.363 124.499 372.721 116.724 369.196L113.599 355.895C113.022 353.447 113.337 349.777 115.855 349.792C118.406 349.807 118.859 353.792 121.144 354.922C122.008 355.349 123.021 355.299 123.983 355.241C141.832 354.18 156.004 353.837 177.446 354.344C174.048 350.135 170.65 345.925 167.252 341.716C182.155 341.135 189.568 342.392 189.97 340.411C191.169 334.477 195.466 323.98 199.082 317.026C203.521 324.126 206.677 330.907 208.358 339.107C215.635 338.113 224.943 338.379 232.129 339.893C227.25 346.014 221.885 351.749 216.102 357.026C220.879 363.168 223.876 370.675 224.646 378.416C215.883 376.315 207.549 372.448 200.288 367.114C199.259 366.357 198.175 365.541 196.903 365.421C194.613 365.201 192.819 367.226 191.269 368.923C187.025 373.574 181.562 377.106 175.578 379.07C175.978 372.616 176.563 365.679 180.714 360.716C184.865 355.754 193.964 354.583 197.305 360.122C196.848 357.483 198.976 354.951 201.48 353.995C203.984 353.036 206.763 353.261 209.436 353.458C227.614 354.808 238.491 353.259 260.143 350.852C255.033 346.703 249.925 342.554 244.815 338.405C252.456 338.212 260.097 338.021 267.738 337.827C268.919 337.798 270.172 337.746 271.155 337.094C272.064 336.49 272.592 335.471 273.083 334.494C276.421 327.845 279.76 321.194 283.099 314.545C287.328 321.55 290.668 329.089 293.018 336.927C301.362 336.67 309.72 336.862 318.044 337.497C312.346 342.734 306.647 347.974 300.95 353.211C305.794 359.572 309.199 367.022 310.844 374.844C301.617 371.405 292.389 367.967 283.162 364.527C282.069 364.12 280.927 363.706 279.766 363.823C278.665 363.935 277.674 364.512 276.722 365.077C269.536 369.341 262.35 373.605 255.163 377.868C255.864 369.042 259.069 360.428 264.305 353.285C265.209 352.054 266.225 350.821 267.619 350.195C272.441 348.031 276.843 354.054 281.926 355.51C285.032 350.574 291.869 349.978 297.706 349.909C312.939 349.732 326.316 349.558 341.39 350.197C345.838 350.121 350.287 350.046 354.735 349.97C348.933 345.739 343.132 341.508 337.33 337.278C344.273 337.207 351.216 337.138 358.159 337.068C359.088 337.058 360.07 337.034 360.864 336.55C361.758 336.004 362.228 334.988 362.65 334.031C365.665 327.195 368.678 320.36 371.694 313.523C376.389 317.728 379.843 323.3 381.522 329.371C382.031 331.217 382.503 333.292 384.091 334.364C385.113 335.054 386.405 335.177 387.636 335.279C394.136 335.82 400.637 336.36 407.135 336.901C400.99 342.084 394.943 347.383 388.994 352.793C393.705 359.301 397.497 366.472 400.224 374.027C389.911 371.499 379.836 368 370.175 363.595C363.053 368.764 355.12 372.812 346.753 375.548C349.396 365.419 355.101 356.108 362.927 349.149C366.697 351.903 370.785 354.223 375.082 356.049C374.545 353.924 376.056 351.71 378.005 350.704C379.953 349.697 382.232 349.61 384.423 349.543C398.703 349.11 414.84 350.535 431.565 351.564C427.007 346.74 422.451 341.917 417.893 337.094C426.771 337.742 435.684 337.904 444.581 337.579C447.802 328.595 451.769 319.879 456.43 311.551C461.207 319.123 464.263 327.77 465.304 336.661C473.888 335.734 482.599 335.983 491.117 337.395C484.324 342.537 477.534 347.68 470.741 352.823C470.091 353.317 469.403 353.857 469.152 354.635C468.897 355.425 469.152 356.279 469.405 357.068C471.529 363.697 473.656 370.326 475.781 376.956C465.683 373.516 455.866 369.256 446.458 364.232C439.841 368.637 432.775 372.374 425.408 375.364C427.771 366.899 432.217 359.022 441.04 352.47C446.287 348.187 454.792 352.229 457.621 358.382C460.45 364.535 459.454 371.661 458.835 378.403C457.337 394.728 458.415 411.287 462.021 427.28C462.527 429.525 463.179 431.919 464.954 433.389C466.813 434.926 469.427 435.06 471.842 435.119C488.232 435.536 504.622 435.95 521.011 436.366C537.94 436.795 557.922 435.719 567.203 421.569C572.644 413.273 572.676 402.683 572.523 392.767C571.618 334.267 570.711 275.765 569.346 216.809C570.653 167.79 569.681 118.711 566.43 69.7814C566.173 65.9128 565.842 61.8603 563.747 58.5952C558.859 50.9768 547.718 51.5785 540.257 54.2177C478.472 51.3705 416.489 52.8284 354.908 58.5766C355.804 63.1771 356.702 67.7756 357.598 72.376C417.636 70.6785 477.703 69.9616 537.766 70.2235C537.427 65.3872 537.091 60.5509 536.752 55.7146C536.784 65.7884 536.816 75.8621 536.845 85.9358C500.744 88.3465 464.564 89.5797 428.383 89.6355C428.823 94.8005 429.264 99.9673 429.704 105.132C466.116 107.499 502.738 106.637 539 102.56C538.624 97.4601 538.247 92.36 537.872 87.2582C538.621 102.508 538.186 117.817 536.572 133C536.438 134.263 536.234 135.649 535.28 136.486C534.373 137.283 533.057 137.348 531.851 137.374C507.408 137.896 482.967 138.418 458.525 138.94C456.788 133.522 457.036 127.494 459.207 122.236C483.908 123.885 508.722 123.837 531.901 123.506C532.12 128.589 532.339 133.671 532.559 138.754C474.561 140.769 416.566 142.786 358.304 145.323C333.813 114.933 289.112 103.199 252.378 116.441C215.645 129.683 188.983 166.34 186.414 205.273C184.651 231.997 194.463 260.395 215.847 276.542C223.231 282.117 231.726 286.099 240.513 289.006C279.108 301.771 325.264 291.961 352.569 261.87C379.875 231.778 384.327 182.154 358.125 149.532C336.155 124.855 301.124 112.292 268.573 118.04C236.02 123.788 207.211 147.925 196.498 179.17C185.785 210.416 193.948 247.489 218.993 270.966C227.358 264.377 236.678 259 247.309 257.195C248.553 263.387 249.796 269.579 251.04 275.771C251.417 277.647 251.817 279.582 252.899 281.161C256.182 285.956 263.92 285.362 267.807 289.682C265.002 282.008 264.13 273.635 265.29 265.549C266.227 259.013 268.45 252.273 266.445 245.983C265.253 242.248 262.66 239.079 261.463 235.346C259.461 229.104 265.333 222.756 265.578 216.207C266.086 202.657 259.124 189.346 263.127 176.39C265.584 179.157 265.746 177.342 268.8 175.249C271.854 173.158 274.551 170.199 278.195 169.531C281.81 168.868 285.361 170.645 288.909 171.602C295.18 173.292 301.45 176.882 307.885 176.003C307.34 199.718 304.565 201.891 304.02 225.607C303.864 232.371 306.309 256.253 305.087 262.908C303.734 270.274 301.258 278.546 305.491 284.727C310.29 278.104 315.092 271.481 319.892 264.858C321.373 262.815 322.886 260.701 323.47 258.248C324.065 255.744 331.815 252.756 331.409 250.215C327.578 226.151 315.138 211.852 319.156 177.729C319.336 176.196 319.295 174.577 318.648 173.176C317.263 170.181 313.397 172.06 310.103 171.815C289.326 170.272 274.049 169.284 253.354 171.967C251.111 172.259 253.921 168.57 255.702 167.176C258.749 164.791 277.104 164.275 317.22 166.255C318.983 166.342 320.907 166.503 322.186 167.718C323.464 168.933 322.537 172.781 320.933 172.045C318.501 170.933 317.631 166.281 316.672 163.786C311.413 150.106 300.686 142.374 286.024 142.831C271.363 143.288 260.519 153.016 256.124 166.999C256.124 166.999 256.58 168.847 257.046 171.176C251.414 176.553 248.661 184.329 247.542 192.031C246.423 199.733 246.746 207.565 246.253 215.332C245.255 231.078 240.84 246.601 233.403 260.519C239.288 261.424 245.056 257.373 247.962 252.182C250.869 246.989 251.505 240.868 251.934 234.934C252.364 229 252.678 222.908 255.05 217.451C256.275 214.634 259.167 211.67 261.965 212.95C263.638 213.715 264.346 215.656 265.03 217.364C267.501 223.543 272.118 226.03 277.501 229.947C280.254 231.949 283.671 233.608 286.969 232.759C288.796 232.289 290.346 231.1 291.763 229.854C298.41 224.009 301.855 221.068 304.989 213.258C303.829 221.911 304.526 228.805 304.855 237.528C299.778 240.457 294.363 243.763 292.155 249.19C291.49 250.826 291.159 252.574 290.83 254.309C288.344 267.46 285.848 280.706 285.898 294.089C284.833 294.522 283.634 294.618 282.513 294.362C283.6 282.656 283.928 270.879 283.495 259.128C283.422 257.145 283.31 255.1 282.444 253.315C281.414 251.194 279.44 249.695 277.431 248.462C273.272 245.91 268.642 244.131 263.011 244.474C263.104 246.358 264.244 248.157 265.909 249.045C267.142 249.703 268.577 249.868 269.859 250.421C272.412 251.523 274.101 254.073 274.873 256.742C275.646 259.411 275.637 262.232 275.685 265.01C275.827 273.368 276.524 281.716 277.765 289.983C278.022 291.682 278.418 293.571 279.842 294.535C282.872 296.583 286.738 292.583 290.358 293.108C289.716 281.543 290.672 269.893 293.191 258.588C293.592 256.782 294.047 254.953 295.001 253.367C296.884 250.239 300.39 248.529 306.876 246.995C307.182 249.37 309.357 251.14 311.657 251.816C313.956 252.492 316.404 252.323 318.801 252.333C329.673 252.372 340.488 256.342 348.413 264.173C330.093 277.599 308.532 287.017 285.93 289.31C263.325 291.604 239.701 286.448 222.281 272.157C213.788 268.27 207.538 260.586 203.344 252.247C199.149 243.908 196.744 234.811 193.905 225.919C193.409 224.36 192.855 222.739 191.671 221.61C190.202 220.21 188.057 219.836 186.044 219.576C178.255 218.577 170.356 218.332 162.672 216.716C154.987 215.1 147.341 211.937 139.913 206.878C131.578 201.583 123.243 196.288 114.907 190.993C114.175 190.527 113.392 190.046 112.524 190.031C111.249 190.007 110.201 190.973 109.281 191.855C101.475 199.347 92.3144 205.424 82.3748 209.705C80.8375 191.613 83.6612 173.466 86.6113 152.916C62.5385 143.841 46.5613 116.989 50.0858 91.5243C53.6084 66.0595 76.2758 44.5451 101.91 42.335C127.544 40.1249 153.565 57.4419 161.404 81.926C167.611 101.319 162.412 123.983 148.156 138.533C133.9 153.083 111.141 158.742 89.8569 152.242L91.3366 144.3C81.5569 143.208 72.6677 137.215 67.0538 129.139C61.4399 121.064 58.9304 111.09 58.8932 101.258C58.8709 95.0085 59.8134 88.7328 61.9325 82.8509C70.2232 59.8321 98.3056 46.1108 121.581 53.7069C144.856 61.3012 159.421 88.9371 152.515 112.409C145.611 135.879 118.395 151.248 93.6156 144.118C87.405 143.069 89.2844 134.819 84.3917 130.853C94.4651 122.698 98.5268 120.037 108.474 111.727C118.898 118.516 125.135 120.054 136.073 125.982C132.703 115.953 130.039 107.671 125.156 98.2847C131.052 92.0685 138.378 89.4943 144.875 83.9077C136.5 83.7851 128.12 82.238 119.778 82.9791C115.831 74.2444 112.731 64.1113 106.888 56.5114C104.098 65.3389 99.4488 74.1664 96.6567 82.9939C87.9329 82.3495 79.1162 86.701 70.5764 88.5935C77.196 93.766 84.929 95.965 91.5485 101.137C85.8361 111.675 85.7041 117.418 81.9417 127.982C86.1948 133.463 87.7508 141.243 93.6174 144.948C97.945 147.682 103.479 147.398 108.55 146.679C114.948 145.771 121.269 144.317 127.42 142.339C134.571 163.939 139.787 186.177 142.7 207.22C130.34 202.514 121.443 187.823 108.29 189.231C101.852 189.92 96.6066 194.487 91.7456 198.758C83.0552 206.395 73.7031 213.99 62.4567 216.729C55.4636 218.432 48.16 218.142 40.9679 217.84C27.6638 217.282 14.3596 216.725 3.9647 214.868C1.69498 157.893 3.20441 100.77 8.48181 43.9935C9.00231 38.4013 9.61388 32.6271 12.3669 27.7314C18.0514 17.6243 30.7607 14.2942 48.6489 12.2382C189.209 10.1284 329.772 8.02041 469.275 6.54761C493.836 6.59218 518.398 6.63676 542.959 6.68133C552.044 6.69805 563.054 7.86812 566.911 16.0846C568.463 19.3905 568.434 23.1886 568.374 26.8381C568.181 38.7338 567.988 50.6295 568.551 63.3684C567.865 106.154 567.298 149.006 570.428 191.684C570.913 198.285 575.211 197.67 575.696 204.271M576.574 176.937C574.302 175.767 574.52 184.199 575.762 187.262M577.096 178.078C572.172 169.59 573.334 153.094 574.65 143.373C574.743 142.68 574.88 141.912 575.445 141.501" stroke="#0E4A79" stroke-width="1.51263" stroke-linecap="round" stroke-linejoin="round"/>
</svg>
