<svg width="161" height="274" viewBox="0 0 161 274" fill="none" xmlns="http://www.w3.org/2000/svg">
<path d="M119.271 128.478V182.885H67.0286V156.01C26.6143 139.622 0 115.368 0 75.055V74.7273C0 27.5311 34.1714 0 88.3857 0C113.686 0 135.371 5.89952 149.829 12.7823L161 66.2057C139.971 55.7177 116.314 50.1459 97.2571 50.1459C69.3286 50.1459 53.2286 60.3062 53.2286 82.5933V82.9211C53.2286 109.469 79.8429 119.957 119.271 128.478ZM93.9714 274C77.5429 274 64.0714 266.134 64.0714 249.419C64.0714 234.998 76.5571 225.493 93.9714 225.493C111.714 225.493 123.871 234.998 123.871 249.419C123.871 266.134 110.4 274 93.9714 274Z" fill="#F1F8FD"/>
</svg>
