<svg width="1296" height="514" viewBox="0 0 1296 514" fill="none" xmlns="http://www.w3.org/2000/svg">
<path d="M0 498.743C2.23218 497.993 279.587 497.68 260.946 502.925C242.308 508.172 214.178 525.404 216.468 491.684C218.76 457.944 238.738 336.287 227.956 323.505C217.171 310.72 175.724 304.709 196.999 315.988C218.27 327.267 267.174 331.019 269.212 320.49C271.25 309.959 262.568 289.644 267.86 291.15C273.151 292.654 287.252 286.599 292.24 280.004C297.227 273.411 302.373 238.221 308.435 248.485C314.494 258.747 310.339 270.475 309.71 275.605C309.08 280.734 331.732 279.264 333.327 285.859C334.92 292.453 330.529 292.453 330.573 294.65C330.617 296.85 336.529 299.777 332.957 304.174C329.389 308.569 331.48 303.442 329.389 308.569C327.295 313.693 329.488 313.693 328.114 318.088C326.738 322.48 325.232 320.285 323.813 322.482C322.395 324.677 329.795 329.069 320.302 329.801C310.811 330.536 294.636 326.144 284.338 323.22C274.04 320.292 263.116 322.49 261.428 311.506C259.74 300.522 264.634 289.533 259.439 285.871C254.243 282.209 234.385 277.083 223.289 271.223C211.546 262.455 188.233 264.223 196.905 269.029C204.999 271.226 223.959 268.291 229.629 259.497C235.299 250.698 251.101 200.817 242.547 176.596C233.988 152.365 237.957 131.79 222.008 139.878C206.063 147.963 178.816 244.111 179.223 263.17C179.629 282.223 173.966 291.014 185.14 300.532C196.312 310.051 200.839 316.64 191.505 290.279C182.165 263.901 194.637 196.427 204.155 196.425C213.672 196.422 224.458 222.101 222.611 203.76C220.763 185.411 215.984 167.057 220.163 156.774C224.343 146.49 224.174 138.408 246.046 133.258C267.919 128.108 292.389 118.301 294.225 112.419C296.06 106.537 295.942 100.654 295.502 103.105C295.064 105.558 294.382 120.259 307.231 127.607C320.079 134.952 330.316 133.97 330.874 137.398C331.429 140.829 334.316 163.356 335.149 156.012C335.981 148.664 335.737 136.419 340.565 133.477C345.392 130.537 352.22 130.043 354.559 124.654C356.897 119.263 357.202 109.949 357.251 112.401C357.297 114.853 360.871 122.691 360.067 131.513C359.26 140.33 343.095 137.886 340.844 147.682C338.596 157.479 338.843 194.68 333.815 187.343C328.787 180.001 330.187 152.093 324.766 149.646C319.345 147.199 303.736 148.184 297.679 138.387C291.619 128.591 284.602 119.774 292.141 106.048C299.683 92.3176 302.162 69.7563 301.253 73.1926C300.344 76.6259 306.556 118.296 335.829 116.328C365.104 114.36 372.519 68.2638 371.866 59.9221C371.217 51.5826 366.597 40.2958 357.759 38.3349C348.919 36.3747 345.016 36.8677 341.518 32.9407C338.015 29.0142 337.566 30.9774 328.813 33.4367C320.061 35.8938 315.582 31.9667 312.267 37.3692C308.953 42.7685 307.565 46.6979 304.409 59.9451C301.253 73.193 296.513 80.5503 288.395 89.8711C280.277 99.1895 278.601 112.912 274.283 116.837C269.967 120.759 250.051 126.152 250.479 123.213C250.906 120.273 265.859 110.957 271.002 99.6827C276.148 88.404 276.807 72.7099 282.861 57.992C288.918 43.2667 292.602 31.9748 300.355 28.5365C308.111 25.0983 335.436 22.1429 352.159 27.046C364.701 30.7234 373.768 39.6485 378.32 42.8457C379.839 43.9121 380.856 44.3383 381.331 43.7272C383.24 41.273 386.089 36.8526 378.161 31.4555C370.232 26.0567 348.534 16.7354 334.341 16.2503C320.15 15.7644 298.692 18.7197 302.173 21.6621C305.656 24.6074 311.972 -1.91397 341.407 2.49613C370.839 6.90624 382.092 32.4345 379.134 56.4863C376.178 80.525 376.386 91.3157 379.104 105.532C381.821 119.746 375.219 131.999 375.219 131.999C375.219 131.999 358.877 120.732 364.29 122.691C369.703 124.65 403.215 139.829 411.76 152.563C420.305 165.292 434.402 239.661 434.032 246.016C433.664 252.371 412.24 254.82 413.779 258.729C415.315 262.638 439.594 256.28 431.868 260.68C424.146 265.082 414.442 268.014 414.573 274.855C414.702 281.693 404.111 289.022 401.429 276.322C395.905 262.04 398.79 225.472 402.68 239.668C403.898 252.376 390.577 295.375 403.51 308.556C416.438 321.737 458.565 305.619 463.749 295.851C468.934 286.083 475.593 276.798 469.35 282.174C463.107 287.548 464.723 295.851 452.954 292.435C441.182 289.017 437.022 275.341 437.022 275.341C437.022 275.341 460.468 276.8 454.153 278.268C447.838 279.735 429.677 273.876 436.858 266.544C444.038 259.212 458.778 264.586 453.411 264.586C448.044 264.588 425.49 258.726 436.141 254.327C446.792 249.925 457.033 249.434 454.133 250.901C451.232 252.369 429.246 250.906 437.891 243.572C446.538 236.235 456.858 240.147 456.858 240.147C456.858 240.147 431.972 240.152 439.679 234.771C447.386 229.389 466.485 232.81 466.459 231.342C466.431 229.874 462.699 212.757 468.448 206.885C474.198 201.013 474.751 204.436 474.858 210.308C474.966 216.177 480.312 241.609 478.55 251.875C476.787 262.139 472.078 271.424 467.325 278.265C462.572 285.106 445.79 300.739 423.853 301.229C401.915 301.72 394.647 304.164 391.494 292.443C388.342 280.722 396.422 167.746 387.53 187.819C378.641 207.881 381.719 266.066 359.113 307.587C336.528 349.072 293.635 469.421 304.966 451.9C316.301 434.371 348.382 381.745 346.874 404.165C345.368 426.578 333.083 494.722 342.414 474.287C351.75 453.846 373.087 399.291 378.394 421.705C383.7 444.106 407.274 505.42 408.718 479.151C410.165 452.869 410.301 306.603 401.858 324.178C393.419 341.748 418.622 487.91 417.795 495.693C416.97 503.475 383.836 501.53 399.336 497.639C414.838 493.748 495.665 494.719 495.665 494.719C495.665 494.719 515.565 496.307 506.086 494.418C496.603 492.53 496.649 460.422 496.649 460.422C496.649 460.422 477.712 458.533 485.985 462.943C494.254 467.35 504.449 473.646 515.997 450.343C527.553 427.032 538.248 390.466 530.038 354.502C516.686 318.517 527.187 423.248 560.826 455.379C590.998 487.493 686.583 476.79 686.09 446.555C685.597 416.305 666.744 343.755 666.744 343.755C666.744 343.755 703.167 333.018 701.476 306.487C699.783 279.945 677.126 168.57 663.127 162.87C649.128 157.173 632.831 165.412 628.718 183.784C624.605 202.148 634.789 281.852 642.417 285.011C650.044 288.172 658.937 291.33 656.347 287.536C653.76 283.746 599.549 251.51 599.646 257.202C599.744 262.892 612.096 283.751 604.738 296.392C597.38 309.031 584.594 299.556 583.931 297.659C583.267 295.765 591.428 293.236 593.136 282.491C594.845 271.744 595.281 260.363 589.534 256.57C583.784 252.777 572.385 250.883 566.527 240.762C560.665 230.642 554.581 207.86 549.042 216.089C543.503 224.318 550.907 250.253 553.41 248.989C555.914 247.724 538.909 250.255 537.129 256.58C535.346 262.904 538.536 264.801 538.536 264.801C538.536 264.801 534.827 269.226 536.157 273.019C537.488 276.812 541.252 275.548 541.309 278.709C541.365 281.867 537.655 286.293 540.857 288.821C544.057 291.347 546.603 292.612 546.603 292.612C546.603 292.612 541.669 298.931 549.882 299.561C558.098 300.19 568.03 290.713 579.404 291.342C590.775 291.972 605.725 317.241 643.778 328.605C681.825 339.964 696.05 322.281 691.017 284.37C685.979 246.432 670.816 169.204 660.134 173.008C649.454 176.812 629.199 212.275 637.703 192.015C646.209 171.744 661.77 157.167 645.251 152.102C628.731 147.037 604.632 142.606 598.847 136.904C593.059 131.199 593.059 131.199 593.059 131.199C593.059 131.199 585.223 153.387 576.727 173.663C568.235 193.929 557.239 215.454 559.203 219.253C561.162 223.048 567.169 241.394 570.26 237.599C573.351 233.803 601.033 190.755 600.969 186.957C600.902 183.156 584.408 179.36 590.661 175.56C596.917 171.756 614.064 176.819 608.761 162.25C603.456 147.677 592.982 126.761 589.233 129.299C585.482 131.836 575.676 149.586 565.718 158.46C555.763 167.333 543.248 174.303 545.155 174.938C547.061 175.57 546.386 173.036 541.781 162.901C537.177 152.765 539.459 138.82 536.399 144.526C533.342 150.231 521.922 183.177 527.597 182.542C533.272 181.907 539.456 174.305 537.683 181.272C535.913 188.239 531.762 203.434 527.836 231.282C523.916 259.111 525.251 333.67 528.327 329.25C531.402 324.83 544.22 264.798 544.435 241.399C544.654 217.988 539.646 185.071 548.448 182.536C557.25 180 562.461 188.866 566.173 184.43C569.888 179.998 595.656 136.837 592.963 129.487C590.271 122.135 586.317 126.547 587.712 122.502C589.11 118.46 589.703 110.369 591.851 107.427C594.001 104.487 606.7 96.7597 603.186 84.255C599.671 71.7471 593.153 76.5324 592.514 82.0498C591.877 87.5702 591.656 96.0276 589.726 90.5123C587.799 84.995 587.029 82.7877 583.511 70.2799C579.995 57.7672 576.919 55.5131 580.563 54.0387C584.205 52.5658 583.522 55.511 564.081 55.516C544.644 55.524 529.881 50.3759 524.419 52.5861C518.957 54.7963 514.03 45.9613 517.415 50.7488C520.802 55.5311 524.116 56.2661 520.607 65.1017C517.099 73.9364 516.249 82.0727 516.223 80.6027C516.198 79.1304 510.112 72.8342 510.98 59.9514C511.849 47.0686 515.45 43.386 515.45 43.386C515.45 43.386 523.099 19.813 554.722 23.8522C586.346 27.8922 589.028 34.5227 591.882 51.0902C594.734 67.6533 593.855 74.6917 593.064 71.3795C592.275 68.0693 590.294 44.0956 567.468 39.3175C544.638 34.538 526.436 42.2757 522.485 47.0634C518.535 51.8509 515.088 58.1578 514.512 66.9906C513.937 75.8204 517.994 97.5227 517.973 96.4178C517.955 95.3155 514.816 83.9129 513.842 90.9025C512.868 97.8907 518.284 113.7 519.722 112.23C521.164 110.76 520.691 104.875 520.724 106.715C520.758 108.552 525.223 132.812 539.246 138.322C553.268 143.829 575.057 132.431 579.699 125.447C584.344 118.459 584.257 134.634 578.831 138.677C573.403 142.722 547.871 149.341 542.295 144.934C536.72 140.527 533.332 135.382 530.591 146.039C527.849 156.694 510.386 183.873 512.604 184.973C514.821 186.075 523.592 184.97 521.819 188.275C520.047 191.58 511.044 200.024 510.718 202.224C510.392 204.426 520.422 314.396 522.253 334.898C524.083 355.391 498.687 366.369 500.323 375.877C501.958 385.386 511.566 391.235 511.088 405.127C510.608 419.014 485.047 459.925 484.742 443.125C484.433 426.324 497.053 356.858 496.534 328.312C496.012 299.752 489.13 243.316 492.282 215.439C495.436 187.548 517.654 160.369 511.913 166.981C506.17 173.593 485.247 191.22 482.56 204.434C479.873 217.643 481.514 307.079 482.185 343.687C482.856 380.269 472.764 467.226 483.814 472.335C494.864 477.446 525.868 495.689 527.98 491.31C530.092 486.934 515.756 461.381 523.923 468.683C532.088 475.983 546.316 495.689 546.853 484.742C550.885 465.745 538.998 423.194 539.539 443.123C539.201 455.389 546.089 482.66 564.472 489.85C579.91 495.689 662.467 497.148 664.525 489.12C666.583 481.09 665.637 467.951 663.564 475.251C661.493 482.55 658.718 491.31 669.673 491.31C680.631 491.31 1294.5 490.577 1294.5 490.577" stroke="url(#paint0_linear_2200_638)" stroke-width="2.4548" stroke-miterlimit="10" stroke-linecap="round"/>
<defs>
<linearGradient id="paint0_linear_2200_638" x1="707.5" y1="479.5" x2="373.5" y2="179" gradientUnits="userSpaceOnUse">
<stop stop-color="#0E4A79" stop-opacity="0"/>
<stop offset="1" stop-color="#0E4A79"/>
</linearGradient>
</defs>
</svg>
