<svg width="23" height="22" viewBox="0 0 23 22" fill="none" xmlns="http://www.w3.org/2000/svg">
<path fill-rule="evenodd" clip-rule="evenodd" d="M6.31876 1.50182C6.03837 0.998787 5.58707 0.618048 5.02039 0.500923C4.44779 0.382576 3.87224 0.557147 3.3992 0.942689C1.68284 2.34159 0.590005 4.58287 1.0643 6.9341C1.35584 8.37936 1.84156 9.80535 2.83068 11.5301C4.81575 14.9914 7.92283 18.1002 11.3882 20.0876C13.1129 21.0767 14.5389 21.5624 15.9841 21.8539C18.3354 22.3282 20.5766 21.2354 21.9755 19.519C22.3611 19.046 22.5357 18.4704 22.4173 17.8978C22.3002 17.3312 21.9195 16.8799 21.4164 16.5995L19.814 15.7063C19.2238 15.3773 18.7271 15.1004 18.2953 14.9196C17.8373 14.7278 17.3856 14.6138 16.8863 14.6659C16.3869 14.718 15.9685 14.9226 15.5599 15.2048C15.1747 15.4708 14.7458 15.8442 14.2362 16.2879L11.6772 18.5158C8.77823 16.7471 6.16929 14.137 4.40245 11.2411L6.63031 8.68202C7.07401 8.1724 7.4474 7.74352 7.71341 7.35835C7.99559 6.94976 8.20024 6.53132 8.25231 6.03196C8.30439 5.5326 8.19047 5.08094 7.99867 4.62292C7.81786 4.19115 7.54098 3.69447 7.21198 3.10427L6.31876 1.50182ZM16.2808 20.3836C15.2552 20.1767 14.2407 19.863 13.0743 19.2883L15.1901 17.4463C15.739 16.9684 16.1046 16.6516 16.4123 16.4391C16.7043 16.2374 16.883 16.1744 17.0419 16.1578C17.2007 16.1413 17.3885 16.1661 17.7159 16.3031C18.0608 16.4476 18.484 16.6822 19.1196 17.0365L20.6861 17.9097C20.8769 18.0161 20.9342 18.133 20.9484 18.2015C20.9613 18.264 20.9604 18.3903 20.8128 18.5714C19.6891 19.9501 17.9768 20.7257 16.2808 20.3836ZM5.47196 7.72812L3.62998 9.84392C3.05525 8.67754 2.74157 7.66307 2.53468 6.63749C2.19255 4.94144 2.96809 3.22917 4.34687 2.10541C4.5279 1.95786 4.65428 1.95696 4.71678 1.96988C4.78519 1.98402 4.90218 2.04129 5.00856 2.23213L5.88174 3.79864C6.23605 4.43428 6.47067 4.85745 6.61509 5.20233C6.75218 5.52969 6.77697 5.71754 6.76041 5.87638C6.74384 6.03522 6.68083 6.21391 6.47914 6.50595C6.26668 6.8136 5.94979 7.17926 5.47196 7.72812Z" fill="#0E4A79"/>
<path d="M14.4536 2.2146C14.4536 1.80039 14.1178 1.4646 13.7036 1.4646C13.2894 1.4646 12.9536 1.80039 12.9536 2.2146L12.9536 5.0146C12.9536 5.42881 13.2894 5.7646 13.7036 5.7646C14.1178 5.7646 14.4536 5.42881 14.4536 5.0146L14.4536 2.2146Z" fill="#0E4A79"/>
<path d="M19.1841 4.79571C19.477 4.50282 19.477 4.02794 19.1841 3.73505C18.8912 3.44216 18.4164 3.44216 18.1235 3.73505L16.1436 5.71495C15.8507 6.00784 15.8507 6.48272 16.1436 6.77561C16.4365 7.0685 16.9113 7.0685 17.2042 6.77561L19.1841 4.79571Z" fill="#0E4A79"/>
<path d="M17.9036 8.4646C17.4894 8.4646 17.1536 8.80039 17.1536 9.2146C17.1536 9.62881 17.4894 9.9646 17.9036 9.9646L20.7036 9.9646C21.1178 9.9646 21.4536 9.62881 21.4536 9.2146C21.4536 8.80039 21.1178 8.4646 20.7036 8.4646L17.9036 8.4646Z" fill="#0E4A79"/>
</svg>
