<svg width="24" height="25" viewBox="0 0 24 25" fill="none" xmlns="http://www.w3.org/2000/svg">
<path d="M9.56098 11.0993C10.541 11.6763 11.27 11.9653 11.999 11.9653C12.729 11.9653 13.458 11.6773 14.439 11.0993L17.381 9.35922C17.738 9.14922 17.856 8.68927 17.645 8.33227C17.435 7.97527 16.975 7.8572 16.618 8.0682L13.677 9.80727C12.203 10.6743 11.795 10.6743 10.323 9.80727L7.38099 8.06723C7.02499 7.85623 6.56494 7.97519 6.35394 8.33119C6.14294 8.68719 6.26201 9.14724 6.61801 9.35824L9.56098 11.0993Z" fill="#0E4A79"/>
<path fill-rule="evenodd" clip-rule="evenodd" d="M9.07972 21.4232C10.0617 21.4482 11.0307 21.4613 11.9997 21.4613C12.9687 21.4613 13.9378 21.4482 14.9198 21.4232L14.9211 21.4232C18.1583 21.3412 19.9419 21.2961 21.2867 19.9522C22.6287 18.5992 22.6657 16.8633 22.7327 13.7103C22.7537 12.7033 22.7537 11.7253 22.7327 10.7183C22.6657 7.56526 22.6287 5.82824 21.2837 4.47324C19.9407 3.13224 18.1568 3.0863 14.9188 3.0043C12.9538 2.9543 11.0437 2.9543 9.07874 3.0043L9.07739 3.00433C5.84024 3.08631 4.05656 3.13148 2.71175 4.47529C1.36975 5.82829 1.33275 7.56429 1.26575 10.7173C1.24475 11.7243 1.24475 12.7023 1.26575 13.7093C1.33275 16.8623 1.36977 18.5993 2.71477 19.9543C4.05777 21.2953 5.84171 21.3412 9.07972 21.4232ZM3.77679 18.8942C2.85579 17.9672 2.82677 16.6222 2.76477 13.6772C2.74377 12.6912 2.74377 11.7332 2.76477 10.7482C2.82677 7.80324 2.85576 6.4593 3.77376 5.5333C4.69268 4.61438 6.0785 4.57925 9.11598 4.50227C11.056 4.45227 12.9418 4.45225 14.8808 4.50225C17.9188 4.57925 19.3048 4.61525 20.2218 5.53125C21.1428 6.45825 21.1717 7.80324 21.2337 10.7482C21.2547 11.7342 21.2547 12.6922 21.2337 13.6772C21.1717 16.6222 21.1427 17.9663 20.2247 18.8923C19.3059 19.8111 17.9203 19.8462 14.8835 19.9232L14.8818 19.9232C12.9418 19.9732 11.0568 19.9732 9.1178 19.9232C6.0798 19.8462 4.69379 19.8102 3.77679 18.8942Z" fill="#0E4A79"/>
</svg>
