<svg width="1440" height="510" viewBox="0 0 1440 510" fill="none" xmlns="http://www.w3.org/2000/svg">
<path d="M0 482.354C114.409 476.172 207.013 492.182 245.561 493.669C256.025 494.073 267.4 494.105 275.784 488.369C287.381 480.434 314.231 467.161 320.729 455.33C329.766 438.874 349.353 429.379 360.404 413.984C371.711 398.232 367.561 399.054 373.889 381.127C380.22 363.198 390.083 352.654 404.453 333.529C407.324 333.155 410.195 332.78 413.066 332.406C412.161 330.213 414.25 325.762 416.327 324.386C418.404 323.009 421.012 322.526 423.529 322.075C426.251 321.588 429.322 321.165 431.589 322.623C435.715 325.274 433.734 333.175 428.962 334.666C424.189 336.158 417.622 334.962 412.982 333.155C415.155 329.435 417.328 326.034 419.501 322.317C415.921 321.932 412.34 321.227 408.759 320.842C406.862 320.637 404.819 320.372 403.451 319.156C401.175 317.136 401.903 313.717 402.739 310.921C408.289 292.367 407.741 266.889 407.98 247.656C408.234 227.101 414.56 177.611 413.576 131.851C405.983 126.446 398.895 120.45 392.416 113.947C390.056 111.579 387.665 108.914 387.366 105.723C387.188 103.812 387.788 101.919 388.399 100.085C391.283 91.421 394.523 82.8568 398.113 74.4173C401.64 74.1002 405.29 75.7597 407.991 79.4838C409.527 77.4224 410.421 74.9654 410.54 72.4745C410.577 71.7217 410.546 70.9519 410.799 70.2345C411.203 69.0861 412.26 68.2501 413.049 67.2833C413.839 66.3165 414.358 64.9248 413.594 63.9396C413.032 63.216 411.967 62.9835 410.996 62.9728C408.275 62.945 405.694 64.249 403.805 66.0379C401.917 67.8268 400.635 70.0698 399.434 72.6777L400.686 69.1261C391.517 51.5282 394.523 28.7622 409.353 14.7514C424.181 0.740475 450.347 -2.44627 467.757 8.81509C484.345 19.5422 490.316 40.3838 485.196 59.8815C482.433 58.5021 478.935 58.4297 476.107 59.6952C475.199 60.9576 476.198 62.6664 477.458 63.6455C478.719 64.6231 480.314 65.362 481.047 66.7168C482.277 68.9937 480.93 72.613 483.453 73.6768C486.72 73.4428 489.676 71.109 490.401 68.1901C491.126 65.2712 489.565 61.9998 486.729 60.4988C489.979 62.8019 490.677 66.9231 492.022 70.4747C494.19 76.1954 498.48 85.7849 501.698 91.0777C504.915 96.3704 507.064 102.832 504.538 108.428C503.199 111.396 487.89 125.49 476.621 129.645C473.868 126.498 471.636 122.971 470.023 119.223C469.703 118.477 469.401 117.677 469.567 116.89C469.798 115.796 470.853 115.032 471.836 114.375C476.496 111.254 481.209 108.198 485.97 105.209C488.119 103.859 491.078 102.525 493.129 103.997C489.617 102.702 487.944 99.023 487.34 95.6084C486.739 92.1923 486.808 88.5929 485.194 85.4632C484.217 83.568 482.664 81.9454 481.8 80.0041C480.935 78.0628 480.975 75.5134 482.545 74.8776C482.448 72.9209 482.351 70.9643 482.256 69.0076C480.579 75.3995 460.239 97.9392 427.379 87.7401C420.944 85.7433 414.261 83.431 410.361 78.2522C407.795 75.495 409.496 71.3091 411.291 68.0823C422.95 78.0751 440.418 82.0455 455.843 78.2091C458.43 77.5656 460.972 76.7127 463.277 75.458C468.405 72.6638 472.098 67.9653 474.092 62.8219C476.085 57.6785 477.175 48.6032 476.712 43.1642C476.181 36.9339 473.813 34.2213 470.44 28.7853C467.065 23.3509 461.897 18.7371 455.555 16.3986C451.49 14.9007 447.078 14.3619 442.701 14.1556C438.537 13.9601 434.311 14.0601 430.276 15.0192C422.208 16.9374 415.382 22.2841 411.23 28.8885C407.078 35.4929 405.457 43.2611 405.671 50.8755C405.751 53.7281 406.096 56.6301 407.364 59.2364C408.633 61.8428 410.943 64.1412 413.935 64.9633C415.822 63.3761 417.925 62.0029 420.179 60.8852C427.798 68.5596 444.706 71.6293 454.369 66.2088C464.033 60.7882 467.812 49.0758 463.769 39.397C462.646 36.7075 458.494 32.6094 456.2 30.6373C452.68 27.6123 447.888 25.9573 443.065 25.7033C434.051 25.2276 424.942 29.8122 420.564 37.0262C416.185 44.2418 416.756 53.7281 421.972 60.4619C425.128 58.1095 428.286 55.7572 431.442 53.4064C435.375 57.5845 442.972 58.3605 447.766 55.0151C452.56 51.6698 453.71 44.6913 450.137 40.2499C446.564 35.81 438.843 34.7585 434.06 38.1162C429.277 41.4738 428.437 48.6401 432.398 52.7967L436.965 48.517C438.714 50.4306 442.406 50.4875 444.133 48.5585C445.86 46.6295 444.96 43.235 442.415 42.339C439.869 41.443 436.65 43.5475 436.654 46.5095C410.788 37.465 384.921 28.4205 359.056 19.376C359.686 16.0368 360.314 12.6977 360.942 9.35853C370.858 9.66951 379.801 17.5471 380.503 26.59C373.324 22.9661 365.507 20.3997 357.445 19.0204C357.231 20.4582 357.508 21.9531 358.227 23.2478C359.297 22.458 359.729 21.0217 359.254 19.844C359.246 20.837 359.24 21.8299 359.232 22.8229C366.21 25.3969 373.187 27.9694 380.166 30.5434C372.465 34.9217 362.365 35.5498 354.087 32.163C355.426 28.9809 356.764 25.7987 358.104 22.6166C382.052 30.6112 406 38.6057 428.877 46.6403L426.049 35.7484C431.363 39.8727 436.679 43.9986 441.993 48.1228C436.51 51.5113 429.319 52.4811 422.996 50.6846C425.145 49.5438 427.028 47.9858 428.483 46.1431C432.544 46.9621 436.605 47.7811 440.668 48.6016C438.817 49.1466 436.851 49.3606 434.912 49.2282C431.106 58.7453 414.069 60.0062 411.793 69.922C411.091 72.981 411.27 77.2762 407.926 77.9366C407.092 85.2215 406.256 92.5063 405.421 99.7896C405.206 101.672 405.004 103.651 405.818 105.39C406.737 107.358 408.78 108.662 410.722 109.856C415.206 112.617 419.691 115.378 424.645 118.331C425.99 121.362 427.382 124.465 429.799 126.877C432.216 129.289 435.911 130.909 439.39 130.138C438.054 124.583 431.805 120.034 432.98 114.449C433.266 113.086 434.002 111.787 433.96 110.4C433.923 109.157 433.267 108.014 432.778 106.854C431.163 103.019 431.366 98.5781 433.328 94.8802C433.557 94.4476 433.842 93.9965 434.322 93.8041C435.557 93.3068 436.637 94.7924 437.94 95.1188C439.887 95.6053 441.448 93.4223 443.451 93.1821C444.884 93.0113 446.207 93.8672 447.628 94.1089C451.283 94.7324 455.692 91.4379 458.335 93.8257C457.691 96.7137 457.048 99.6003 456.404 102.488C455.361 107.176 453.846 112.46 449.214 114.687C444.213 117.092 437.115 113.788 436.305 108.679C438.265 111.684 440.857 114.439 444.222 116.107C446.592 115.429 449.032 114.963 451.5 114.715C452.79 117.657 448.95 121.201 445.719 120.051C446.259 125.074 444.326 130.001 443.133 134.93C441.939 139.858 441.624 145.454 444.908 149.512C444.076 140.197 443.928 130.83 444.469 121.496C441.285 121.059 438.237 119.829 435.549 117.063C436.337 122.326 437.623 127.527 439.385 132.588C431.964 130.273 425.952 124.489 423.804 117.598C423.63 117.041 423.479 116.458 423.599 115.888C423.72 115.32 424.095 114.829 424.423 114.333C426.261 111.551 426.718 108.215 427.134 104.988C427.824 99.6542 428.514 94.3183 429.203 88.984C434.13 89.9615 439.222 88.9085 444.222 88.3235C449.223 87.7401 454.711 87.7385 458.795 90.4388C459.793 91.0977 461.054 91.9429 462.111 91.3655C463.046 90.856 462.978 89.5028 462.259 88.7577C461.539 88.0125 460.426 87.72 459.374 87.4614C461.637 88.3497 462.022 91.0792 462.073 93.3299C462.151 96.8338 462.231 100.336 462.31 103.84C462.348 105.552 462.399 107.316 463.157 108.882C463.729 110.064 464.678 111.069 465.235 112.258C466.134 114.17 465.94 116.35 465.618 118.41C464.476 125.724 461.905 132.85 458.066 139.353C455.615 132.565 454.003 125.525 453.27 118.408C453.27 118.408 453.487 118.745 453.575 118.624C453.938 120.534 454.181 122.463 454.303 124.4C454.335 124.926 454.372 125.487 454.71 125.913C455.264 126.614 456.452 126.661 457.279 126.24C458.104 125.818 458.644 125.054 459.117 124.304C460.264 122.486 461.232 120.557 462.664 118.916C464.096 117.275 466.114 115.916 468.474 115.999C475.967 125.655 476.369 138.292 476.954 150.116C478.799 187.374 486.318 229.233 498.137 286.81C498.844 290.254 499.55 293.81 498.728 297.232C497.834 300.964 495.213 304.144 492.401 306.969C483.028 316.388 464.387 316.928 450.368 321.441C446.664 321.584 442.96 321.727 439.256 321.87C446.168 321.611 453.027 320.191 459.385 317.703C459.06 321.807 459.468 325.961 460.587 329.948C460.877 330.978 461.249 332.051 462.116 332.762C463.187 333.641 464.745 333.758 466.183 333.832C470.229 334.04 474.273 334.246 478.319 334.454C481.561 334.62 485.798 334.149 486.52 331.256C487.097 328.946 484.848 326.927 482.824 325.446L474.21 319.15C472.444 317.86 470.559 316.52 468.317 316.243C464.482 315.771 460.892 318.794 460.027 322.24C459.162 325.685 460.449 329.301 462.347 332.382C462.759 333.051 463.226 333.73 463.936 334.146C464.591 334.531 465.386 334.652 466.159 334.739C472.367 335.439 478.746 334.505 484.874 335.656C493.719 337.317 500.985 343.143 511.155 351.59C524.644 369.329 538.133 387.069 551.622 404.807C555.17 409.475 558.83 414.242 563.933 417.491C571.198 422.114 580.415 423.081 588.831 425.592C610.798 432.144 626.82 448.998 642.335 464.644C661.711 484.183 684.865 493.518 711.678 503.266C737.538 512.67 1283 528.141 1457.5 329.948" stroke="#0E4A79" stroke-width="3" stroke-linecap="round" stroke-linejoin="round"/>
</svg>
