<svg width="1440" height="502" viewBox="0 0 1440 502" fill="none" xmlns="http://www.w3.org/2000/svg">
<path d="M-21 358.298C290.5 547.724 817.489 476.677 891.378 472.917C891.02 459.971 890.661 447.025 890.303 434.08C937.171 430.701 983.855 424.756 1030.07 416.281C1031.04 408.588 1031.45 400.825 1031.3 393.074C986.878 394.572 942.562 399.161 899.491 405.534C886.689 329.022 910.837 253.618 964.734 197.832C968.857 193.566 974.587 189.102 980.124 191.232C987.4 194.031 986.536 204.513 984.202 211.952C976.699 235.856 971.769 260.644 961.126 285.467C960.363 286.943 959.125 288.17 957.642 288.92C964.512 284.572 971.628 280.612 978.945 277.067C981.071 276.037 983.257 275.013 984.954 273.368C986.169 272.19 987.082 270.741 988.151 269.428C993.541 262.81 1009.93 257.641 1011.29 263.035C1013.22 270.701 1000.96 274.523 993.208 276.079C990.275 276.668 985.957 276.035 986.093 273.047C986.167 271.427 987.691 270.31 989.066 269.45C992.49 267.307 995.98 265.186 999.82 263.931C1007.22 261.511 1015.23 262.498 1023.02 262.509C1030.81 262.521 1053.73 262.486 1061.73 252.936C1058.11 226.196 1064.46 198.665 1059.34 172.173C1056.42 157.115 1057.66 141.902 1057.66 124.355C1057.66 71.2337 1061.5 74.3811 1085.17 78.2973C1087.45 78.6742 1089.92 77.6731 1091.57 76.0501C1092.99 74.6487 1093.55 72.6183 1094.01 70.6762C1096.77 58.8692 1092.82 46.0724 1090.09 33.7573C1086.98 34.0595 1083.87 34.3618 1080.76 34.664C1081.46 44.9042 1082.59 55.4846 1082.15 65.7394C1082.12 66.3324 1082.15 67.0221 1082.62 67.3795C1083.54 68.0714 1084.72 66.4576 1084.17 65.4464C1083.63 64.4351 1082.13 64.5413 1081.27 63.7715C1075.2 58.2857 1064.48 51.4207 1054.39 47.6757C1055.99 43.5423 1055.17 42.6467 1056.15 38.3244C1058.03 30.0859 1051.72 21.6424 1053.49 13.381C1054.38 13.7522 1055.13 12.3166 1054.59 11.5118C1054.06 10.7071 1052.98 10.5114 1052.02 10.4046C1042.89 9.38856 1033.58 9.98379 1024.65 12.1546C1022.03 12.7905 1019.5 17.3012 1021.55 15.5635C1023.39 14.0129 1041.3 11.5474 1052.83 12.6603C1052.29 7.30686 1046.84 3.75873 1041.59 2.57995C1037.78 1.72382 1033.67 1.70862 1030.09 3.2638C1026.51 4.81898 1023.56 8.13007 1022.81 12.175C1021.98 17.8333 1021.01 23.4714 1019.9 29.083C1019.57 30.7463 1019.22 32.4495 1018.31 33.8803C1017.41 35.2878 1016.06 36.3215 1014.81 37.4309C1010.99 40.8323 1008.05 45.2046 1006.33 50.0203C1006.11 50.6302 1005.91 51.3098 1006.16 51.9107C1006.4 52.5115 1007.29 52.8533 1008.12 52.605C1011.33 52.7551 1014.53 52.9053 1017.73 53.0554C1018.44 53.0887 1019.17 53.1197 1019.85 52.9033C1021.37 52.4181 1022.23 50.8576 1022.93 49.4225C1026.86 41.2999 1030.22 32.8976 1032.97 24.3002C1033.34 23.1365 1033.7 21.853 1033.23 20.7238C1032.66 19.3423 1031.02 18.6229 1030.48 17.2304C1029.91 15.7651 1030.82 14.0515 1032.15 13.217C1033.48 12.3825 1035.12 12.2244 1036.69 12.1409C1039.82 11.9748 1042.95 12.0187 1046.08 12.0627C1047.65 12.0848 1049.49 12.2548 1050.31 13.596C1050.74 14.3019 1050.76 15.1738 1050.77 16.0004C1050.78 21.4184 1050.31 26.8375 1049.38 32.1737C1049.2 33.1791 1049 34.2015 1048.5 35.0935C1047.86 36.2471 1046.77 37.095 1045.58 37.67C1042 39.4034 1037.37 38.6605 1034.51 35.8934C1037.4 38.0846 1041.25 38.9398 1044.79 38.1719C1044.96 40.0591 1045.12 41.9462 1044.96 44.0076C1043.11 44.2888 1041.08 44.6643 1039.89 46.11C1038.55 47.7306 1038.75 50.073 1038.9 52.169C1039.24 57.1746 1038.88 62.2295 1037.81 67.1329C1036.69 72.322 1034.77 77.5598 1035.64 82.7976C1036.32 81.9114 1036.45 80.73 1036.54 79.616C1037.19 72.1942 1037.83 64.7725 1038.47 57.3508C1038.81 53.3936 1039.16 49.4168 1038.87 45.4549C1033.78 45.3426 1028.7 44.5369 1023.82 43.0668C1023.37 44.3845 1022.93 45.7024 1021.93 48.0468C1018.01 52.0615 1012.24 53.5541 1007.45 56.4938C1002.89 59.2992 999.283 63.3904 995.751 67.419C990.763 73.1076 985.747 78.8355 981.858 85.3251C978.93 90.2103 976.68 95.4637 974.268 100.623C970.806 108.026 969.616 116.314 965.47 123.357C968.734 123.433 975.657 126.583 975.683 127.832C975.708 129.081 975.013 130.217 974.342 131.271C973.155 133.136 972.539 138.852 970.794 137.495C968.828 135.966 972.65 127.586 974.619 129.11C978.546 132.15 960.848 145.395 961.129 137.635C961.295 133.061 961.238 130.381 963.138 127.261C964.314 125.33 965.978 123.346 968.233 123.202C971.236 123.01 974.199 126.176 976.87 124.791C977.873 124.271 978.475 123.228 979.021 122.239C983.023 114.987 986.894 107.663 991.526 98.43C997.764 90.5337 1004 82.6373 1010.24 74.741C1009.97 74.2808 1009.37 74.0403 1008.86 74.1847C1005.46 85.8729 1002.95 97.8199 1000.58 112.717C994.377 145.021 997.382 178.357 994.196 211.096C992.672 226.755 989.733 242.246 988.054 257.888C987.948 258.875 987.86 259.932 988.334 260.803C988.911 261.864 990.155 262.354 991.322 262.665C998.73 264.639 1006.63 262.657 1013.72 259.746C1020.82 256.835 1027.56 252.983 1034.96 250.983C1040.06 249.604 1045.95 248.8 1049.06 244.53C1050.5 242.56 1051.1 240.119 1051.63 237.739C1055.42 220.646 1061.49 202.707 1057.67 183.172C1054.06 164.705 1042.74 147.115 1047.01 128.789C1048.25 123.485 1050.43 118.449 1051.99 113.231C1054.37 105.258 1055.31 96.9343 1056.23 88.6633C1057.06 81.2817 1057.84 73.5654 1055.18 66.6306C1052.53 59.719 1046.57 53.9036 1046.27 46.5071C1047.51 48.6802 1049.07 50.6749 1050.88 52.412C1051.85 51.2475 1052.82 50.0832 1053.66 48.3399C1055.69 41.6048 1057.65 34.5361 1056.33 27.6272C1055.81 24.88 1054.2 21.7802 1051.41 21.615C1050.51 21.5618 1049.62 21.8383 1048.72 21.8768C1047.82 21.9154 1046.8 21.6234 1046.4 20.8128C1045.98 19.9361 1046.52 18.8363 1047.34 18.3114C1048.16 17.7864 1049.18 17.6903 1050.15 17.6084C1052.21 17.4342 1054.28 17.2598 1056.7 16.7355C1058.76 16.4299 1060.81 16.1242 1062.87 15.8185C1062.65 17.96 1062.96 20.1533 1063.75 22.1528C1064.2 23.2677 1064.85 24.3781 1065.9 24.9485C1066.84 25.4542 1067.96 25.4636 1069.02 25.4454C1072.15 25.3917 1075.29 25.2037 1078.11 25.1259C1077.52 22.419 1077.29 19.6379 1077.4 16.8713C1078.33 16.5105 1079.35 17.3143 1079.74 18.2338C1080.14 19.1532 1080.15 20.1938 1080.49 21.135C1081.1 22.8119 1082.64 23.9561 1084.16 24.8752C1085.69 25.7944 1087.34 26.634 1088.43 28.0434C1089.52 29.453 1089.85 31.6575 1088.61 32.9438C1087.2 34.4123 1084.6 33.9829 1083.08 35.3346C1082.88 35.5173 1082.68 35.7392 1082.41 35.7841C1081.89 35.8694 1081.53 35.2969 1081.33 34.8152C1078.71 28.6103 1076.04 22.054 1076.82 15.3639C1076.87 14.9384 1076.92 14.4615 1076.65 14.1248C1076.37 13.7654 1075.85 13.7202 1075.39 13.7134C1072.4 13.6689 1069.39 14.0097 1066.48 14.7246C1076.91 13.2435 1087.34 11.7625 1099.9 8.98974C1108.47 8.04761 1117.03 7.10535 1125.6 6.16322C1124.37 9.13487 1123.57 12.2882 1123.24 15.4903C1122.89 18.9124 1123.6 23.1595 1126.82 24.3587C1129.06 25.19 1131.61 24.086 1133.32 22.4241C1136.63 19.2003 1137.58 13.7905 1135.56 9.63072C1134.1 6.63992 1130.38 4.28892 1127.47 5.91215C1124.85 7.37792 1124.54 10.9641 1124.59 13.9671C1124.64 16.7036 1125.18 20.0904 1127.78 20.9384C1129.28 21.4271 1130.98 20.7732 1132.08 19.6455C1133.18 18.5179 1133.79 16.994 1134.2 15.4719C1134.71 13.6074 1134.97 11.595 1134.36 9.76104C1133.76 7.92712 1132.08 6.34309 1130.15 6.35424C1127.23 6.37089 1125.49 9.66782 1125.03 12.5519C1124.4 16.5298 1124.93 20.6857 1126.53 24.3795C1114.07 22.5497 1101.33 25.9118 1090.28 25.1432C1087.97 38.7837 1094.46 52.6753 1092.71 66.399C1092.33 69.357 1091.33 72.5931 1088.71 74.0192C1087.2 74.8424 1085.4 74.9087 1083.86 74.4508C1074.37 78.7644 1062.28 76.7934 1054.19 83.3677C1051.33 85.6846 1049.31 88.8426 1047.34 91.9432C1043.19 98.454 1039.05 104.966 1035.08 111.582C1030.45 119.293 1026.04 127.173 1022.71 135.529C1020.9 140.078 1019.41 144.794 1018.87 149.66C1017.32 163.587 1025.85 176.124 1038.51 187.182C1050.95 198.051 1055.92 215.69 1057.49 232.135C1058.08 238.409 1057.96 244.81 1059.62 250.891C1059.97 252.169 1060.46 253.519 1061.56 254.265C1062.66 255.016 1064.09 254.973 1065.42 255.132C1069.23 255.591 1072.74 258.076 1074.44 261.52C1074.76 262.171 1075.03 262.909 1074.84 263.611C1074.52 264.842 1073.07 265.332 1071.82 265.576C1062.43 267.409 1052.52 266.469 1045.69 263.442C1044.62 262.159 1063.21 240.941 1062.14 239.657C1073.05 233.572 1078.23 234.186 1102.79 214.943C1124.12 198.233 1134.99 201.658 1132.63 206.311C1118 221.43 1116.85 225.145 1100.45 238.32C1096.47 241.514 1079.38 254.175 1076.44 250.01C1074.33 247.027 1105.3 233.43 1108.01 230.987C1123.78 216.783 1112.31 220.085 1130.85 209.737C1135.76 206.992 1155.76 193.822 1161.23 195.148C1166.64 196.459 1170.66 202.045 1169.24 207.45C1150.84 222.549 1108.51 252.476 1086.11 254.291C1083.11 254.534 1114.72 243.994 1129.13 236.595C1141.35 230.315 1164.07 212.231 1176.67 206.753C1182.8 204.09 1189.17 201.584 1195.85 201.381C1200.52 201.239 1205.75 202.626 1208.09 206.674C1210.19 210.318 1209.24 215.105 1206.85 218.571C1204.47 222.037 1200.89 224.468 1194.56 227.314C1170.24 242.441 1080.47 275.144 1106.97 264.27C1124.07 257.254 1132.39 256.397 1140.52 253.771C1158.87 247.839 1177.34 240.548 1194.35 231.444C1204.02 226.269 1214.53 219.878 1225.17 222.552C1226.54 222.899 1227.94 223.428 1228.91 224.462C1230.64 226.297 1230.58 229.205 1229.83 231.611C1227.99 237.449 1222.99 241.633 1218.22 245.473C1199.83 260.305 1181.2 275.284 1159.79 285.289C1146.59 291.457 1132.57 295.622 1118.82 300.452C1097.64 307.897 1076.97 316.994 1057.83 328.749C1052.06 332.299 1046.34 336.165 1042.01 341.388C1037.92 346.329 1035.24 352.283 1033.01 358.298C1029.85 366.777 1027.47 375.543 1026.73 384.294C1024.58 394.046 1011.67 395.83 1001.68 395.811C965.601 395.742 929.512 400.093 894.48 408.734C895.379 417.608 896.278 426.481 897.177 435.355C940.116 428.992 983.055 422.629 1025.99 416.266C1028.41 415.909 1031.13 415.627 1033.05 417.139C1035.09 418.753 1035.34 421.707 1035.43 424.311C1035.88 438.606 1036.34 452.901 1036.8 467.195C1036.89 469.822 1036.87 472.731 1035.13 474.694C1033.38 476.658 1029.29 476.323 1028.93 473.72C1041.75 472.783 1610.5 560 1621 424.311" stroke="#0E4A79" stroke-width="3" stroke-miterlimit="10" stroke-linecap="round" stroke-linejoin="round"/>
</svg>
