<svg width="46" height="62" viewBox="0 0 46 62" fill="none" xmlns="http://www.w3.org/2000/svg">
<path d="M33.125 3.77344C27.9484 1.05582 21.908 0.510765 16.331 2.25802C10.754 4.00528 6.0967 7.90192 3.38237 13.0917C-2.26333 23.903 2.74081 61.9998 2.74081 61.9998C2.74081 61.9998 36.769 44.4959 42.4147 33.6846C43.7682 31.1099 44.6017 28.2926 44.8672 25.3941C45.1327 22.4956 44.8251 19.573 43.962 16.794C43.0989 14.0151 41.6973 11.4344 39.8377 9.19997C37.978 6.96558 35.6968 5.12147 33.125 3.77344ZM15.5976 37.2369C12.8438 35.7856 10.5807 33.548 9.09455 30.8069C7.60836 28.0657 6.96574 24.9441 7.24794 21.8366C7.53014 18.7292 8.72449 15.7754 10.68 13.3488C12.6355 10.9221 15.2644 9.13145 18.2343 8.2032C21.2042 7.27495 24.3818 7.25077 27.3654 8.13372C30.349 9.01667 33.0047 10.7671 34.9967 13.1637C36.9887 15.5604 38.2275 18.4956 38.5567 21.5984C38.8859 24.7012 38.2905 27.8322 36.846 30.5957C35.9021 32.4474 34.6021 34.0934 33.0209 35.4387C31.4397 36.7839 29.6085 37.8018 27.6331 38.4335C25.6577 39.0653 23.5772 39.2985 21.5115 39.1196C19.4458 38.9407 17.4358 38.3533 15.5976 37.3913V37.2369Z" fill="#148035"/>
<path d="M1.12649 23.0796C1.12649 23.0796 -2.05564 40.4291 16.6778 54.1491L25.403 48.7692L1.12649 23.0796Z" fill="#1D4C23"/>
<path d="M3.38349 33.3759C9.08052 44.2644 43.391 61.9486 43.391 61.9486C43.391 61.9486 48.5235 23.5943 42.7751 12.6801C41.4888 9.98014 39.6737 7.5676 37.4381 5.58629C35.2025 3.60498 32.592 2.09545 29.7624 1.14767C26.9327 0.199893 23.9418 -0.166727 20.9679 0.0696707C17.994 0.306068 15.098 1.14064 12.4525 2.52364C9.80695 3.90664 7.46613 5.80975 5.5695 8.11954C3.67288 10.4293 2.25929 13.0985 1.41299 15.968C0.566693 18.8374 0.305023 21.8484 0.643563 24.8215C0.982103 27.7946 1.91392 30.6688 3.38349 33.273V33.3759ZM16.2146 26.5803C15.4922 25.2272 15.1881 23.689 15.3412 22.1618C15.4943 20.6346 16.0977 19.1878 17.0742 18.0062C18.0507 16.8245 19.3561 15.9615 20.8238 15.5274C22.2915 15.0933 23.8549 15.1077 25.3143 15.5689C26.7738 16.03 28.0632 16.9169 29.0179 18.1164C29.9725 19.3159 30.5492 20.7736 30.6742 22.3034C30.7993 23.8331 30.467 25.3655 29.7199 26.705C28.9728 28.0444 27.8446 29.1302 26.4795 29.8236C24.6905 30.7192 22.6243 30.8816 20.7181 30.2762C18.8119 29.6709 17.2152 28.3454 16.266 26.5803H16.2146Z" fill="#D29439"/>
</svg>
