<svg width="18" height="18" viewBox="0 0 18 18" fill="none" xmlns="http://www.w3.org/2000/svg">
<path d="M10.6874 1.89219L12.0918 4.58594C12.1962 4.78423 12.3462 4.95496 12.5293 5.08413C12.7125 5.2133 12.9237 5.29723 13.1455 5.32906L16.1118 5.73531C17.698 5.95406 18.313 7.90969 17.1399 8.99719L15.1087 10.8716C14.9357 11.0308 14.8059 11.2313 14.7313 11.4542C14.6567 11.6771 14.6396 11.9153 14.6818 12.1466L15.1774 14.8953C15.453 16.4266 13.8599 17.6203 12.4618 16.9203L9.62677 15.5141C9.43163 15.4185 9.2172 15.3688 8.9999 15.3688C8.7826 15.3688 8.56817 15.4185 8.37302 15.5141L5.53802 16.9203C4.13928 17.6141 2.54678 16.4266 2.8224 14.8953L3.31803 12.1459C3.40553 11.6772 3.24303 11.1959 2.89178 10.8709L0.8599 8.99719C-0.313225 7.91594 0.301775 5.95344 1.88802 5.73469L4.85427 5.32844C5.07678 5.2986 5.28879 5.21544 5.47225 5.08606C5.65572 4.95668 5.80522 4.78489 5.90803 4.58531L7.31302 1.89219C8.02802 0.535937 9.97802 0.535937 10.6868 1.89219" fill="#FCD53F"/>
</svg>
