<svg width="137" height="137" viewBox="0 0 137 137" fill="none" xmlns="http://www.w3.org/2000/svg">
<g clip-path="url(#clip0_310_1722)">
<path d="M51.904 48.6567L51.8738 48.6694C51.8738 48.6694 51.8839 48.6643 51.8889 48.6643C51.8939 48.6643 51.899 48.6593 51.904 48.6567Z" fill="#0E4A79"/>
<path d="M17.6857 132C17.6832 131.977 17.6808 131.955 17.6783 131.935C17.6733 131.905 17.6708 131.874 17.6659 131.844C17.6733 131.895 17.6808 131.947 17.6857 132Z" fill="#0E4A79"/>
<path d="M88.3043 89.94C88.3043 89.94 88.3043 89.94 88.3048 89.9406C88.3048 89.94 88.3037 89.9395 88.3032 89.9385C88.3032 89.9385 88.3037 89.939 88.3043 89.9395V89.94Z" fill="#0E4A79"/>
<path d="M29.7179 59.7237C29.7179 59.7237 29.7179 59.7107 29.7179 59.7055C29.7179 59.6977 29.7179 59.6899 29.7205 59.6821C29.7205 59.6951 29.7179 59.7081 29.7153 59.7211L29.7179 59.7237Z" fill="#0E4A79"/>
<path d="M165.965 113.373C152.481 113.772 138.997 114.169 131.147 113.512C123.297 112.854 121.082 111.142 117.845 101.895C114.607 92.6482 110.349 75.8659 106.663 61.2257C102.979 46.5842 99.8698 34.0834 97.8677 27.7481C95.8656 21.4114 94.9711 21.2402 92.6928 21.5827C90.4144 21.9252 86.7511 22.7815 85.0046 23.595C83.2581 24.4085 83.4285 25.1792 83.3407 24.7212C83.2529 24.2632 82.907 22.5752 81.9053 21.9979C80.9049 21.4192 79.2488 21.9512 76.8401 22.7166C74.4327 23.4821 71.2727 24.4824 70.1213 24.5616C68.9699 24.6407 69.827 23.8 69.7896 21.5723C69.7521 19.3459 68.8202 15.7339 66.7613 13.3868C64.7011 11.0398 61.5141 9.9577 58.1489 9.94732C54.7837 9.93824 51.2416 11.0008 48.8433 13.1714C46.4449 15.342 45.1915 18.6206 45.1089 21.4659C45.0263 24.3112 46.1145 26.7244 47.0219 28.1529C47.9294 29.58 48.6574 30.0238 47.3976 30.6699C46.1377 31.316 42.89 32.1658 40.5846 32.7393C38.2791 33.3141 36.916 33.6138 36.1493 33.977C35.3825 34.3403 35.2121 34.7685 35.5103 36.5667C35.8085 38.365 36.5752 41.5333 37.4272 43.5015C38.2791 45.471 39.2163 46.2417 41.8573 46.0276C44.4984 45.8135 48.842 44.6147 55.8706 42.6452C62.8991 40.6757 72.61 37.9355 78.1464 36.3513C83.6828 34.7672 85.0459 34.339 85.3234 33.1194C85.5996 31.8999 84.7903 29.8875 84.9181 28.5603C85.0459 27.233 86.1108 26.5908 87.0906 26.3987C88.0703 26.2054 88.9648 26.4623 93.2233 39.9478C97.483 53.4333 105.107 80.1474 108.578 93.5888C112.049 107.031 111.367 107.203 105.831 108.744C100.293 110.285 89.902 113.197 80.5693 115.628C71.2366 118.061 62.9662 120.015 58.4161 121.155C53.8659 122.296 53.0385 122.624 51.8509 120.149C50.6634 117.673 49.1144 112.395 45.784 100.295C42.4537 88.1954 37.3433 69.2723 34.4686 58.3908C31.5952 47.5092 30.9576 44.6679 31.5978 43.2602C32.2368 41.8524 34.1524 41.8784 34.9139 41.3348C35.6755 40.7911 35.2844 39.6767 34.9966 38.7166C34.7087 37.7565 34.5228 36.9508 33.0151 37.0312C31.5075 37.1116 28.6754 38.0795 26.8334 38.7775C24.9913 39.4756 24.1394 39.9037 27.888 54.9734C31.6365 70.043 39.9843 99.7529 44.1589 114.608C46.9419 124.512 52.1525 128.322 59.7908 126.039C71.2482 122.614 94.163 115.764 117.078 108.914C117.188 108.313 117.299 107.714 113.763 95.4701C110.227 83.2262 103.048 59.3392 98.69 47.4379C94.3334 35.5366 92.7999 35.6222 82.7043 38.1055C72.61 40.5887 53.955 45.4684 44.6261 48.1657C35.2986 50.8631 35.2986 51.3769 35.682 52.5329C36.0654 53.6889 36.8321 55.4871 42.1348 55.347C47.4376 55.2082 57.2763 53.131 61.5141 51.9439C65.7519 50.7554 64.3887 50.457 59.3842 51.2381C54.3796 52.0191 45.7337 53.8809 41.5811 55.7116C37.4285 57.5423 37.7693 59.3392 38.4082 60.8806C39.0472 62.4219 39.9843 63.7064 45.0947 63.0641C50.2064 62.4219 59.4913 59.853 63.3457 58.5802C67.2002 57.3061 65.6241 57.3282 60.5989 58.3986C55.5724 59.469 47.0968 61.5877 43.2153 63.8763C39.3325 66.165 40.045 68.6223 42.0587 69.6979C44.0737 70.7735 47.3898 70.4647 52.3285 69.284C57.2659 68.1021 63.8259 66.0482 66.3689 65.0155C68.9118 63.9827 67.439 63.9736 62.7416 65.0388C58.0443 66.104 50.1225 68.2448 46.1351 70.187C42.149 72.1293 42.0987 73.8717 42.7596 75.4767C43.4192 77.0816 44.7901 78.5503 48.2443 78.2571C51.6973 77.9638 57.235 75.9087 58.4238 75.2055C59.6127 74.5023 56.454 75.1484 53.4503 75.8555C50.4478 76.5613 47.6015 77.3268 46.3584 79.4118C45.1167 81.4967 45.4781 84.8999 48.2043 85.9703C50.9306 87.0407 56.0203 85.7783 61.1204 84.4186C66.2217 83.0588 71.3321 81.6044 71.8988 81.2139C72.4642 80.8234 68.4858 81.4993 63.631 82.4841C58.7749 83.4688 53.0436 84.7624 50.3471 86.6943C47.6518 88.6261 47.9926 91.1937 49.2163 92.6287C50.4413 94.0624 52.5493 94.3621 57.1807 93.3566C61.8122 92.3497 68.9673 90.039 71.9853 88.8389C75.0019 87.6388 73.8815 87.5519 69.1893 88.6638C64.4972 89.7756 56.2346 92.0877 52.6215 94.3465C49.0085 96.6066 50.0438 98.8123 54.9063 98.846C59.7689 98.8784 68.4574 96.739 72.6849 95.4013C76.9124 94.0637 76.6787 93.5278 72.6423 94.2881C68.6072 95.0484 60.7693 97.1035 56.6812 98.8161C52.5919 100.529 52.2511 101.899 52.3789 103.483C52.5067 105.067 53.103 106.865 57.7035 106.48C62.3041 106.095 70.9074 103.526 70.95 103.14C70.9926 102.755 62.4744 104.553 58.2199 106.5C53.9653 108.446 53.9756 110.541 54.2325 111.953C54.4881 113.366 54.9889 114.096 58.2638 113.82C61.5386 113.543 67.5861 112.259 69.6566 111.534C71.7271 110.808 69.818 110.642 66.9213 110.985C64.0247 111.327 60.1406 112.178 58.0417 113.5C55.9428 114.823 55.6292 116.617 63.5949 115.161C71.5593 113.705 87.8031 109.001 95.7107 106.135C103.62 103.269 103.194 102.241 102.257 99.2443C101.319 96.2472 99.8711 91.282 98.4653 89.0984C97.0596 86.9148 95.6965 87.5142 93.2259 88.1136C90.7552 88.7131 87.1783 89.3125 85.6448 90.2544C84.1113 91.1963 84.6225 92.4808 85.1337 94.7928C85.6448 97.1048 86.156 100.443 87.7321 101.77C89.3082 103.098 91.9492 102.413 94.376 101.728C96.804 101.043 99.0191 100.357 99.9976 99.7153C100.977 99.073 100.722 98.4736 99.8698 96.761C99.0178 95.0484 97.5695 92.2239 97.8677 88.7987C98.1659 85.3735 100.211 81.3501 100.679 80.1941C101.148 79.0381 100.04 80.7507 98.9752 83.1912C97.9103 85.6317 96.8879 88.7987 96.2064 91.3676C95.5248 93.9365 95.1841 95.906 94.6729 96.9751C94.1617 98.0455 93.4802 98.2167 92.7134 97.6173C91.9467 97.0179 91.0947 95.6478 90.0724 94.2349C89.05 92.822 87.8573 91.3663 87.0054 90.8097C86.1534 90.2531 85.6422 90.5956 84.8755 89.354C84.1087 88.1123 83.0864 85.2865 83.0864 83.7465C83.0864 82.2064 84.1087 81.9483 86.2812 81.6278C88.4537 81.3073 91.7763 80.922 93.4789 80.2369C95.1828 79.5519 95.268 78.5671 94.8743 76.0203C94.4805 73.4734 93.6067 69.3632 92.1583 67.4793C90.71 65.5954 88.6873 65.938 86.1844 66.5374C83.6828 67.1368 80.7009 67.9931 79.5934 69.7057C78.4859 71.4183 79.2526 73.9872 79.9768 76.2992C80.701 78.6113 81.3825 80.6664 82.1338 81.5045C82.885 82.3427 83.706 81.9638 84.6431 80.765C85.5803 79.5662 86.6323 77.5474 87.5849 76.5808C88.5376 75.6142 89.3895 75.6998 90.9114 76.5937C92.4333 77.4877 94.6251 79.1912 93.9862 79.1484C93.3472 79.1056 89.8775 77.3164 86.6323 75.5584C83.3872 73.8004 80.3653 72.0722 80.2943 71.7011C80.2233 71.3314 83.1019 72.3187 85.0807 73.4397C87.0596 74.5607 88.14 75.8153 89.4412 74.5931C90.7423 73.3709 92.2668 69.6745 92.2668 68.9467C92.2668 68.2188 90.7436 70.4608 89.8542 72.3096C88.9648 74.1585 88.7093 75.6142 86.9628 75.1432C85.2163 74.6723 81.9789 72.2746 79.9781 69.7057C77.976 67.1368 77.2093 64.3979 78.0186 62.8137C78.828 61.2296 81.2134 60.8014 83.2581 60.2448C85.3028 59.6882 87.0054 59.0032 87.7721 57.2049C88.5389 55.4067 88.3685 52.4953 87.8147 50.3986C87.2609 48.3007 86.3238 47.0162 86.4413 44.5122C86.5587 42.0081 87.7295 38.2832 87.6443 37.9407C87.5591 37.5982 86.218 40.638 85.5041 44.2981C84.7903 47.9582 84.7051 52.2397 84.0661 54.3791C83.4272 56.5199 82.2345 56.5199 80.8287 55.3639C79.423 54.2079 77.8043 51.8959 76.4838 50.4401C75.1633 48.9844 74.141 48.385 73.5872 48.7703C73.0334 49.1557 72.9482 50.5258 73.3742 52.7093C73.8002 54.8929 74.7373 57.8887 75.8874 59.43C77.0376 60.9714 78.4007 61.057 80.7861 60.6289C83.1716 60.2007 86.5794 59.2588 88.0264 57.3321C89.4747 55.4054 88.9635 52.4953 88.4098 50.0976C87.856 47.7 87.2596 45.8161 85.4822 45.5813C83.7034 45.3451 80.7435 46.758 76.8246 47.1434C72.9056 47.5287 68.0289 46.8865 62.7791 47.1654C57.5293 47.4431 51.9077 48.6419 46.1571 50.3973C40.4064 52.1527 34.5293 54.4648 30.5251 57.7615C26.521 61.0583 24.3924 65.3385 21.2402 70.1767C18.088 75.0148 13.9147 80.4082 9.22903 84.2616C4.54332 88.1149 -0.652266 90.4257 -7.10383 91.2391C-13.5554 92.0526 -21.2616 91.3676 -28.9679 90.6826" stroke="#0E4A79" stroke-width="0.68" stroke-linecap="round"/>
</g>
<defs>
<clipPath id="clip0_310_1722">
<rect width="136" height="136" fill="white" transform="translate(0.5 0.879883)"/>
</clipPath>
</defs>
</svg>
