<svg width="137" height="137" viewBox="0 0 137 137" fill="none" xmlns="http://www.w3.org/2000/svg">
<g clip-path="url(#clip0_310_1744)">
<path d="M51.9043 48.6553L51.874 48.6679C51.874 48.6679 51.8841 48.6629 51.8891 48.6629C51.8942 48.6629 51.8992 48.6578 51.9043 48.6553Z" fill="#0E4A79"/>
<path d="M17.6854 132.001C17.6829 131.978 17.6804 131.955 17.6779 131.935C17.673 131.905 17.6705 131.875 17.6655 131.845C17.673 131.895 17.6804 131.948 17.6854 132.001Z" fill="#0E4A79"/>
<path d="M88.3047 89.9405C88.3047 89.9405 88.3047 89.9405 88.3053 89.9411C88.3053 89.9405 88.3042 89.94 88.3037 89.939C88.3037 89.939 88.3042 89.9395 88.3047 89.94V89.9405Z" fill="#0E4A79"/>
<path d="M29.7135 59.7242C29.7135 59.7242 29.7135 59.7112 29.7135 59.706C29.7135 59.6982 29.7135 59.6904 29.7161 59.6826C29.7161 59.6956 29.7135 59.7086 29.7109 59.7216L29.7135 59.7242Z" fill="#0E4A79"/>
<path d="M78.4319 117.612C73.9642 117.612 69.6439 116.045 65.8919 113.058C62.3326 110.223 59.4252 106.276 57.4844 101.644C55.9385 97.9534 55.063 93.8111 54.954 89.6654C54.8519 85.7801 55.4284 80.5298 58.7588 77.5783C59.9037 76.5639 61.2734 76.2187 62.615 76.6056C64.0944 77.0328 65.3099 78.3254 65.7877 79.9789C66.3403 81.8915 66.2518 83.8662 66.1654 85.776C66.1332 86.4869 66.1003 87.2217 66.1024 87.9354C66.1113 91.3866 66.5562 94.3347 67.4632 96.9479C69.0399 101.491 72.1098 104.993 75.8851 106.556C80.1348 108.317 84.7382 107.197 89.9573 103.133C93.0491 100.726 95.3511 97.4626 97.3893 93.8501C95.3011 90.418 93.9423 86.4589 93.5132 82.3228C93.4604 81.8122 93.4488 81.318 93.4666 80.8368C93.2726 80.9701 93.0731 81.0979 92.8681 81.2209C90.6079 82.5798 87.8808 83.2715 84.9713 83.2715C83.0641 83.2715 81.0788 82.9749 79.0941 82.3734C76.5713 81.6092 74.2254 80.3993 72.3107 78.8729C70.1622 77.1607 68.6108 75.1244 67.7011 72.8208C66.7804 70.49 66.4561 67.8583 66.7386 64.9977C66.9792 62.5609 67.6503 60.003 68.7328 57.3974C70.3048 53.6146 72.4992 49.9338 75.0803 46.7539C77.8807 43.3034 81.0171 40.5412 84.4016 38.5452C87.2103 36.889 90.4735 35.9061 93.5893 35.7769C97.0239 35.6347 100.125 36.5151 102.558 38.3231C105.375 40.4161 107.445 43.894 108.387 48.1162C109.772 54.3303 109.407 62.3038 107.385 69.993C105.22 78.2249 103.087 84.2278 100.469 89.4576C99.7249 90.9457 98.9729 92.4132 98.1838 93.8323C99.3547 95.6922 100.748 97.386 102.329 98.8522C102.78 98.0921 103.227 97.3074 103.671 96.5002C111.797 81.6932 115.501 66.7161 114.681 51.9864C114.301 45.1722 113.002 39.7059 110.708 35.2745C107.934 29.9155 101.849 24.2332 94.957 24.2332C94.8507 24.2332 94.7451 24.2346 94.6382 24.2373C87.8417 24.4109 81.6163 27.6605 78.5101 29.5819C71.124 34.1514 66.3821 41.6964 63.0757 47.7587C62.2256 49.3172 61.4194 50.9092 60.6783 52.4895C57.6092 59.0358 55.4771 65.766 54.3405 72.4914C53.7536 75.9651 53.5686 79.3562 53.3718 82.9462L53.3691 82.9968C53.3307 83.6988 53.1421 85.3748 52.2228 85.7767C51.7834 85.9688 51.2884 85.8423 50.7516 85.4008C49.6692 84.5108 49.3024 82.9072 49.0666 81.3077C48.2384 75.6828 48.6175 69.8009 50.1621 64.2977C51.6531 58.9859 53.7516 53.8088 56.2319 49.3247L56.3491 49.1121C57.7264 46.6206 59.2881 43.7976 61.2521 41.6567C62.0508 40.7866 62.8392 39.8987 63.6015 39.0401C64.5366 37.9875 65.4909 36.9123 66.4801 35.8528C66.3862 35.9116 66.293 35.9703 66.2004 36.0291C64.5517 37.0674 62.8467 38.1406 61.0972 39.0169C58.2035 40.466 54.9938 41.6998 51.5579 42.6841C49.1132 43.3841 46.5774 43.7497 44.1259 44.1038C41.5167 44.4805 38.8184 44.8694 36.2757 45.663C33.6603 46.4784 31.3857 48.1812 29.8693 50.4567C26.639 55.3037 27.6364 61.5451 32.1891 64.9745C34.0723 66.3935 36.3244 67.3252 38.5016 68.2267L38.9212 68.4004C39.3435 68.5754 39.7809 68.7469 40.2045 68.913C41.8704 69.5658 43.5932 70.2411 45.0397 71.3881C46.6219 72.6431 47.0984 74.5974 47.3774 76.5222C47.5364 77.618 47.2341 78.5072 46.5897 78.8422C46.2387 79.0247 45.4908 79.1826 44.4289 78.1901C41.8985 75.8243 39.6047 74.069 36.9914 72.4996C34.3267 70.8994 31.4015 69.4694 28.2973 68.25C27.7221 68.0237 27.1346 67.818 26.5663 67.6191C23.8193 66.656 21.2245 65.7462 19.8514 62.6887C18.5475 59.7843 18.601 56.0282 19.9954 52.6399C21.8381 48.162 26.2955 45.5577 30.2614 44.477C30.0029 44.3991 29.7418 44.3205 29.4744 44.2392C25.7108 43.0997 21.8189 41.9213 18.095 42.2883C14.3993 42.6527 11.3376 45.5338 10.2963 49.6296C9.22546 53.8409 10.2017 58.6968 12.7252 61.7119C13.3689 62.4809 14.2807 62.8315 15.2459 63.2027C16.1529 63.5513 17.0907 63.9115 17.8297 64.647C20.0358 66.8433 21.7181 69.8385 22.8308 73.5509C24.1196 77.8504 23.8077 82.266 23.506 86.5368C23.2983 89.4829 23.0831 92.5301 23.3998 95.4988C23.77 98.9698 24.738 102.074 26.2304 104.622C27.1483 103.976 27.9984 103.233 28.7278 102.366C31.1999 99.4264 32.2179 95.036 31.5207 90.3209C31.2143 88.2477 30.6042 86.0788 29.6019 83.4951C29.4456 83.0924 29.2701 82.6789 29.1001 82.279C28.3803 80.5859 27.6364 78.8347 27.8702 76.9016C28.0395 75.501 28.8533 74.1264 29.9947 73.3137C30.938 72.6418 32.0006 72.4073 33.0673 72.6349C35.9 73.2399 36.7302 76.6316 36.9557 78.0616C37.1456 79.268 37.2793 80.4909 37.4082 81.6741C37.8319 85.56 38.2322 89.23 40.5055 92.537C41.0155 93.2786 41.5674 94.0168 42.1014 94.7305C43.382 96.4427 44.7058 98.2131 45.5909 100.211C46.7625 102.855 46.7919 105.675 45.6724 107.949C44.6339 110.058 42.6718 111.561 40.1476 112.182C37.9093 112.733 35.4325 112.487 32.9837 111.472C30.7426 110.543 28.6812 109.021 27.1785 107.187C26.7665 106.684 26.3798 106.15 26.0199 105.588C24.2293 106.738 22.2522 107.565 20.4122 108.247C13.0624 110.974 5.29248 112.478 -2.68246 112.719C-10.6567 112.959 -18.5042 111.925 -26.0054 109.645C-29.9637 108.442 -33.8768 106.879 -37.661 105.367C-43.5252 103.024 -49.5888 100.601 -55.8849 99.5071C-56.0713 99.4749 -56.1961 99.2979 -56.1639 99.1113C-56.1317 98.9254 -55.9534 98.801 -55.7676 98.8331C-49.4003 99.9398 -43.3031 102.376 -37.4067 104.732C-33.6355 106.239 -29.7368 107.796 -25.8059 108.991C-10.8295 113.542 5.49951 113.05 20.1729 107.606C21.978 106.936 23.9174 106.127 25.6614 105.003C24.1073 102.364 23.1009 99.153 22.7183 95.5692C22.3955 92.5404 22.6121 89.4631 22.8225 86.4869C23.1194 82.2777 23.4272 77.9249 22.174 73.745C21.0943 70.1427 19.4695 67.2438 17.3457 65.1289C16.7095 64.4953 15.8793 64.1761 14.9998 63.8384C13.9955 63.4522 12.9569 63.053 12.1993 62.148C10.8433 60.528 9.89317 58.4377 9.45237 56.1041C9.03144 53.8758 9.09314 51.5784 9.63198 49.4594C10.1434 47.4484 11.1964 45.5816 12.5983 44.2029C14.1216 42.7039 15.9986 41.8064 18.0279 41.6062C21.8875 41.2261 26.024 42.4784 29.6739 43.5836C30.3718 43.7949 31.0313 43.9945 31.6901 44.1845C31.8423 44.2282 31.9444 44.3697 31.9376 44.5276C31.9307 44.6848 31.8169 44.8174 31.662 44.8482C27.6001 45.65 22.5696 48.1853 20.6309 52.8976C19.3263 56.0679 19.268 59.7118 20.4787 62.4077C21.7312 65.1973 24.1909 66.0592 26.7953 66.9724C27.3691 67.1734 27.9628 67.3819 28.5503 67.6122C31.6901 68.846 34.6503 70.2924 37.3472 71.9124C40.0037 73.5078 42.3332 75.2898 44.9005 77.6897C45.4503 78.2037 45.9515 78.402 46.275 78.2338C46.6425 78.0431 46.8139 77.3937 46.7008 76.6179C46.4416 74.8325 46.0097 73.0273 44.6146 71.9206C43.2484 70.8372 41.5743 70.181 39.955 69.5467C39.5286 69.3792 39.0878 69.207 38.6593 69.0285L38.2405 68.8549C36.0234 67.9369 33.7309 66.9875 31.7778 65.5165C29.4223 63.742 27.8812 61.1787 27.4383 58.299C27.0009 55.4547 27.6618 52.534 29.3003 50.0753C30.9031 47.6699 33.3086 45.8701 36.0734 45.0075C38.6682 44.1981 41.394 43.8044 44.0306 43.4244C46.4594 43.0737 48.9713 42.7114 51.3714 42.0245C54.7669 41.0525 57.9368 39.8337 60.7921 38.4038C62.5122 37.5425 64.2027 36.4782 65.8371 35.4488C66.6926 34.9102 67.5777 34.3524 68.4565 33.8315C68.6053 33.7434 68.7966 33.7796 68.9028 33.9163C69.0091 34.053 68.9961 34.2471 68.8727 34.3681C67.1979 36.0223 65.6321 37.7858 64.117 39.4913C63.3526 40.3525 62.5615 41.2425 61.7601 42.1161C59.8509 44.1968 58.3105 46.9829 56.9517 49.4402L56.8345 49.6528C54.3796 54.0911 52.301 59.2183 50.8243 64.4796C49.3051 69.8912 48.9329 75.6753 49.7466 81.2059C49.881 82.1211 50.1614 84.0255 51.1897 84.871C51.4105 85.0522 51.721 85.2477 51.9493 85.1479C52.3215 84.9852 52.6246 84.0836 52.6863 82.9564L52.689 82.9058C52.8864 79.2961 53.0729 75.8859 53.6659 72.3745C54.8128 65.5876 56.9634 58.7993 60.0586 52.1963C60.8052 50.6029 61.6182 48.9994 62.4752 47.4286C64.7731 43.2145 66.8798 39.9615 69.1057 37.1911C71.8987 33.7146 74.8568 31.0345 78.1501 28.9968C80.6531 27.4479 83.3781 26.143 86.0298 25.2216C89.027 24.1806 91.9179 23.618 94.6224 23.5497C97.95 23.4649 101.371 24.6461 104.515 26.9647C107.296 29.016 109.713 31.8547 111.318 34.9573C113.657 39.4762 114.981 45.0328 115.366 51.9447C115.795 59.6373 115.002 67.4537 113.008 75.1757C111.154 82.357 108.215 89.6408 104.273 96.8242C103.803 97.6806 103.328 98.5111 102.849 99.3157C103.481 99.8673 104.141 100.384 104.826 100.861C121.003 112.117 144.275 107.779 160.373 103.536C162.272 103.036 164.214 102.509 166.092 102C181.713 97.7668 197.867 93.39 213.636 96.857C219.52 98.1502 225.16 100.528 230.613 102.827C235.035 104.691 239.608 106.619 244.278 107.954C257.136 111.628 271.795 111.236 287.847 106.785C302.1 102.834 315.608 96.2507 328.671 89.8841C328.841 89.8014 329.047 89.8718 329.13 90.0414C329.212 90.2109 329.142 90.4159 328.972 90.4986C315.881 96.8788 302.344 103.476 288.03 107.444C280.465 109.541 273.075 110.752 266.063 111.043C258.259 111.366 250.866 110.548 244.088 108.61C239.379 107.265 234.787 105.329 230.346 103.457C224.921 101.169 219.311 98.8044 213.488 97.5248C197.883 94.0941 181.813 98.4489 166.271 102.66C164.392 103.169 162.449 103.696 160.548 104.197C153.416 106.077 142.696 108.592 131.985 108.736C126.753 108.807 121.895 108.3 117.548 107.232C112.658 106.029 108.246 104.075 104.434 101.422C103.761 100.954 103.113 100.45 102.491 99.9117C95.5506 111.327 87.7107 117.271 79.1558 117.594C78.9145 117.603 78.6725 117.608 78.4326 117.608L78.4319 117.612ZM61.5449 77.1361C60.7277 77.1361 59.9229 77.4607 59.214 78.0889C56.0804 80.8655 55.5409 85.9066 55.6389 89.6469C55.7458 93.7092 56.6028 97.7668 58.1165 101.38C61.3721 109.151 68.6025 117.313 79.1291 116.916C87.4674 116.6 95.1414 110.729 101.97 99.4531C100.391 98.006 98.9907 96.3388 97.8033 94.509C95.7734 98.0586 93.4673 101.268 90.3796 103.672C87.9438 105.569 85.6856 106.816 83.4761 107.485C80.7401 108.313 78.098 108.213 75.6225 107.188C73.5796 106.342 71.7485 104.977 70.1807 103.13C68.7458 101.44 67.5825 99.3799 66.816 97.1714C65.8837 94.4851 65.4257 91.4645 65.4175 87.9367C65.4155 87.2067 65.449 86.4637 65.4813 85.7453C65.5649 83.8908 65.6506 81.9728 65.1296 80.1676C64.7162 78.7376 63.6803 77.6241 62.4244 77.2618C62.1324 77.1778 61.8383 77.1361 61.5455 77.1361H61.5449ZM26.5896 105.209C26.9379 105.754 27.3122 106.271 27.7105 106.757C30.2662 109.877 35.198 112.699 39.9845 111.521C42.3092 110.949 44.1108 109.574 45.0582 107.651C46.0886 105.559 46.0543 102.949 44.965 100.49C44.1108 98.5631 42.8103 96.8235 41.553 95.142C41.0149 94.4229 40.4589 93.6785 39.9413 92.9259C37.57 89.4774 37.1422 85.5491 36.7281 81.7507C36.5999 80.5756 36.4676 79.361 36.2798 78.1703C36.0762 76.8797 35.342 73.8216 32.9254 73.3055C31.8224 73.0697 30.9401 73.4832 30.3944 73.8721C29.4052 74.5762 28.699 75.7696 28.5523 76.9857C28.3405 78.7383 29.0487 80.4041 29.7328 82.0152C29.9049 82.4198 30.0825 82.8382 30.2429 83.251C31.2644 85.8827 31.8868 88.0987 32.2008 90.2239C32.9261 95.1324 31.8526 99.719 29.255 102.808C28.4735 103.737 27.5665 104.527 26.5903 105.21L26.5896 105.209ZM94.1843 80.3022C94.1316 80.9297 94.1254 81.5729 94.1953 82.2524C94.5998 86.1534 95.8516 89.893 97.7739 93.1597C98.4896 91.8568 99.1758 90.5137 99.8565 89.1534C102.453 83.9674 104.57 78.0055 106.722 69.8208C108.718 62.2334 109.081 54.3768 107.718 48.2652C106.813 44.2029 104.835 40.8666 102.15 38.8713C96.967 35.0209 89.6769 36.2287 84.7513 39.1331C78.375 42.8933 72.624 49.8182 69.3662 57.6585C67.7484 61.5526 66.2566 67.3012 68.3386 72.57C69.9778 76.7177 74.0732 80.1382 79.2936 81.7192C84.1199 83.1806 88.9393 82.7855 92.515 80.6351C92.8715 80.4205 93.2109 80.1894 93.5324 79.9434C93.6249 79.0773 93.7915 78.2482 93.9561 77.4341C94.1837 76.3042 94.4195 75.136 94.451 73.8858C94.4935 72.2166 94.0603 70.723 93.2321 69.6806C92.452 68.6984 91.255 67.965 89.4657 67.3716C87.5455 66.7353 84.7499 66.2055 82.3381 67.3012C81.3091 67.7688 80.4138 68.5555 79.9428 69.4065C79.5425 70.1304 79.5425 70.719 79.5432 71.464C79.5432 71.8653 79.5432 72.2795 79.4815 72.76C79.3375 73.8694 78.8775 74.8141 78.1851 75.4197C77.2082 76.2741 76.0284 76.5496 74.7731 76.216C72.5575 75.6268 70.4775 73.1995 69.8215 71.2883C69.1229 69.2521 69.1626 66.9841 69.9332 64.9006C70.7113 62.7987 72.1694 61.0687 74.0403 60.029C77.941 57.8615 82.5383 58.5252 84.9322 59.1138C85.4601 59.2436 85.9955 59.3626 86.5131 59.4774C88.3414 59.8827 90.2329 60.3024 92.0214 61.271C95.7268 63.2779 98.0892 67.1898 98.1859 71.4804C98.2291 73.3978 97.8027 75.2782 96.9519 76.9173C96.2691 78.2325 95.3422 79.3658 94.1857 80.3009L94.1843 80.3022ZM85.4786 65.9861C87.0252 65.9861 88.5087 66.3354 89.6817 66.7236C91.6033 67.3607 92.9017 68.1659 93.7689 69.2568C94.9583 70.7531 95.1688 72.6096 95.1359 73.9036C95.103 75.2132 94.861 76.4115 94.6272 77.5694C94.5107 78.1484 94.3962 78.7157 94.3077 79.2872C96.4261 77.3104 97.5689 74.5687 97.499 71.4968C97.4071 67.4509 95.1825 63.7632 91.6924 61.8732C89.9881 60.9504 88.227 60.5594 86.3623 60.1459C85.8406 60.0304 85.3017 59.9108 84.7657 59.7788C82.4698 59.2142 78.0672 58.5737 74.3721 60.6278C70.8463 62.5875 69.1318 67.1734 70.4686 71.0682C71.0678 72.8133 72.9503 75.026 74.948 75.5564C75.9859 75.8325 76.9223 75.6138 77.7313 74.9063C78.2982 74.4108 78.6773 73.6172 78.8 72.6725C78.8569 72.2357 78.8562 71.8434 78.8562 71.464C78.8562 70.6875 78.8556 69.9541 79.3416 69.0757C79.8811 68.101 80.8951 67.2049 82.0529 66.6785C83.1628 66.1748 84.3379 65.9847 85.4786 65.9847V65.9861Z" fill="#0E4A79"/>
</g>
<defs>
<clipPath id="clip0_310_1744">
<rect width="136" height="136" fill="white" transform="translate(0.5 0.879883)"/>
</clipPath>
</defs>
</svg>
