<svg width="137" height="137" viewBox="0 0 137 137" fill="none" xmlns="http://www.w3.org/2000/svg">
<g clip-path="url(#clip0_310_1733)">
<path d="M51.905 48.6567L51.8748 48.6694C51.8748 48.6694 51.8848 48.6643 51.8899 48.6643C51.8949 48.6643 51.8999 48.6593 51.905 48.6567Z" fill="#0E4A79"/>
<path d="M17.6866 132C17.6841 131.977 17.6816 131.955 17.6791 131.935C17.6742 131.905 17.6717 131.874 17.6667 131.844C17.6742 131.895 17.6816 131.947 17.6866 132Z" fill="#0E4A79"/>
<path d="M88.3038 89.94C88.3038 89.94 88.3038 89.94 88.3043 89.9406C88.3043 89.94 88.3033 89.9395 88.3027 89.9385C88.3027 89.9385 88.3033 89.939 88.3038 89.9395V89.94Z" fill="#0E4A79"/>
<path d="M29.7143 59.7237C29.7143 59.7237 29.7143 59.7107 29.7143 59.7055C29.7143 59.6977 29.7143 59.6899 29.7168 59.6821C29.7168 59.6951 29.7143 59.7081 29.7117 59.7211L29.7143 59.7237Z" fill="#0E4A79"/>
<path d="M152.366 76.9471C152.366 76.9471 143.838 72.3361 131.752 76.7768C125.775 78.973 118.592 85.0888 113.713 80.709C108.328 75.8752 106.832 76.2914 107.348 77.317C107.919 78.4497 111.352 78.7566 112.481 78.0357C113.61 77.3169 113.163 66.0985 117.306 62.3071C119.625 60.1845 121.841 61.8006 122.541 63.5408C124.178 67.6074 123.744 74.6752 120.795 78.1387C117.616 81.8754 114.217 77.6217 115.048 71.7645C115.679 67.3132 118.118 62.3387 120.134 62.822C120.134 62.822 121.089 62.8325 121.765 64.7492C122.554 66.9896 122.751 72.6219 124.411 70.8923C126.602 68.6099 126.783 54.1823 124.061 52.6397C121.339 51.0971 103.346 43.4198 101.81 42.0054C100.246 40.5658 106.383 43.6888 107.608 44.8636C110.548 47.6819 115.171 51.2358 112.672 53.2512C110.171 55.2667 89.8712 59.7999 89.0653 59.1652C88.2595 58.5305 89.3528 55.5882 93.4996 55.3003C97.6463 55.0124 98.6263 57.3767 97.3588 58.6461C96.0913 59.9155 92.635 61.0693 90.677 60.3757C88.719 59.6843 89.7557 46.5891 90.9078 45.3197C92.0599 44.0503 99.5476 43.3 101.967 43.9936C104.387 44.685 108.706 49.359 109.514 51.3198C110.322 53.2807 96.0997 56.0947 92.4923 57.5049C88.8848 58.9151 87.3886 62.4395 87.3004 66.2288C87.2123 70.018 86.3435 85.7298 86.9689 86.0429C87.5921 86.356 106.166 78.6977 108.116 78.8532C110.068 79.0088 98.9075 83.7773 93.7577 85.4965C88.6078 87.2156 88.293 89.2731 85.7055 88.8276C83.118 88.3799 88.6519 73.1852 81.0635 73.1852C75.1729 73.1852 71.6515 82.1276 70.619 88.3463C70.3231 90.1369 70.3273 91.6963 70.3525 92.7618C70.4616 97.5682 74.174 100.05 77.1539 98.8775C83.374 96.4312 86.5659 80.3286 82.7025 76.5015C79.4182 73.2503 75.3848 80.9317 74.8161 88.2916C74.3167 94.7478 76.4992 97.0491 78.8327 95.2648C81.2272 93.4343 81.6322 83.6449 67.1627 85.7634C52.6931 87.8818 46.3324 88.1466 44.9306 86.8709C40.6243 82.9493 48.5862 72.0314 59.4694 71.3904C64.2646 71.1087 66.191 72.9939 61.9226 75.2363C56.9364 77.8571 48.3008 79.0886 55.2009 72.8846C62.101 66.6806 82.2135 61.3908 84.9437 59.8987C88.0349 58.209 88.2028 51.8011 87.4305 45.1684C86.9689 41.2068 93.9046 41.7658 97.9632 42.0054C102.022 42.245 99.7533 40.2127 91.7557 39.1367C83.7581 38.0607 62.1534 37.7013 56.544 39.8534C50.9345 42.0054 55.948 42.0054 60.1241 42.0054C64.3002 42.0054 82.373 42.3816 83.9973 43.2013C86.9709 44.7039 86.0266 52.5241 84.9521 56.3511C83.8777 60.1761 78.5075 58.8605 75.1645 58.5032C71.8215 58.1438 42.1143 55.2961 40.7146 53.7073C39.3148 52.1206 52.8337 42.1336 53.9544 42.4132C55.0729 42.6927 44.3346 55.128 38.9245 54.2873C33.5165 53.4467 39.6128 51.3009 42.8971 51.4733C45.0418 51.5846 45.8329 53.9847 38.4649 55.666C31.0969 57.3473 15.0072 63.0889 11.4754 66.6281C7.9435 70.1651 7.29295 72.5189 10.3652 72.8615C14.7701 73.3512 23.6512 67.4645 17.0659 66.8256C13.7523 66.5041 5.06008 73.0822 10.5709 80.2172C14.2602 84.9942 42.1961 87.7641 42.1961 86.7301C42.1961 85.6961 13.8216 77.1425 9.8301 80.1037C5.84075 83.0628 12.98 91.1688 17.7081 93.3881C22.4361 95.6074 51.3584 100.643 52.244 99.1633C53.1317 97.6838 51.3563 93.8357 47.516 93.096C43.6735 92.3562 14.7092 86.4359 13.6747 87.9154C12.6401 89.395 17.941 92.1628 20.453 92.9026C22.965 93.6424 18.5517 91.3201 21.3596 91.3201C24.1674 91.3201 30.6709 92.2091 33.1828 93.5394C35.6948 94.8718 38.8133 95.4624 41.768 95.9058C44.7228 96.3493 39.9801 93.5394 42.641 93.8336C45.302 94.13 51.1612 94.5398 53.2304 95.4267C55.2995 96.3156 53.5766 97.6817 56.0886 98.8649C58.6006 100.048 65.6937 99.4576 67.0242 97.6817C68.3546 95.9058 70.5854 72.561 65.9833 78.1471C59.7527 85.7066 50.7687 84.6579 40.8678 82.8821C30.9668 81.1062 14.7974 76.1548 8.50382 79.923C4.34867 82.4113 -3.23551 92.1754 -16.5005 87.2219" stroke="#0E4A79" stroke-width="0.68" stroke-miterlimit="10"/>
</g>
<defs>
<clipPath id="clip0_310_1733">
<rect width="136" height="136" fill="white" transform="translate(0.5 0.879883)"/>
</clipPath>
</defs>
</svg>
