<svg width="137" height="137" viewBox="0 0 137 137" fill="none" xmlns="http://www.w3.org/2000/svg">
<g clip-path="url(#clip0_310_1711)">
<path d="M51.905 48.6567L51.8748 48.6694C51.8748 48.6694 51.8848 48.6643 51.8899 48.6643C51.8949 48.6643 51.8999 48.6593 51.905 48.6567Z" fill="#0E4A79"/>
<path d="M17.6879 132C17.6854 131.977 17.683 131.955 17.6805 131.935C17.6755 131.905 17.673 131.874 17.6681 131.844C17.6755 131.895 17.683 131.947 17.6879 132Z" fill="#0E4A79"/>
<path d="M88.306 89.94C88.306 89.94 88.306 89.94 88.3065 89.9406C88.3065 89.94 88.3054 89.9395 88.3049 89.9385C88.3049 89.9385 88.3054 89.939 88.306 89.9395V89.94Z" fill="#0E4A79"/>
<path d="M29.7202 59.7237C29.7202 59.7237 29.7202 59.7107 29.7202 59.7055C29.7202 59.6977 29.7202 59.6899 29.7228 59.6821C29.7228 59.6951 29.7202 59.7081 29.7177 59.7211L29.7202 59.7237Z" fill="#0E4A79"/>
<path d="M0.499756 89.7854C0.499756 89.7854 24.7058 89.8147 26.4523 89.1828C28.2027 88.5497 31.6789 80.8498 29.4865 83.2244C27.3112 85.5799 25.6392 89.7241 28.9827 94.7004C32.2729 99.5961 64.4011 124.317 74.0953 124.413C83.7969 124.51 98.9234 111.237 98.5483 107.453C98.169 103.619 62.4622 77.8709 61.2743 76.3348C60.0807 74.7915 59.9007 69.662 57.1713 69.2801C54.4402 68.8975 55.3426 74.1321 54.2752 76.2782C53.2152 78.4097 36.6253 85.0877 35.6139 83.6195C34.5977 82.1449 31.9587 76.8322 34.7002 75.1639C37.4572 73.4857 55.1078 64.7482 55.9777 66.763C56.8426 68.7651 45.8987 18.5481 40.8282 15.0333C35.7078 11.4837 15.2949 12.8859 14.847 25.5927C14.4156 37.8357 33.0435 78.114 28.7829 78.4293C24.529 78.7443 6.44005 25.079 15.0087 23.3689C15.8933 23.1928 29.9075 78.5846 31.0039 76.927C32.1062 75.2607 31.8034 69.6981 34.1926 69.5667C36.5831 69.4351 51.3146 64.6888 52.285 61.9676C53.2638 59.223 46.3502 37.3065 43.9459 36.957C41.5397 36.6062 23.3222 41.4268 22.9509 43.1528C22.5818 44.8689 18.5455 35.8552 20.7845 32.2756C23.0489 28.657 39.7224 26.3129 39.965 24.1985C40.2094 22.0707 37.5016 21.6695 37.5016 21.6695C37.5016 21.6695 17.5832 27.0596 20.8501 28.335C24.1058 29.6054 38.183 23.1251 40.8228 25.9388C43.4407 28.7297 45.4116 34.0387 44.0187 34.6209C42.6274 35.2022 26.5647 36.7612 24.5233 39.2992C22.4978 41.8173 22.1575 44.5561 23.0863 48.2023C24.0047 51.809 31.6696 68.2835 31.7363 68.9916C31.8032 69.6981 33.47 81.096 33.0439 82.8232C32.6208 84.5399 31.8852 87.5212 32.0664 88.6391C32.2469 89.7529 68.4504 117.141 70.6109 117.226C72.7715 117.311 94.383 103.531 94.7225 106.311C95.059 109.065 80.4858 120.325 75.2866 117.643C70.0409 114.939 92.9396 108.158 91.5255 103.99C90.0921 99.7618 63.5491 78.9323 59.5171 78.3735C55.4796 77.8143 39.4555 83.9242 39.6856 89.2405C39.9107 94.4642 45.951 98.0548 48.6846 97.1469C51.4266 96.2363 67.675 89.7764 66.6896 86.9944C65.6946 84.1873 62.5884 80.6124 63.8254 83.4826C65.0504 86.3265 71.4544 89.4141 70.1148 90.7681C68.7815 92.1155 51.1201 98.1148 52.4716 101.258C53.8097 104.369 70.5254 114.801 72.8864 114.305C75.2521 113.808 88.6136 107.161 88.6034 104.648C88.5927 102.114 71.9148 90.1366 72.4145 92.1749C72.9111 94.1994 56.335 102.618 61.193 102.85C66.0492 103.083 79.3089 95.5034 76.7398 99.8742C74.2083 104.18 62.2682 108.812 68.0532 108.76C73.8423 108.709 85.369 101.678 83.3445 105.618C81.3472 109.505 71.4254 120.718 67.8689 118.263C64.2829 115.788 37.4985 93.2786 36.5848 95.9402C35.6788 98.578 66.7132 120.494 72.5499 121.262C78.3753 122.028 95.186 111.149 95.9855 108.359C96.6633 105.991 213.525 106.673 250.966 106.951" stroke="#0E4A79" stroke-width="0.68" stroke-miterlimit="10" stroke-linecap="round"/>
</g>
<defs>
<clipPath id="clip0_310_1711">
<rect width="136" height="136" fill="white" transform="translate(0.5 0.879883)"/>
</clipPath>
</defs>
</svg>
