<svg width="137" height="137" viewBox="0 0 137 137" fill="none" xmlns="http://www.w3.org/2000/svg">
<g clip-path="url(#clip0_310_1700)">
<path d="M51.9058 48.6567L51.8756 48.6694C51.8756 48.6694 51.8857 48.6643 51.8907 48.6643C51.8958 48.6643 51.9008 48.6593 51.9058 48.6567Z" fill="#0E4A79"/>
<path d="M17.6874 132C17.6849 131.977 17.6825 131.955 17.68 131.935C17.675 131.905 17.6726 131.874 17.6676 131.844C17.675 131.895 17.6825 131.947 17.6874 132Z" fill="#0E4A79"/>
<path d="M88.3051 89.94C88.3051 89.94 88.3051 89.94 88.3056 89.9406C88.3056 89.94 88.3046 89.9395 88.3041 89.9385C88.3041 89.9385 88.3046 89.939 88.3051 89.9395V89.94Z" fill="#0E4A79"/>
<path d="M29.7151 59.7237C29.7151 59.7237 29.7151 59.7107 29.7151 59.7055C29.7151 59.6977 29.7151 59.6899 29.7177 59.6821C29.7177 59.6951 29.7151 59.7081 29.7125 59.7211L29.7151 59.7237Z" fill="#0E4A79"/>
<path d="M203.367 111.149C199.972 110.909 96.7129 111.802 96.7435 111.404C96.8144 110.484 96.8533 109.105 96.3723 108.288C95.7445 107.221 93.7327 107.564 93.6101 107.62C87.1126 110.596 65.8957 120.463 67.7602 119.591C75.1055 116.153 93.5646 106.885 92.432 106.262C87.7791 103.701 76.4667 100.434 77.0788 100.557C84.1993 101.99 89.0794 102.418 96.2372 106.036C100.336 108.108 98.1913 112.443 97.4653 112.754C87.7751 116.898 77.1473 125.041 67.5564 125.547C67.1197 125.57 66.9601 125.181 66.1778 125.312C66.1778 125.312 68.3997 121.743 66.5142 119.446C64.6224 117.144 32.9527 109.314 33.213 109.731C33.4726 110.148 35.5227 111.425 34.8573 113.189C34.1917 114.954 32.3289 115.329 32.3289 115.329C32.3289 115.329 63.5238 126.884 64.9805 125.031C66.4344 123.181 71.2271 121.518 64.7546 119.552C58.2171 117.566 31.765 110.246 33.393 109.05C35.0181 107.857 54.2422 105.631 54.2422 105.631C54.2422 105.631 47.1299 109.239 53.2782 112.893C59.3673 116.512 70.5958 116.187 77.7389 114.733C84.8059 113.295 90.2171 107.768 85.2841 105.006C80.3118 102.222 69.9705 101.381 65.8765 102.328C61.7568 103.281 54.8909 103.894 56.2819 105.954C57.67 108.01 63.7841 108.161 65.4537 104.992C67.1197 101.829 66.2618 93.238 66.7042 92.584C67.1466 91.9317 72.4015 91.7274 72.7794 92.1416C73.1569 92.5548 72.92 105.994 74.7206 104.847C76.516 103.702 73.0311 92.4174 74.5136 92.206C75.9915 91.9953 83.8229 91.6272 86.1419 90.1321C88.4539 88.6421 87.7546 87.1639 86.8325 87.2574C85.9096 87.3511 68.0354 92.9009 54.2816 85.6372C40.2245 78.2134 31.2684 63.5954 31.7861 51.8915C32.3054 40.1803 44.2732 21.7257 49.2031 18.8788C54.0987 16.0524 55.3633 15.7627 55.3633 15.7627C55.3633 15.7627 55.6448 18.1064 56.4867 17.9117C57.3261 17.7178 58.4554 17.2791 58.4781 16.8731C58.5016 16.4662 56.9547 14.5505 56.9547 14.5505L59.9196 13.3377L57.7051 11.0811C57.7051 11.0811 47.6644 11.468 39.9414 20.9254C32.1378 30.4808 28.7722 40.168 27.9079 52.0517C26.9367 65.4028 33.5553 76.6552 44.7376 84.6034C55.7262 92.4151 62.6491 92.4348 65.4018 91.7319C68.1429 91.0319 63.8681 85.365 63.8148 86.3026C63.7613 87.2405 80.9839 85.9545 82.4488 85.7513C83.9101 85.5485 83.0476 89.0847 84.5302 88.4834C86.0097 87.8827 82.2995 83.7578 83.3141 84.4645C84.3268 85.1697 89.2715 83.5377 93.0979 80.423C96.9039 77.3252 105.307 69.6615 107.257 55.8283C109.207 42.012 98.6627 26.8394 94.6622 24.1037C90.6362 21.3489 82.1446 15.0838 71.6584 15.5497C61.0033 16.0231 53.8756 17.5328 46.9359 24.2932C39.9304 31.1186 35.7989 38.9237 34.4614 49.9997C33.1223 61.0825 39.5824 72.158 44.9182 77.0691C50.2096 81.9388 62.4442 86.5149 62.687 84.643C62.9298 82.7711 56.4347 79.2416 56.4136 77.2132C56.3916 75.1835 56.3849 72.8835 59.0288 74.6399C61.661 76.3881 60.7453 78.0946 65.6731 77.5241C70.5651 76.9573 68.1619 76.5716 70.2703 75.0691C72.3714 73.571 75.92 74.6865 73.1781 71.2085C70.4223 67.7133 68.6219 68.5517 68.8363 64.8079C69.0504 61.0634 71.0814 60.9193 69.7424 58.4228C68.3996 55.9203 66.8037 55.4134 67.1965 53.2864C67.5893 51.1606 65.6204 52.3734 71.1575 50.1973C76.6498 48.0385 74.8062 47.5054 75.2984 45.935C75.7906 44.3652 81.5346 48.7854 77.2146 42.8662C72.8624 36.9032 74.8691 37.0627 73.7503 35.498C72.6292 33.9304 69.6422 34.2245 67.7385 34.3393C65.8297 34.4542 65.8553 31.6211 63.1376 33.8309C60.4098 36.0489 61.6149 36.5508 59.1935 38.1217C56.7632 39.6988 54.8551 36.8322 52.7321 40.0712C50.6024 43.3197 47.3617 46.3627 48.5137 43.3036C49.6632 40.2483 48.8456 39.9132 51.88 37.9616C54.902 36.0194 53.0642 34.2391 56.1102 34.2113C59.143 34.1841 58.6325 35.9067 60.2597 33.8681C61.8843 31.8323 66.0835 30.0199 61.8637 29.7988C57.6159 29.5771 52.4124 31.049 53.0348 29.8735C53.6565 28.6987 54.4472 26.9944 52.7671 27.2592C51.0829 27.5246 50.8599 26.5497 48.7623 26.6432C46.6575 26.7361 47.432 25.4326 44.2822 29.0044C41.119 32.591 38.3897 35.8147 36.4487 45.0379C34.5041 54.2765 32.3889 61.4525 35.5946 60.1278C38.7862 58.8096 37.948 58.621 39.894 54.2115C41.8359 49.8124 44.3172 50.6654 43.6093 45.8229C42.9 40.9717 43.6387 37.8723 44.4554 40.8137C45.2711 43.7506 48.0969 40.8129 45.0156 48.2491C41.9228 55.7133 43.0673 55.3753 42.3675 57.7957C41.6676 60.2184 40.7944 60.7143 40.6774 60.2959C40.5603 59.8775 42.7887 60.2866 43.6517 62.3895C44.5139 64.4904 45.8312 63.4735 49.3438 65.4471C52.8366 67.4096 52.4 67.7931 54.0522 70.3239C55.7 72.8482 56.5227 72.8907 56.4297 74.5087C56.3377 76.1274 58.3138 77.5744 63.0682 80.357C67.7869 83.1191 71.8978 86.5043 76.9888 83.923C82.0415 81.3611 82.7304 80.8631 85.4957 80.8587C88.2499 80.8543 91.2142 81.5185 95.6672 76.3447C100.093 71.2029 103.929 69.1929 102.12 67.2611C100.306 65.3234 99.6796 65.0242 99.9143 63.2034C100.148 61.3835 100.676 61.1546 97.9564 59.1466C95.2242 57.1307 92.7631 56.9698 93.4566 53.9831C94.1498 50.9985 96.7359 51.1793 94.6822 48.5313C92.6222 45.8744 89.8577 46.2 93.5917 44.8899C97.3048 43.5872 98.4413 48.5385 99.055 42.405C99.6686 36.273 99.3284 35.4559 100.357 35.54C101.383 35.6248 101.64 35.646 101.949 36.9841C102.257 38.3219 97.3349 29.6231 95.0977 27.8434C92.8525 26.0572 89.2088 25.5991 88.8622 24.7717C88.5155 23.943 87.0953 21.1539 86.2915 21.3455C85.4878 21.538 80.6725 22.1641 79.9311 21.1597C79.1881 20.1541 78.5993 18.7599 81.3711 19.2871C84.1307 19.8124 88.2977 20.8666 91.6883 23.5679C95.0597 26.2539 100.206 31.4512 102.272 38.0609C104.33 44.6434 103.989 50.5085 103.397 49.6812C102.803 48.8524 104.209 46.7289 104.838 49.1303C105.466 51.5274 106.305 50.2802 105.696 56.3765C105.086 62.4734 101.613 78.2105 87.7593 82.5468C73.6113 86.9752 67.877 88.6123 67.4777 90.8727C67.0784 93.1329 69.5657 103.77 71.9668 103.971C74.3596 104.171 82.1178 102.936 82.123 107.428C82.1273 111.917 63.2973 114.309 65.715 112.22C68.1249 110.137 82.2991 113.505 81.831 117.058C81.3629 120.612 69.9394 122.962 68.3163 123.206C66.6886 123.451 61.2632 123.781 60.6388 122.835C60.0135 121.888 67.5215 120.663 64.9025 121.691C62.2732 122.723 63.6848 124.079 52.5273 121.241C41.1753 118.353 34.6546 114.278 29.9776 114.186C25.2685 114.093 -67.4998 114.532 -67.4998 114.532" stroke="#0E4A79" stroke-width="0.68" stroke-miterlimit="10" stroke-linecap="round" stroke-linejoin="round"/>
</g>
<defs>
<clipPath id="clip0_310_1700">
<rect width="136" height="136" fill="white" transform="translate(0.5 0.879883)"/>
</clipPath>
</defs>
</svg>
