<svg width="591" height="252" viewBox="0 0 591 252" fill="none" xmlns="http://www.w3.org/2000/svg">
<path d="M557.083 251.401C559.819 251.401 562.709 250.427 565.828 247.86C571.094 243.527 576.14 241.61 580.825 242.161C586.443 242.823 589.564 246.869 589.595 246.91C589.856 247.254 590.346 247.322 590.69 247.061C591.034 246.801 591.102 246.311 590.842 245.967C590.699 245.778 587.28 241.347 581.008 240.609C575.884 240.006 570.442 242.039 564.835 246.653C557.571 252.631 552.02 249.137 545.593 245.091C542.267 242.997 538.827 240.832 535.032 240.083C530.685 239.226 526.515 240.394 522.285 243.653C509.721 253.335 500.673 247.394 490.482 237.532C490.869 235.789 490.98 233.509 491.043 230.491C491.219 222.032 491.059 188.446 490.954 166.221C490.912 157.491 490.879 150.595 490.879 147.791C490.879 141.925 490.816 139.295 489.31 138.427C488.045 137.698 486.412 138.483 483.239 140.32C481.927 141.08 480.386 141.985 478.602 143.033C471.798 147.032 461.516 153.075 445.432 161.924C444.104 162.655 442.862 163.335 441.702 163.97C431.536 169.537 427.732 171.62 427.314 174.214C427.009 176.112 428.568 177.782 431.15 180.548L431.484 180.906C438.075 187.976 461.723 211.651 477.809 227.109C479.986 229.201 482.081 231.324 484.107 233.376C485.667 234.957 487.205 236.516 488.732 238.009C488.406 238.985 487.93 239.683 487.229 240.173C485.268 241.543 481.258 241.608 473.978 241.726L473.917 241.727C466.371 241.85 431.611 241.85 397.995 241.85C364.026 241.85 328.901 241.85 319.931 241.973C315.824 242.029 312.648 242.023 310.496 241.812C307.953 241.563 307.565 241.071 307.507 240.926C307.43 240.736 307.445 240.077 309.24 238.081C309.624 237.655 310.067 237.189 310.565 236.686C311.431 236.674 312.36 236.664 313.356 236.659C319.565 236.626 323.282 236.659 327.988 236.701C334.775 236.762 343.221 236.838 363.457 236.741C397.937 236.575 445.709 235.921 459.821 235.676C462.044 235.638 464.028 235.644 465.778 235.649C471.703 235.667 474.408 235.675 475.083 234.041C475.621 232.738 474.55 231.058 470.836 227.381C467.909 224.482 462.526 219.098 456.293 212.864C445.103 201.671 431.177 187.74 426.865 183.615C426.614 183.375 426.374 183.144 426.143 182.921C423.224 180.114 421.616 178.567 419.043 178.775C416.647 178.968 413.569 180.729 407.435 184.238L406.29 184.893C399.902 188.543 396.879 189.792 394.308 189.844C391.643 189.897 389.415 188.584 385.375 186.2C384.308 185.569 383.098 184.855 381.739 184.086C376.002 180.839 373.033 179.301 370.599 179.227C368.058 179.151 366.398 180.619 363.386 183.283L362.895 183.716C359.794 186.453 351.84 194.314 342.63 203.416C333.457 212.482 323.061 222.757 316.338 229.044L315.18 230.126C313.047 232.118 311.292 233.757 309.905 235.132C309.537 235.137 309.18 235.143 308.836 235.148C304.068 235.221 301.442 235.262 300.348 234.464C299.351 233.737 299.296 231.916 299.186 228.288C299.175 227.933 299.164 227.562 299.151 227.174C298.815 216.915 298.758 169.211 299.151 153.951C299.186 152.608 299.212 151.348 299.234 150.237C299.346 144.711 299.419 141.061 300.423 140.492C300.979 140.176 302.262 140.644 303.885 141.461C303.716 143.124 303.724 145.076 303.735 147.361C303.74 148.551 303.745 149.783 303.729 151.138L303.693 154.033C303.495 170.017 302.968 212.476 303.019 220.41C303.028 221.764 303.011 223.064 302.996 224.211C302.936 228.855 302.902 231.414 304.392 232.059C305.545 232.558 306.863 231.505 308 230.409C308.724 229.711 309.625 228.847 310.712 227.802C316.511 222.235 327.305 211.873 345.049 194.438C348.715 190.836 351.763 187.945 354.213 185.621C360.746 179.425 363.19 177.107 362.944 174.971C362.755 173.338 361.052 172.342 358.231 170.692C357.519 170.275 356.711 169.803 355.838 169.268C348.406 164.722 333.083 156.09 320.77 149.154C315.807 146.359 311.521 143.944 308.541 142.241C307.434 141.608 306.454 141.053 305.583 140.584C305.824 139.208 306.261 138.134 307.046 137.346C307.341 137.049 307.693 136.783 308.11 136.545C309.738 137.557 311.579 138.669 313.672 139.934C314.557 140.468 315.487 141.029 316.466 141.623C333.056 151.681 366.295 170.157 380.488 178.047C383.136 179.519 385.228 180.682 386.429 181.355C386.92 181.63 387.377 181.889 387.805 182.131C390.917 183.893 392.614 184.813 394.475 184.813C396.523 184.814 398.769 183.7 403.322 181.369C411.42 177.222 427.536 168.445 458.323 150.182C459.503 149.482 460.631 148.814 461.706 148.176C477.842 138.616 480.865 136.757 480.363 134.913C479.955 133.416 477.554 133.408 471.138 133.386C469.51 133.38 467.664 133.374 465.634 133.338C451.431 133.087 384.47 133.218 344.461 133.297C332.862 133.32 323.7 133.338 319.737 133.338C314.123 133.338 310.545 133.755 308.201 134.757C297.58 128.073 296.887 125.784 292.078 109.906C284.155 83.7466 276.42 71.3525 266.215 68.4637C263.274 67.6315 260.163 67.5929 256.702 68.3458C253.389 69.0667 249.828 70.5002 245.816 72.7281C238.662 76.701 229.938 83.3282 218.361 93.5842C209.917 101.065 202.013 105.904 194.866 107.967C188.628 109.769 182.972 109.456 178.057 107.041C173.427 104.765 170.077 100.958 167.69 97.0388C167.699 97.0351 167.707 97.031 167.716 97.0272C171.456 95.3158 174.669 92.7923 177.266 89.5268C179.873 86.248 181.951 82.1023 183.443 77.2052C185.053 71.9178 185.475 67.0841 184.696 62.8384C184.007 59.0839 182.38 55.9388 179.991 53.7429C176.735 50.7497 172.297 49.8541 168.41 51.4057C166.001 52.3672 163.916 54.2044 162.379 56.7186C160.684 59.4914 159.682 62.9843 159.403 67.1005C158.872 74.9045 160.16 83.5449 162.934 90.8064C163.681 92.7609 164.521 94.589 165.446 96.2819C152.253 101.289 131.781 97.2884 101.311 83.7942C62.6235 66.5289 62.2513 64.4682 60.1858 53.0321L60.0941 52.5241C58.1701 41.9071 58.3082 41.7853 65.5347 35.4077C66.2791 34.751 67.1226 34.0064 68.0339 33.1879L68.8873 32.4224C73.9341 27.8978 76.9804 25.1668 76.3487 22.556C75.8059 20.3131 72.7322 18.7275 65.0081 16.7054C60.3325 15.4815 54.3759 13.9501 48.0698 12.3288C33.2993 8.53126 16.5577 4.22705 9.8573 2.22267C4.59027 0.647215 2.04364 0.567503 0.773254 1.93819C-0.709167 3.53761 0.0805054 6.66259 1.94525 11.52C3.48151 15.5213 6.4765 24.3056 9.64734 33.6056C13.787 45.7473 18.0679 58.3024 19.9653 62.7915C20.1616 63.256 20.3466 63.6999 20.5226 64.1224C21.994 67.6532 22.882 69.7845 24.72 70.1992C26.4907 70.5994 28.6214 69.3239 33.4873 64.9514C36.0952 62.608 38.0204 60.5345 39.5675 58.8683C43.3602 54.7839 44.6379 53.4076 48.4791 55.1747C49.3575 55.5787 50.28 56.0318 51.1719 56.4699C55.1558 58.4272 56.5679 59.055 57.2356 58.0942C57.768 57.3286 57.121 56.3478 55.6551 54.6921C54.2972 53.1582 52.0718 50.93 48.8519 47.88C38.7473 38.3087 28.8434 28.7097 21.6119 21.701C18.296 18.4873 15.4323 15.7118 13.3398 13.7049C12.8988 13.282 12.0788 12.4956 11.2556 11.6822C12.4878 12.4439 13.7499 13.2558 14.3953 13.671C16.8104 15.2246 20.3932 17.5136 24.5417 20.1639C35.148 26.94 48.3478 35.3729 51.9235 37.8349C53.6075 38.9942 54.467 40.1458 54.5518 41.3555C54.6608 42.9108 53.4863 44.7603 50.8558 47.1761C50.538 47.4682 50.5167 47.9625 50.8089 48.2804C51.1007 48.5981 51.5952 48.6195 51.9132 48.3273C53.9666 46.4415 56.2995 43.9325 56.1113 41.2462C55.9911 39.5311 54.9113 37.9941 52.8101 36.5475C49.2122 34.0703 35.9998 25.6292 25.3834 18.8468C21.236 16.1971 17.6542 13.9089 15.2412 12.3565C12.9142 10.8595 11.3389 9.88071 10.284 9.27606C9.03003 8.55743 8.03955 7.98952 7.47308 8.70736C6.91388 9.41609 7.68201 10.2346 8.57153 11.1824C9.32117 11.981 10.4582 13.107 12.2582 14.8331C14.3477 16.8369 17.21 19.6113 20.5243 22.8234C27.7585 29.8348 37.666 39.4372 47.7773 49.015C52.4131 53.4062 54.4363 55.5869 55.2869 56.6671C54.3365 56.283 52.963 55.6083 51.8611 55.0671C50.9606 54.6246 50.0291 54.1671 49.1325 53.7546C44.263 51.5145 42.1884 53.7489 38.4221 57.8049C36.8966 59.448 34.998 61.4929 32.4427 63.7889C28.9453 66.9317 26.3516 68.9658 25.0643 68.6746C24.0142 68.4376 23.1993 66.4818 21.9657 63.5212C21.7887 63.0965 21.6027 62.6502 21.4052 62.1831C19.5295 57.7454 15.2579 45.2171 11.1271 33.1013C7.95111 23.7869 4.9516 14.989 3.40479 10.9599C2.19623 7.81224 0.935364 4.0632 1.91986 3.00095C2.90918 1.93363 6.6684 2.90027 9.40961 3.72036C16.1393 5.73361 32.8965 10.0417 47.6809 13.8428C53.9854 15.4636 59.9402 16.9947 64.6124 18.2176C69.1252 19.3989 74.3647 21.0015 74.8297 22.9237C75.2418 24.6267 72.1388 27.4084 67.844 31.2587L66.9895 32.0252C66.0836 32.8391 65.2426 33.5811 64.5008 34.2359C60.8125 37.491 58.7806 39.2841 57.9503 41.759C57.1338 44.1929 57.5287 47.1313 58.5563 52.8029L58.6481 53.31C59.7336 59.3209 60.3888 62.949 65.864 67.3186C70.897 71.3352 79.6812 75.8531 100.676 85.2228C131.712 98.967 152.628 102.946 166.233 97.654C169.216 102.618 172.991 106.292 177.368 108.443C182.643 111.036 188.676 111.381 195.3 109.469C202.671 107.341 210.779 102.39 219.398 94.7541C238.868 77.5053 254.21 66.6896 265.789 69.9675C270.648 71.3431 274.956 75.197 278.958 81.7497C282.907 88.2164 286.71 97.5747 290.582 110.359C295.439 126.394 296.453 129.124 306.653 135.628C306.393 135.819 306.156 136.024 305.938 136.243C304.987 137.199 304.441 138.384 304.131 139.839C302.052 138.835 300.703 138.536 299.652 139.132C297.874 140.14 297.811 143.294 297.671 150.205C297.649 151.314 297.623 152.571 297.589 153.91C297.195 169.187 297.252 216.952 297.589 227.225C297.602 227.612 297.613 227.981 297.624 228.335C297.749 232.472 297.812 234.548 299.426 235.726C300.896 236.798 303.271 236.796 308.363 236.718C306.324 238.923 305.578 240.321 306.056 241.509C306.815 243.394 310.191 243.668 319.952 243.535C328.911 243.412 364.031 243.412 397.994 243.412C431.616 243.412 466.383 243.412 473.942 243.289L474.003 243.288C481.838 243.161 485.771 243.097 488.123 241.454C488.95 240.876 489.537 240.143 489.956 239.192C494.104 243.157 498.186 246.541 502.404 248.447C504.953 249.599 507.456 250.179 509.957 250.179C514.301 250.179 518.645 248.431 523.238 244.891C531.827 238.272 538.109 242.226 544.76 246.413C548.68 248.882 552.683 251.401 557.083 251.401ZM488.264 139.724C488.372 139.724 488.462 139.742 488.53 139.781C489.316 140.235 489.316 144.076 489.316 147.791C489.316 150.599 489.349 157.496 489.391 166.229C489.496 188.445 489.656 222.019 489.48 230.458C489.43 232.859 489.354 234.743 489.137 236.216C487.855 234.949 486.552 233.628 485.219 232.278C483.186 230.219 481.084 228.088 478.892 225.981C462.822 210.539 439.205 186.897 432.627 179.84L432.293 179.482C430.114 177.147 428.674 175.605 428.858 174.462C429.153 172.624 433.598 170.19 442.453 165.341C443.613 164.705 444.856 164.025 446.186 163.293C462.288 154.434 472.582 148.384 479.394 144.381C481.176 143.334 482.714 142.43 484.022 141.673C485.317 140.923 487.388 139.724 488.264 139.724ZM463.808 234.082C462.569 234.082 461.233 234.089 459.794 234.114C445.685 234.359 397.922 235.012 363.449 235.178C343.224 235.275 334.784 235.199 328.002 235.139C323.476 235.098 319.568 235.063 313.348 235.096C312.946 235.098 312.555 235.101 312.175 235.105C313.35 233.974 314.719 232.696 316.247 231.268L317.406 230.186C324.144 223.884 334.549 213.601 343.729 204.528C352.54 195.82 360.861 187.596 363.929 184.889L364.421 184.454C367.223 181.976 368.628 180.733 370.552 180.79C372.544 180.85 375.255 182.212 380.969 185.447C382.316 186.209 383.519 186.919 384.581 187.546C388.726 189.992 391.227 191.469 394.339 191.407C397.565 191.342 401.3 189.545 407.066 186.25L408.212 185.595C414.143 182.202 417.121 180.498 419.169 180.333C421.039 180.184 422.3 181.394 425.06 184.048C425.292 184.271 425.533 184.504 425.785 184.745C430.084 188.858 444.004 202.781 455.188 213.969C461.422 220.205 466.807 225.591 469.737 228.492C471.365 230.104 472.409 231.255 473.023 232.117C473.752 233.139 473.64 233.441 473.639 233.444C473.633 233.458 473.474 233.797 471.741 233.964C470.335 234.1 468.326 234.094 465.783 234.086C465.154 234.084 464.496 234.082 463.808 234.082ZM305.386 142.256C306.148 142.675 306.951 143.133 307.766 143.599C310.75 145.305 315.038 147.72 320.003 150.517C332.305 157.446 347.615 166.071 355.022 170.602C355.909 171.145 356.724 171.621 357.442 172.042C359.761 173.397 361.292 174.293 361.391 175.151C361.548 176.511 358.561 179.344 353.137 184.488C350.683 186.815 347.629 189.712 343.953 193.324C326.216 210.752 315.426 221.11 309.63 226.675C308.541 227.72 307.64 228.585 306.915 229.284C305.557 230.593 305.083 230.628 305.013 230.623C304.968 230.582 304.718 230.297 304.606 228.873C304.514 227.695 304.535 226.09 304.559 224.231C304.574 223.077 304.591 221.77 304.582 220.4C304.531 212.481 305.058 170.033 305.256 154.053L305.292 151.157C305.309 149.789 305.303 148.495 305.298 147.354C305.289 145.396 305.282 143.701 305.386 142.256ZM478.779 135.357C478.539 135.735 477.623 136.61 474.518 138.614C471.549 140.528 467.087 143.173 460.91 146.832C459.834 147.47 458.707 148.138 457.526 148.838C426.774 167.081 410.689 175.841 402.61 179.978C398.478 182.094 396.404 183.156 394.712 183.243C393.093 183.329 391.582 182.474 388.576 180.771C388.146 180.528 387.687 180.268 387.194 179.992C385.99 179.317 383.897 178.154 381.248 176.681C367.062 168.796 333.842 150.329 317.277 140.287C316.297 139.693 315.366 139.131 314.481 138.596C312.79 137.575 311.269 136.656 309.895 135.811C312.035 135.179 315.18 134.902 319.737 134.902C323.702 134.902 332.864 134.883 344.465 134.861C381.843 134.787 451.419 134.65 465.606 134.902C467.648 134.938 469.499 134.944 471.133 134.949C474.472 134.961 477.917 134.972 478.779 135.357ZM172.354 52.2046C174.694 52.2046 177.01 53.1264 178.934 54.8945C183.665 59.2436 184.792 67.4141 181.948 76.7505C179.079 86.1693 174.211 92.3371 167.066 95.6065C167.011 95.6314 166.957 95.656 166.902 95.6805C165.867 93.807 165.043 91.945 164.395 90.2492C161.698 83.1917 160.447 74.7932 160.963 67.2072C161.457 59.9271 164.383 54.697 168.99 52.8581C170.089 52.4196 171.224 52.2046 172.354 52.2046Z" fill="#0E4A79"/>
</svg>
