<svg width="272" height="162" viewBox="0 0 272 162" fill="none" xmlns="http://www.w3.org/2000/svg">
<g clip-path="url(#clip0_507_14523)">
<mask id="path-1-outside-1_507_14523" maskUnits="userSpaceOnUse" x="-85" y="-0.499756" width="442" height="163" fill="black">
<rect fill="white" x="-85" y="-0.499756" width="442" height="163"/>
<path d="M188.905 161.5C188.739 161.5 188.576 161.443 188.444 161.333L149.137 128.668C148.357 128.02 147.369 127.662 146.355 127.662H83.7416C77.2434 127.662 71.1256 125.137 66.5157 120.554C61.9057 115.969 59.3456 109.863 59.305 103.36L59.1454 77.6855C59.0904 68.9135 57.2165 62.3959 53.5741 58.3149C50.5567 54.9343 46.3418 53.2323 41.0438 53.253C36.6431 53.2711 31.4849 54.5435 26.4808 56.8024C26.1499 57.8998 25.745 58.9449 25.2805 59.9141C23.0279 64.6214 19.5623 67.4308 16.0111 67.4308C13.569 67.4308 13.303 66.1574 13.3021 65.6105C13.2976 63.2848 17.8868 59.7165 22.4372 57.2112C23.3733 56.6959 24.322 56.214 25.2788 55.7664C26.6594 50.6647 26.3266 44.5171 22.6365 39.9254C20.2332 36.9355 16.6811 34.9483 12.0784 34.0197C6.6902 32.9331 -0.0569763 33.3248 -7.97558 35.1856C-18.7222 37.7107 -29.3984 38.0492 -39.7068 36.1892C-47.9536 34.7019 -55.9813 31.8131 -63.5681 27.604C-70.3153 23.8606 -75.4572 19.7426 -78.5837 16.9477C-81.9817 13.91 -83.7591 11.7847 -83.833 11.6953C-84.0883 11.3885 -84.0459 10.9337 -83.7402 10.6783C-83.4336 10.4229 -82.9791 10.4653 -82.7239 10.7712C-82.6436 10.8669 -75.5086 19.3401 -62.8196 26.3685C-51.1261 32.8455 -32.1768 39.3884 -8.30563 33.7787C11.0594 29.2285 19.8211 34.1171 23.761 39.0193C27.5026 43.6751 28.0824 49.7686 26.9407 55.0255C31.7969 52.9723 36.7531 51.8253 41.0384 51.8073C41.0745 51.8073 41.1105 51.8073 41.1466 51.8073C46.8252 51.8073 51.3684 53.6727 54.6509 57.352C58.534 61.7037 60.5314 68.5417 60.5882 77.6756L60.7479 103.35C60.8263 115.959 71.141 126.217 83.7416 126.217H146.355C147.705 126.217 149.02 126.693 150.059 127.556L188.01 159.094L185.302 132.296C185.138 130.667 185.673 129.036 186.769 127.821C187.867 126.606 189.434 125.91 191.07 125.91H194.147C205.191 125.91 214.175 116.918 214.175 105.866V86.2273H174.819C173.995 87.8924 172.998 89.4004 171.834 90.737C169.674 93.2169 166.883 95.1753 163.538 96.5579C159.973 98.0307 155.673 98.8916 150.755 99.1173C143.641 99.4431 137.316 99.6524 131.954 99.7382C129.923 99.7688 128.152 98.564 127.438 96.6653C126.722 94.762 127.26 92.6809 128.809 91.3624C131.271 89.2686 133.956 87.6334 136.789 86.5026C140.338 85.0866 144.126 84.4639 148.049 84.6507C149.91 84.7401 151.632 84.7834 153.313 84.7834H173.897C175.396 81.4181 176.194 77.385 176.3 72.675C176.399 68.317 175.441 65.3804 173.452 63.9463C171.627 62.6305 169.342 62.9058 168.232 63.1531C167.814 63.2785 167.544 63.3444 167.49 63.357C167.116 63.4464 166.74 63.2289 166.63 62.8616C166.521 62.4943 166.717 62.1053 167.078 61.9763C167.119 61.9618 167.395 61.8643 167.834 61.7624C169.575 61.2326 174.134 59.5802 175.315 56.5344C175.897 55.03 175.555 53.3243 174.296 51.4634C173.386 50.1169 171.221 49.0683 167.864 48.3436C165.071 47.7417 161.488 47.3798 157.217 47.2688C149.903 47.0783 143.037 47.7001 142.968 47.7065C142.702 47.7308 142.444 47.6063 142.298 47.3825C142.152 47.1587 142.141 46.8726 142.271 46.6379C149.392 33.757 148.182 25.8099 145.913 21.4113C145.515 20.6406 144.76 20.1505 143.893 20.0991C143.018 20.0477 142.203 20.4502 141.713 21.1758L122.463 49.6747C122.174 50.1016 122.032 50.598 122.05 51.1115C122.128 53.3604 122.227 59.0766 122.004 72.0902C121.909 77.6223 120.39 82.2637 118.362 86.0234V95.2565C118.362 97.3854 116.631 99.1182 114.503 99.1182C112.923 99.1182 111.561 98.213 110.949 96.7564C110.335 95.2971 110.641 93.6862 111.748 92.5536C113.471 90.7911 115.344 88.4916 116.919 85.6516V52.3533C116.919 51.0203 115.835 49.9356 114.503 49.9356H101.189C99.8566 49.9356 98.7726 51.0203 98.7726 52.3533V60.979C101.333 62.5313 103.339 64.3759 104.774 66.5039C108.335 71.7852 108.324 78.7459 104.742 87.1912C103.89 89.1982 101.957 89.7803 100.418 89.4672C98.8809 89.154 97.3298 87.8626 97.3298 85.6841V61.8066C94.5487 60.2444 91.1102 59.0098 87.0341 58.1164C80.1769 56.612 72.9617 56.3999 68.1155 56.4866C66.394 56.5154 64.7716 55.8711 63.547 54.6672C62.3233 53.4642 61.6487 51.8542 61.6487 50.1332V17.0515C61.6487 7.92483 69.0677 0.500244 78.1875 0.500244H196.735C207.148 0.500244 215.619 8.97801 215.619 19.3988V84.7852H355.206C355.604 84.7852 355.927 85.1083 355.927 85.5072C355.927 85.9061 355.604 86.2291 355.206 86.2291H215.619V105.868C215.619 111.607 213.385 117.003 209.33 121.062C205.275 125.12 199.883 127.355 194.147 127.355H191.071C189.841 127.355 188.665 127.879 187.84 128.791C187.016 129.704 186.615 130.928 186.738 132.152L189.624 160.705C189.654 160.997 189.504 161.277 189.245 161.415C189.139 161.472 189.023 161.5 188.906 161.5H188.905ZM146.704 86.0649C138.945 86.0649 133.231 89.497 129.743 92.4643C128.432 93.5788 128.39 95.1031 128.787 96.1581C129.178 97.1968 130.192 98.2969 131.868 98.2969C131.889 98.2969 131.91 98.2969 131.93 98.2969C137.278 98.2112 143.59 98.0027 150.689 97.6769C161.878 97.1643 169.331 93.3938 173.188 86.23H153.312C151.608 86.23 149.864 86.1858 147.98 86.0965C147.549 86.0757 147.124 86.0658 146.705 86.0658L146.704 86.0649ZM116.917 88.4384C115.581 90.4671 114.134 92.1755 112.777 93.5644C111.948 94.4136 111.975 95.4812 112.276 96.1978C112.576 96.9125 113.318 97.676 114.502 97.676C115.834 97.676 116.917 96.5913 116.917 95.2583V88.4384H116.917ZM98.7699 62.6856V85.6841C98.7699 87.1415 99.8115 87.8707 100.703 88.053C101.596 88.2353 102.841 87.9709 103.411 86.6271C106.79 78.661 106.845 72.1624 103.575 67.3116C102.398 65.5663 100.793 64.0221 98.769 62.6856H98.7699ZM175.473 84.7852H214.174V19.3988C214.174 9.77399 206.35 1.94419 196.733 1.94419H78.1857C69.8622 1.94419 63.0898 8.72081 63.0898 17.0515V50.1341C63.0898 51.4643 63.6101 52.7088 64.5561 53.6375C65.503 54.5679 66.7574 55.0661 68.0875 55.0435C73.0104 54.9551 80.3464 55.1717 87.3407 56.7058C91.2175 57.556 94.5514 58.7129 97.3271 60.1668V52.3542C97.3271 50.2252 99.0585 48.4925 101.186 48.4925H114.501C116.628 48.4925 118.359 50.2252 118.359 52.3542V82.6725C119.627 79.6285 120.489 76.0944 120.559 72.0667C120.782 59.0866 120.683 53.3992 120.606 51.1638C120.577 50.3435 120.805 49.5493 121.265 48.8679L140.515 20.3689C141.294 19.2165 142.587 18.5785 143.976 18.6597C145.357 18.7409 146.559 19.5233 147.193 20.7507C148.663 23.6007 149.29 26.9452 149.055 30.6895C148.761 35.3517 147.117 40.5517 144.166 46.1641C146.539 45.9927 151.764 45.6849 157.241 45.8257C167.36 46.0874 173.5 47.7119 175.49 50.6539C177.031 52.9308 177.424 55.0859 176.658 57.0596C175.836 59.1777 173.806 60.6857 171.863 61.6947C172.677 61.8788 173.512 62.2127 174.294 62.7767C176.692 64.505 177.851 67.8468 177.74 72.7093C177.658 76.3381 177.171 79.6285 176.295 82.4884C176.052 83.2799 175.778 84.0461 175.471 84.7843L175.473 84.7852ZM24.6682 57.667C24.1533 57.926 23.6411 58.1958 23.1325 58.4756C17.407 61.627 14.7423 64.5934 14.745 65.6069C14.745 65.68 14.7513 65.7242 14.8667 65.7919C14.9921 65.865 15.3068 65.9868 16.012 65.9868C18.9942 65.9868 21.9728 63.4834 23.9802 59.2896C24.2291 58.7707 24.459 58.2283 24.6691 57.667H24.6682Z"/>
</mask>
<path d="M188.905 161.5C188.739 161.5 188.576 161.443 188.444 161.333L149.137 128.668C148.357 128.02 147.369 127.662 146.355 127.662H83.7416C77.2434 127.662 71.1256 125.137 66.5157 120.554C61.9057 115.969 59.3456 109.863 59.305 103.36L59.1454 77.6855C59.0904 68.9135 57.2165 62.3959 53.5741 58.3149C50.5567 54.9343 46.3418 53.2323 41.0438 53.253C36.6431 53.2711 31.4849 54.5435 26.4808 56.8024C26.1499 57.8998 25.745 58.9449 25.2805 59.9141C23.0279 64.6214 19.5623 67.4308 16.0111 67.4308C13.569 67.4308 13.303 66.1574 13.3021 65.6105C13.2976 63.2848 17.8868 59.7165 22.4372 57.2112C23.3733 56.6959 24.322 56.214 25.2788 55.7664C26.6594 50.6647 26.3266 44.5171 22.6365 39.9254C20.2332 36.9355 16.6811 34.9483 12.0784 34.0197C6.6902 32.9331 -0.0569763 33.3248 -7.97558 35.1856C-18.7222 37.7107 -29.3984 38.0492 -39.7068 36.1892C-47.9536 34.7019 -55.9813 31.8131 -63.5681 27.604C-70.3153 23.8606 -75.4572 19.7426 -78.5837 16.9477C-81.9817 13.91 -83.7591 11.7847 -83.833 11.6953C-84.0883 11.3885 -84.0459 10.9337 -83.7402 10.6783C-83.4336 10.4229 -82.9791 10.4653 -82.7239 10.7712C-82.6436 10.8669 -75.5086 19.3401 -62.8196 26.3685C-51.1261 32.8455 -32.1768 39.3884 -8.30563 33.7787C11.0594 29.2285 19.8211 34.1171 23.761 39.0193C27.5026 43.6751 28.0824 49.7686 26.9407 55.0255C31.7969 52.9723 36.7531 51.8253 41.0384 51.8073C41.0745 51.8073 41.1105 51.8073 41.1466 51.8073C46.8252 51.8073 51.3684 53.6727 54.6509 57.352C58.534 61.7037 60.5314 68.5417 60.5882 77.6756L60.7479 103.35C60.8263 115.959 71.141 126.217 83.7416 126.217H146.355C147.705 126.217 149.02 126.693 150.059 127.556L188.01 159.094L185.302 132.296C185.138 130.667 185.673 129.036 186.769 127.821C187.867 126.606 189.434 125.91 191.07 125.91H194.147C205.191 125.91 214.175 116.918 214.175 105.866V86.2273H174.819C173.995 87.8924 172.998 89.4004 171.834 90.737C169.674 93.2169 166.883 95.1753 163.538 96.5579C159.973 98.0307 155.673 98.8916 150.755 99.1173C143.641 99.4431 137.316 99.6524 131.954 99.7382C129.923 99.7688 128.152 98.564 127.438 96.6653C126.722 94.762 127.26 92.6809 128.809 91.3624C131.271 89.2686 133.956 87.6334 136.789 86.5026C140.338 85.0866 144.126 84.4639 148.049 84.6507C149.91 84.7401 151.632 84.7834 153.313 84.7834H173.897C175.396 81.4181 176.194 77.385 176.3 72.675C176.399 68.317 175.441 65.3804 173.452 63.9463C171.627 62.6305 169.342 62.9058 168.232 63.1531C167.814 63.2785 167.544 63.3444 167.49 63.357C167.116 63.4464 166.74 63.2289 166.63 62.8616C166.521 62.4943 166.717 62.1053 167.078 61.9763C167.119 61.9618 167.395 61.8643 167.834 61.7624C169.575 61.2326 174.134 59.5802 175.315 56.5344C175.897 55.03 175.555 53.3243 174.296 51.4634C173.386 50.1169 171.221 49.0683 167.864 48.3436C165.071 47.7417 161.488 47.3798 157.217 47.2688C149.903 47.0783 143.037 47.7001 142.968 47.7065C142.702 47.7308 142.444 47.6063 142.298 47.3825C142.152 47.1587 142.141 46.8726 142.271 46.6379C149.392 33.757 148.182 25.8099 145.913 21.4113C145.515 20.6406 144.76 20.1505 143.893 20.0991C143.018 20.0477 142.203 20.4502 141.713 21.1758L122.463 49.6747C122.174 50.1016 122.032 50.598 122.05 51.1115C122.128 53.3604 122.227 59.0766 122.004 72.0902C121.909 77.6223 120.39 82.2637 118.362 86.0234V95.2565C118.362 97.3854 116.631 99.1182 114.503 99.1182C112.923 99.1182 111.561 98.213 110.949 96.7564C110.335 95.2971 110.641 93.6862 111.748 92.5536C113.471 90.7911 115.344 88.4916 116.919 85.6516V52.3533C116.919 51.0203 115.835 49.9356 114.503 49.9356H101.189C99.8566 49.9356 98.7726 51.0203 98.7726 52.3533V60.979C101.333 62.5313 103.339 64.3759 104.774 66.5039C108.335 71.7852 108.324 78.7459 104.742 87.1912C103.89 89.1982 101.957 89.7803 100.418 89.4672C98.8809 89.154 97.3298 87.8626 97.3298 85.6841V61.8066C94.5487 60.2444 91.1102 59.0098 87.0341 58.1164C80.1769 56.612 72.9617 56.3999 68.1155 56.4866C66.394 56.5154 64.7716 55.8711 63.547 54.6672C62.3233 53.4642 61.6487 51.8542 61.6487 50.1332V17.0515C61.6487 7.92483 69.0677 0.500244 78.1875 0.500244H196.735C207.148 0.500244 215.619 8.97801 215.619 19.3988V84.7852H355.206C355.604 84.7852 355.927 85.1083 355.927 85.5072C355.927 85.9061 355.604 86.2291 355.206 86.2291H215.619V105.868C215.619 111.607 213.385 117.003 209.33 121.062C205.275 125.12 199.883 127.355 194.147 127.355H191.071C189.841 127.355 188.665 127.879 187.84 128.791C187.016 129.704 186.615 130.928 186.738 132.152L189.624 160.705C189.654 160.997 189.504 161.277 189.245 161.415C189.139 161.472 189.023 161.5 188.906 161.5H188.905ZM146.704 86.0649C138.945 86.0649 133.231 89.497 129.743 92.4643C128.432 93.5788 128.39 95.1031 128.787 96.1581C129.178 97.1968 130.192 98.2969 131.868 98.2969C131.889 98.2969 131.91 98.2969 131.93 98.2969C137.278 98.2112 143.59 98.0027 150.689 97.6769C161.878 97.1643 169.331 93.3938 173.188 86.23H153.312C151.608 86.23 149.864 86.1858 147.98 86.0965C147.549 86.0757 147.124 86.0658 146.705 86.0658L146.704 86.0649ZM116.917 88.4384C115.581 90.4671 114.134 92.1755 112.777 93.5644C111.948 94.4136 111.975 95.4812 112.276 96.1978C112.576 96.9125 113.318 97.676 114.502 97.676C115.834 97.676 116.917 96.5913 116.917 95.2583V88.4384H116.917ZM98.7699 62.6856V85.6841C98.7699 87.1415 99.8115 87.8707 100.703 88.053C101.596 88.2353 102.841 87.9709 103.411 86.6271C106.79 78.661 106.845 72.1624 103.575 67.3116C102.398 65.5663 100.793 64.0221 98.769 62.6856H98.7699ZM175.473 84.7852H214.174V19.3988C214.174 9.77399 206.35 1.94419 196.733 1.94419H78.1857C69.8622 1.94419 63.0898 8.72081 63.0898 17.0515V50.1341C63.0898 51.4643 63.6101 52.7088 64.5561 53.6375C65.503 54.5679 66.7574 55.0661 68.0875 55.0435C73.0104 54.9551 80.3464 55.1717 87.3407 56.7058C91.2175 57.556 94.5514 58.7129 97.3271 60.1668V52.3542C97.3271 50.2252 99.0585 48.4925 101.186 48.4925H114.501C116.628 48.4925 118.359 50.2252 118.359 52.3542V82.6725C119.627 79.6285 120.489 76.0944 120.559 72.0667C120.782 59.0866 120.683 53.3992 120.606 51.1638C120.577 50.3435 120.805 49.5493 121.265 48.8679L140.515 20.3689C141.294 19.2165 142.587 18.5785 143.976 18.6597C145.357 18.7409 146.559 19.5233 147.193 20.7507C148.663 23.6007 149.29 26.9452 149.055 30.6895C148.761 35.3517 147.117 40.5517 144.166 46.1641C146.539 45.9927 151.764 45.6849 157.241 45.8257C167.36 46.0874 173.5 47.7119 175.49 50.6539C177.031 52.9308 177.424 55.0859 176.658 57.0596C175.836 59.1777 173.806 60.6857 171.863 61.6947C172.677 61.8788 173.512 62.2127 174.294 62.7767C176.692 64.505 177.851 67.8468 177.74 72.7093C177.658 76.3381 177.171 79.6285 176.295 82.4884C176.052 83.2799 175.778 84.0461 175.471 84.7843L175.473 84.7852ZM24.6682 57.667C24.1533 57.926 23.6411 58.1958 23.1325 58.4756C17.407 61.627 14.7423 64.5934 14.745 65.6069C14.745 65.68 14.7513 65.7242 14.8667 65.7919C14.9921 65.865 15.3068 65.9868 16.012 65.9868C18.9942 65.9868 21.9728 63.4834 23.9802 59.2896C24.2291 58.7707 24.459 58.2283 24.6691 57.667H24.6682Z" fill="white"/>
<path d="M188.905 161.5C188.739 161.5 188.576 161.443 188.444 161.333L149.137 128.668C148.357 128.02 147.369 127.662 146.355 127.662H83.7416C77.2434 127.662 71.1256 125.137 66.5157 120.554C61.9057 115.969 59.3456 109.863 59.305 103.36L59.1454 77.6855C59.0904 68.9135 57.2165 62.3959 53.5741 58.3149C50.5567 54.9343 46.3418 53.2323 41.0438 53.253C36.6431 53.2711 31.4849 54.5435 26.4808 56.8024C26.1499 57.8998 25.745 58.9449 25.2805 59.9141C23.0279 64.6214 19.5623 67.4308 16.0111 67.4308C13.569 67.4308 13.303 66.1574 13.3021 65.6105C13.2976 63.2848 17.8868 59.7165 22.4372 57.2112C23.3733 56.6959 24.322 56.214 25.2788 55.7664C26.6594 50.6647 26.3266 44.5171 22.6365 39.9254C20.2332 36.9355 16.6811 34.9483 12.0784 34.0197C6.6902 32.9331 -0.0569763 33.3248 -7.97558 35.1856C-18.7222 37.7107 -29.3984 38.0492 -39.7068 36.1892C-47.9536 34.7019 -55.9813 31.8131 -63.5681 27.604C-70.3153 23.8606 -75.4572 19.7426 -78.5837 16.9477C-81.9817 13.91 -83.7591 11.7847 -83.833 11.6953C-84.0883 11.3885 -84.0459 10.9337 -83.7402 10.6783C-83.4336 10.4229 -82.9791 10.4653 -82.7239 10.7712C-82.6436 10.8669 -75.5086 19.3401 -62.8196 26.3685C-51.1261 32.8455 -32.1768 39.3884 -8.30563 33.7787C11.0594 29.2285 19.8211 34.1171 23.761 39.0193C27.5026 43.6751 28.0824 49.7686 26.9407 55.0255C31.7969 52.9723 36.7531 51.8253 41.0384 51.8073C41.0745 51.8073 41.1105 51.8073 41.1466 51.8073C46.8252 51.8073 51.3684 53.6727 54.6509 57.352C58.534 61.7037 60.5314 68.5417 60.5882 77.6756L60.7479 103.35C60.8263 115.959 71.141 126.217 83.7416 126.217H146.355C147.705 126.217 149.02 126.693 150.059 127.556L188.01 159.094L185.302 132.296C185.138 130.667 185.673 129.036 186.769 127.821C187.867 126.606 189.434 125.91 191.07 125.91H194.147C205.191 125.91 214.175 116.918 214.175 105.866V86.2273H174.819C173.995 87.8924 172.998 89.4004 171.834 90.737C169.674 93.2169 166.883 95.1753 163.538 96.5579C159.973 98.0307 155.673 98.8916 150.755 99.1173C143.641 99.4431 137.316 99.6524 131.954 99.7382C129.923 99.7688 128.152 98.564 127.438 96.6653C126.722 94.762 127.26 92.6809 128.809 91.3624C131.271 89.2686 133.956 87.6334 136.789 86.5026C140.338 85.0866 144.126 84.4639 148.049 84.6507C149.91 84.7401 151.632 84.7834 153.313 84.7834H173.897C175.396 81.4181 176.194 77.385 176.3 72.675C176.399 68.317 175.441 65.3804 173.452 63.9463C171.627 62.6305 169.342 62.9058 168.232 63.1531C167.814 63.2785 167.544 63.3444 167.49 63.357C167.116 63.4464 166.74 63.2289 166.63 62.8616C166.521 62.4943 166.717 62.1053 167.078 61.9763C167.119 61.9618 167.395 61.8643 167.834 61.7624C169.575 61.2326 174.134 59.5802 175.315 56.5344C175.897 55.03 175.555 53.3243 174.296 51.4634C173.386 50.1169 171.221 49.0683 167.864 48.3436C165.071 47.7417 161.488 47.3798 157.217 47.2688C149.903 47.0783 143.037 47.7001 142.968 47.7065C142.702 47.7308 142.444 47.6063 142.298 47.3825C142.152 47.1587 142.141 46.8726 142.271 46.6379C149.392 33.757 148.182 25.8099 145.913 21.4113C145.515 20.6406 144.76 20.1505 143.893 20.0991C143.018 20.0477 142.203 20.4502 141.713 21.1758L122.463 49.6747C122.174 50.1016 122.032 50.598 122.05 51.1115C122.128 53.3604 122.227 59.0766 122.004 72.0902C121.909 77.6223 120.39 82.2637 118.362 86.0234V95.2565C118.362 97.3854 116.631 99.1182 114.503 99.1182C112.923 99.1182 111.561 98.213 110.949 96.7564C110.335 95.2971 110.641 93.6862 111.748 92.5536C113.471 90.7911 115.344 88.4916 116.919 85.6516V52.3533C116.919 51.0203 115.835 49.9356 114.503 49.9356H101.189C99.8566 49.9356 98.7726 51.0203 98.7726 52.3533V60.979C101.333 62.5313 103.339 64.3759 104.774 66.5039C108.335 71.7852 108.324 78.7459 104.742 87.1912C103.89 89.1982 101.957 89.7803 100.418 89.4672C98.8809 89.154 97.3298 87.8626 97.3298 85.6841V61.8066C94.5487 60.2444 91.1102 59.0098 87.0341 58.1164C80.1769 56.612 72.9617 56.3999 68.1155 56.4866C66.394 56.5154 64.7716 55.8711 63.547 54.6672C62.3233 53.4642 61.6487 51.8542 61.6487 50.1332V17.0515C61.6487 7.92483 69.0677 0.500244 78.1875 0.500244H196.735C207.148 0.500244 215.619 8.97801 215.619 19.3988V84.7852H355.206C355.604 84.7852 355.927 85.1083 355.927 85.5072C355.927 85.9061 355.604 86.2291 355.206 86.2291H215.619V105.868C215.619 111.607 213.385 117.003 209.33 121.062C205.275 125.12 199.883 127.355 194.147 127.355H191.071C189.841 127.355 188.665 127.879 187.84 128.791C187.016 129.704 186.615 130.928 186.738 132.152L189.624 160.705C189.654 160.997 189.504 161.277 189.245 161.415C189.139 161.472 189.023 161.5 188.906 161.5H188.905ZM146.704 86.0649C138.945 86.0649 133.231 89.497 129.743 92.4643C128.432 93.5788 128.39 95.1031 128.787 96.1581C129.178 97.1968 130.192 98.2969 131.868 98.2969C131.889 98.2969 131.91 98.2969 131.93 98.2969C137.278 98.2112 143.59 98.0027 150.689 97.6769C161.878 97.1643 169.331 93.3938 173.188 86.23H153.312C151.608 86.23 149.864 86.1858 147.98 86.0965C147.549 86.0757 147.124 86.0658 146.705 86.0658L146.704 86.0649ZM116.917 88.4384C115.581 90.4671 114.134 92.1755 112.777 93.5644C111.948 94.4136 111.975 95.4812 112.276 96.1978C112.576 96.9125 113.318 97.676 114.502 97.676C115.834 97.676 116.917 96.5913 116.917 95.2583V88.4384H116.917ZM98.7699 62.6856V85.6841C98.7699 87.1415 99.8115 87.8707 100.703 88.053C101.596 88.2353 102.841 87.9709 103.411 86.6271C106.79 78.661 106.845 72.1624 103.575 67.3116C102.398 65.5663 100.793 64.0221 98.769 62.6856H98.7699ZM175.473 84.7852H214.174V19.3988C214.174 9.77399 206.35 1.94419 196.733 1.94419H78.1857C69.8622 1.94419 63.0898 8.72081 63.0898 17.0515V50.1341C63.0898 51.4643 63.6101 52.7088 64.5561 53.6375C65.503 54.5679 66.7574 55.0661 68.0875 55.0435C73.0104 54.9551 80.3464 55.1717 87.3407 56.7058C91.2175 57.556 94.5514 58.7129 97.3271 60.1668V52.3542C97.3271 50.2252 99.0585 48.4925 101.186 48.4925H114.501C116.628 48.4925 118.359 50.2252 118.359 52.3542V82.6725C119.627 79.6285 120.489 76.0944 120.559 72.0667C120.782 59.0866 120.683 53.3992 120.606 51.1638C120.577 50.3435 120.805 49.5493 121.265 48.8679L140.515 20.3689C141.294 19.2165 142.587 18.5785 143.976 18.6597C145.357 18.7409 146.559 19.5233 147.193 20.7507C148.663 23.6007 149.29 26.9452 149.055 30.6895C148.761 35.3517 147.117 40.5517 144.166 46.1641C146.539 45.9927 151.764 45.6849 157.241 45.8257C167.36 46.0874 173.5 47.7119 175.49 50.6539C177.031 52.9308 177.424 55.0859 176.658 57.0596C175.836 59.1777 173.806 60.6857 171.863 61.6947C172.677 61.8788 173.512 62.2127 174.294 62.7767C176.692 64.505 177.851 67.8468 177.74 72.7093C177.658 76.3381 177.171 79.6285 176.295 82.4884C176.052 83.2799 175.778 84.0461 175.471 84.7843L175.473 84.7852ZM24.6682 57.667C24.1533 57.926 23.6411 58.1958 23.1325 58.4756C17.407 61.627 14.7423 64.5934 14.745 65.6069C14.745 65.68 14.7513 65.7242 14.8667 65.7919C14.9921 65.865 15.3068 65.9868 16.012 65.9868C18.9942 65.9868 21.9728 63.4834 23.9802 59.2896C24.2291 58.7707 24.459 58.2283 24.6691 57.667H24.6682Z" stroke="white" stroke-width="1.41228" mask="url(#path-1-outside-1_507_14523)"/>
</g>
<defs>
<clipPath id="clip0_507_14523">
<rect width="272" height="161" fill="white" transform="translate(0 0.500244)"/>
</clipPath>
</defs>
</svg>
