<svg width="272" height="162" viewBox="0 0 272 162" fill="none" xmlns="http://www.w3.org/2000/svg">
<g clip-path="url(#clip0_507_14515)">
<path d="M142.986 134.5C142.742 134.5 142.5 134.5 142.258 134.498C103.946 134.276 66.3806 116.575 41.7703 87.149C41.4163 86.725 41.4426 86.101 41.8293 85.7085C42.2185 85.316 42.8399 85.2833 43.2655 85.633C58.9296 98.5018 75.1272 111.808 93.9687 120.136C119.677 131.498 154.158 132.33 173.237 108.573C174.359 107.175 175.392 105.718 176.333 104.213C174.756 104.307 173.187 104.368 171.625 104.397C166.96 104.48 162.636 104.259 158.627 103.716C158.295 104.231 157.941 104.734 157.568 105.222C149.675 115.575 134.333 119.377 121.881 114.067C110.014 109.007 101.716 96.4952 101.23 82.9345C100.777 70.2469 107.091 57.212 117.709 48.9176C131.657 38.0227 152.118 36.6967 166.358 45.7636C176.525 52.2376 183.469 63.4848 184.936 75.8528C185.981 84.6631 184.263 93.7312 180.16 101.779C198.379 100.133 217.713 94.6207 238.02 88.8298C238.897 88.5794 239.773 88.3303 240.652 88.08C240.989 87.6962 241.326 87.3075 241.659 86.9188C243.333 84.9637 244.842 82.859 244.565 80.7014C244.382 79.2672 243.423 77.9752 242.371 76.6693C226.662 57.1516 204.87 42.5254 181.01 35.4814C132.836 21.2577 78.1201 38.8946 38.2162 81.504C18.1845 102.895 -13.0632 108.198 -52.1512 96.8336C-81.5132 88.2989 -105.27 73.2323 -105.506 73.0813C-106.003 72.763 -106.15 72.1012 -105.832 71.6031C-105.515 71.1036 -104.853 70.9602 -104.357 71.276C-104.122 71.4257 -80.588 86.3463 -51.5071 94.793C-24.8392 102.539 12.1044 106.265 36.6632 80.0422C77.1196 36.8389 132.661 18.9756 181.618 33.4295C205.889 40.5942 228.057 55.4746 244.037 75.3269C245.238 76.8203 246.434 78.4444 246.687 80.4309C247.001 82.8829 245.85 85.0518 244.323 87.0383C290.757 73.8915 338.125 62.4959 373.696 101.078C374.728 102.198 375.739 103.338 376.737 104.488C377.125 104.933 377.078 105.61 376.632 105.997C376.188 106.386 375.512 106.338 375.126 105.892C374.141 104.758 373.144 103.633 372.126 102.53C336.654 64.0521 288.629 76.6529 241.841 89.9671C217.056 117.921 180.316 134.496 142.986 134.498V134.5ZM55.0227 97.913C78.6336 119.527 110.185 132.171 142.269 132.356C142.506 132.358 142.749 132.359 142.986 132.359C178.571 132.359 213.608 117.051 237.933 91.0842C217.247 96.982 197.563 102.553 178.935 104.035C177.749 106.08 176.402 108.049 174.901 109.917C155.115 134.558 119.563 133.789 93.1062 122.097C79.2249 115.961 66.8175 107.21 55.0214 97.913H55.0227ZM144.818 41.89C135.698 41.89 126.405 44.8415 119.023 50.6072C108.936 58.4865 102.936 70.8444 103.367 82.859C103.823 95.6057 111.6 107.356 122.718 112.098C134.298 117.037 148.551 113.523 155.87 103.925C156.012 103.739 156.152 103.55 156.287 103.36C150.139 102.305 144.762 100.454 140.048 97.7847C134.418 94.598 130.346 90.4275 128.273 85.7249C125.749 79.9956 126.446 73.2926 130.008 69.0441C132.355 66.2462 135.732 64.5994 139.776 64.2798C144.895 63.8747 150.522 65.7505 154.458 69.1725C163.242 76.8089 165.323 91.1283 159.799 101.709C163.451 102.154 167.371 102.338 171.586 102.256C173.59 102.219 175.607 102.126 177.638 101.983C181.997 94.0231 183.863 84.926 182.817 76.1057C181.425 64.3692 174.845 53.7033 165.216 47.5715C159.23 43.7608 152.08 41.8888 144.82 41.8888L144.818 41.89ZM141.183 66.367C140.766 66.367 140.353 66.3821 139.943 66.4148C137.531 66.6048 134.133 67.4552 131.644 70.4217C128.594 74.0588 128.025 79.8598 130.227 84.8593C132.61 90.2627 137.454 93.857 141.099 95.9202C145.822 98.5936 151.263 100.41 157.54 101.395C163.099 91.6025 161.314 77.9676 153.058 70.7903C149.854 68.0062 145.404 66.367 141.184 66.367H141.183Z" fill="white"/>
</g>
<defs>
<clipPath id="clip0_507_14515">
<rect width="272" height="161" fill="white" transform="translate(0 0.5)"/>
</clipPath>
</defs>
</svg>
