<svg width="20" height="20" viewBox="0 0 20 20" fill="none" xmlns="http://www.w3.org/2000/svg">
<path d="M18.3333 10.0001C18.3333 5.39771 14.6023 1.66675 10 1.66675C5.39762 1.66675 1.66666 5.39771 1.66666 10.0001C1.66666 14.6024 5.39762 18.3334 10 18.3334C14.6023 18.3334 18.3333 14.6024 18.3333 10.0001Z" stroke="#0E4A79" stroke-width="1.25"/>
<path d="M16.6667 4.74924C15.8878 4.80538 14.8901 5.10695 14.1983 6.00239C12.9488 7.61976 11.6992 7.75471 10.8662 7.21559C9.61658 6.40691 10.6667 5.09705 9.20008 4.38521C8.24428 3.92126 8.11101 2.65879 8.643 1.66675" stroke="#0E4A79" stroke-width="1.25" stroke-linejoin="round"/>
<path d="M1.66666 9.16675C2.30208 9.7185 3.19205 10.2236 4.24061 10.2236C6.40702 10.2236 6.84031 10.6375 6.84031 12.2932C6.84031 13.949 6.84031 13.949 7.27359 15.1907C7.55542 15.9985 7.65393 16.8062 7.09216 17.5001" stroke="#0E4A79" stroke-width="1.25" stroke-linejoin="round"/>
<path d="M18.3333 11.2102C17.5941 10.7842 16.6667 10.6089 15.7278 11.2837C13.9314 12.5747 12.6928 11.5049 12.1349 12.574C11.3137 14.1478 14.2464 14.6425 11.6667 18.3332" stroke="#0E4A79" stroke-width="1.25" stroke-linejoin="round"/>
</svg>
