<svg width="23" height="23" viewBox="0 0 23 23" fill="none" xmlns="http://www.w3.org/2000/svg">
<path fill-rule="evenodd" clip-rule="evenodd" d="M6.31827 1.68849C6.03788 1.18546 5.58659 0.804724 5.0199 0.687599C4.4473 0.569252 3.87175 0.743823 3.39871 1.12937C1.68235 2.52827 0.589517 4.76955 1.06381 7.12077C1.35536 8.56604 1.84107 9.99202 2.83019 11.7167C4.81526 15.1781 7.92234 18.2869 11.3877 20.2742C13.1124 21.2634 14.5384 21.7491 15.9837 22.0406C18.3349 22.5149 20.5762 21.4221 21.9751 19.7057C22.3606 19.2327 22.5352 18.6571 22.4168 18.0845C22.2997 17.5178 21.919 17.0665 21.4159 16.7861L19.8135 15.8929C19.2233 15.564 18.7266 15.2871 18.2948 15.1062C17.8368 14.9144 17.3851 14.8005 16.8858 14.8526C16.3864 14.9047 15.968 15.1093 15.5594 15.3915C15.1742 15.6575 14.7454 16.0309 14.2357 16.4746L11.6767 18.7025C8.77774 16.9338 6.1688 14.3237 4.40196 11.4277L6.62982 8.8687C7.07352 8.35907 7.44692 7.9302 7.71292 7.54502C7.9951 7.13643 8.19975 6.718 8.25183 6.21864C8.3039 5.71928 8.18998 5.26762 7.99818 4.8096C7.81737 4.37783 7.54049 3.88114 7.21149 3.29094L6.31827 1.68849ZM16.2803 20.5702C15.2547 20.3633 14.2402 20.0497 13.0738 19.4749L15.1896 17.6329C15.7385 17.1551 16.1041 16.8382 16.4118 16.6258C16.7038 16.4241 16.8825 16.3611 17.0414 16.3445C17.2002 16.3279 17.3881 16.3527 17.7154 16.4898C18.0603 16.6342 18.4835 16.8689 19.1191 17.2232L20.6856 18.0964C20.8765 18.2027 20.9337 18.3197 20.9479 18.3881C20.9608 18.4506 20.9599 18.577 20.8123 18.758C19.6886 20.1368 17.9763 20.9124 16.2803 20.5702ZM5.47147 7.9148L3.62949 10.0306C3.05477 8.86422 2.74108 7.84975 2.5342 6.82416C2.19206 5.12811 2.9676 3.41585 4.34638 2.29209C4.52741 2.14454 4.65379 2.14363 4.71629 2.15655C4.78471 2.17069 4.90169 2.22796 5.00807 2.41881L5.88125 3.98532C6.23556 4.62096 6.47018 5.04413 6.6146 5.389C6.75169 5.71636 6.77648 5.90422 6.75992 6.06306C6.74335 6.22189 6.68034 6.40059 6.47866 6.69262C6.26619 7.00028 5.94931 7.36594 5.47147 7.9148Z" fill="white"/>
<path d="M14.4531 2.40128C14.4531 1.98706 14.1173 1.65128 13.7031 1.65128C13.2889 1.65128 12.9531 1.98706 12.9531 2.40128L12.9531 5.20128C12.9531 5.61549 13.2889 5.95128 13.7031 5.95128C14.1173 5.95128 14.4531 5.61549 14.4531 5.20128L14.4531 2.40128Z" fill="white"/>
<path d="M19.1837 4.98239C19.4765 4.68949 19.4765 4.21462 19.1837 3.92173C18.8908 3.62883 18.4159 3.62883 18.123 3.92173L16.1431 5.90163C15.8502 6.19452 15.8502 6.66939 16.1431 6.96229C16.436 7.25518 16.9109 7.25518 17.2038 6.96229L19.1837 4.98239Z" fill="white"/>
<path d="M17.9031 8.65128C17.4889 8.65128 17.1531 8.98706 17.1531 9.40128C17.1531 9.81549 17.4889 10.1513 17.9031 10.1513L20.7031 10.1513C21.1173 10.1513 21.4531 9.81549 21.4531 9.40128C21.4531 8.98706 21.1173 8.65128 20.7031 8.65128L17.9031 8.65128Z" fill="white"/>
</svg>
