<svg width="263" height="181" viewBox="0 0 263 181" fill="none" xmlns="http://www.w3.org/2000/svg">
<path d="M-82 155.268C-82 155.268 55.0443 155.165 57.9517 153.92C60.8596 152.675 64.1824 121.555 67.5048 121.14C70.8281 120.725 86.6118 119.065 87.0267 121.97C87.4421 124.874 88.2729 175.497 86.1962 175.497C84.1193 175.497 105.303 175.082 105.303 177.156C105.303 179.231 110.287 177.571 105.303 179.231C100.318 180.891 43.8296 179.646 43.8296 177.571C43.8296 175.497 42.1682 173.007 44.2451 173.007C46.3221 173.007 62.5208 170.102 59.198 173.007C55.8753 175.912 67.09 140.227 64.5977 141.887C62.1056 143.546 30.5384 143.961 29.7076 141.057C28.8767 138.152 26.7999 80.0612 29.2921 77.5715C31.7843 75.0819 117.764 77.1566 118.594 79.2312C119.425 81.3059 119.425 140.642 117.764 141.472C116.102 142.301 87.442 143.131 89.9346 142.301C92.4268 141.472 112.364 143.961 113.61 138.982C114.856 134.003 116.102 110.767 112.364 110.352C108.626 109.937 33.8611 110.352 32.1995 109.107C30.5383 107.862 31.7843 74.2522 33.8611 83.3806C35.9382 92.5093 29.7075 138.152 33.4457 139.397C37.1838 140.642 65.4282 140.227 65.4282 140.227L69.5818 124.044C69.5818 124.044 84.9501 123.629 85.3656 124.874C85.781 126.119 83.2885 166.783 83.7039 168.028C84.1193 169.273 142.685 168.028 142.685 168.028L143.516 163.879L89.9346 163.049C89.9346 163.049 87.8578 155.165 90.7651 155.165C93.6728 155.165 150.577 156.825 150.577 156.825C150.577 156.825 187.751 162.633 189.828 156.201C191.904 149.771 178.198 97.4887 172.383 98.3184C166.568 99.1484 165.53 119.272 166.568 124.666C167.606 130.061 171.967 148.318 173.629 145.621C175.29 142.924 140.815 147.903 141.439 148.526C142.062 149.148 157.015 158.691 152.653 160.974C148.292 163.256 142.685 161.804 137.908 160.766C133.132 159.729 122.748 167.613 123.37 164.709C123.994 161.804 127.732 158.484 127.732 158.484C127.732 158.484 118.179 167.405 117.971 164.085C117.764 160.766 122.748 157.239 122.748 157.239C122.748 157.239 111.325 167.198 114.441 161.181C117.555 155.165 122.955 151.43 122.955 151.43C122.955 151.43 111.325 164.293 112.571 158.899C113.817 153.505 122.54 145.828 128.563 146.866C134.585 147.903 149.122 148.941 151.408 151.222C153.691 153.505 159.091 160.974 156.184 160.559C153.276 160.144 182.351 160.351 184.428 154.956C186.505 149.562 172.383 144.998 175.914 137.944C179.444 130.89 182.766 132.55 180.275 126.119C177.782 119.687 176.329 100.601 170.099 98.1106C163.868 95.6208 155.976 95.2059 152.446 93.754C148.915 92.3024 146.215 88.9827 146.215 88.9827C146.215 88.9827 149.538 92.5093 144.969 97.6964C140.4 102.883 133.962 102.26 133.754 104.75C133.547 107.239 134.17 119.687 132.924 117.613C131.677 115.538 131.47 103.92 130.847 103.506C130.224 103.09 126.901 104.335 124.824 101.845C122.748 99.3552 120.047 91.2646 120.047 93.3393C120.047 95.4139 120.255 104.957 123.994 106.202C127.732 107.447 128.978 107.032 128.978 108.277C128.978 109.522 134.378 143.339 131.886 139.604C129.393 135.87 138.116 103.713 137.493 105.994C136.87 108.277 142.892 108.069 146.423 105.994C149.953 103.92 149.122 94.1691 149.122 94.1691L145.593 80.6841C145.593 80.6841 141.646 94.9991 132.716 98.3184C123.786 101.638 117.764 84.6256 116.724 78.8163C115.687 73.0073 115.478 66.7832 116.933 65.5386C118.386 64.2937 120.463 66.3683 124.616 66.3683C128.77 66.3683 132.508 62.842 135.624 62.842C138.738 62.842 140.4 65.5386 143.516 67.6132C146.63 69.688 145.177 79.4394 149.331 83.1738C153.484 86.9082 157.222 88.36 158.053 90.8498C158.884 93.3394 162.622 98.3184 163.245 94.9991C163.868 91.6795 159.715 86.4934 156.807 81.5142C153.9 76.5348 153.484 64.0868 150.992 61.3894C148.5 58.6927 137.077 57.4478 129.393 57.4478C121.709 57.4478 115.063 62.219 114.441 60.3525C113.817 58.4848 116.933 56.41 121.086 55.58C125.24 54.7503 138.739 53.9204 144.346 55.1653C149.953 56.41 153.276 59.3146 151.615 58.8997C149.953 58.4848 149.953 53.7134 142.27 49.5641C134.585 45.4148 123.163 48.5263 119.425 51.016C115.687 53.5054 116.309 61.1825 114.856 66.9915C113.402 72.8005 110.287 79.2315 111.118 81.0992C111.948 82.9661 115.687 75.9121 116.309 80.4765C116.933 85.0408 113.817 148.526 113.195 148.733C112.571 148.941 116.309 155.165 112.779 152.467C109.248 149.771 103.848 143.339 103.433 146.036C103.018 148.733 109.041 151.43 104.057 152.052C99.0723 152.675 83.7039 152.26 89.3109 153.712C94.9187 155.165 242.994 153.92 240.917 155.165C240.917 155.165 237.594 117.821 234.686 101.015C231.779 84.2109 234.064 47.4895 225.548 44.1698C217.034 40.8505 211.219 49.7711 209.765 65.1238C208.312 80.4765 198.759 96.037 198.55 98.1109C198.343 100.186 204.573 105.788 203.119 102.468C201.666 99.1485 201.873 95.4142 195.02 99.9785C188.166 104.543 159.922 106.617 160.337 107.239C160.753 107.862 167.398 113.878 167.814 118.236C168.229 122.592 163.037 119.688 163.453 118.651C163.868 117.613 159.715 117.613 158.053 119.688C156.392 121.762 156.807 122.8 153.692 123.007C150.577 123.215 147.254 118.858 149.123 119.688C150.992 120.517 154.107 124.46 150.992 124.252C147.877 124.045 144.762 121.97 143.723 119.066C142.685 116.161 145.8 118.028 145.8 119.272C145.8 120.517 147.67 124.46 144.969 123.215C142.27 121.97 139.985 115.953 141.231 114.708C142.477 113.463 146.63 112.012 145.177 113.049C143.723 114.086 131.678 121.347 131.055 118.443C130.432 115.538 141.646 109.107 145.384 108.484C149.123 107.862 164.491 108.069 164.491 108.069C164.491 108.069 175.083 118.651 171.137 118.443C167.191 118.236 204.989 118.236 211.842 115.538C218.696 112.842 228.664 68.6514 228.664 60.1446C228.664 51.6389 227.418 41.8875 224.718 38.5679C222.019 35.2485 218.903 38.1532 214.542 31.0991C210.18 24.0451 205.819 21.5554 204.365 18.8588C202.912 16.1614 202.497 14.0867 193.151 13.2568C183.806 12.4271 169.268 17.6131 165.53 16.7842C161.792 15.9545 163.038 13.0489 169.06 11.182C175.083 9.31542 191.282 7.65464 196.889 8.48541C202.497 9.31543 202.081 13.8797 200.836 12.8417C199.589 11.8051 198.55 4.128 188.997 1.63864C179.444 -0.851024 168.229 4.543 166.361 7.44767C164.491 10.3523 167.607 18.4429 164.906 23.0073C162.207 27.5716 159.715 32.1368 160.753 34.6265C161.792 37.1162 168.645 40.6424 169.475 39.3977C170.306 38.1531 166.152 30.0622 168.022 25.9128C169.891 21.7634 169.268 21.3485 175.29 22.1784C181.314 23.0073 186.09 18.651 190.036 20.3108C193.981 21.9704 193.566 22.8004 200.212 28.4013C206.858 34.0035 215.788 42.0952 215.373 37.7381C214.958 33.3807 201.666 24.4601 200.42 25.9129C199.174 27.3648 199.796 34.8334 198.135 35.2485C196.474 35.6635 196.682 31.3072 196.889 33.1738C197.097 35.0416 193.566 48.9412 184.843 50.3943C176.121 51.8459 172.176 37.7381 171.552 40.8506C170.93 43.9621 173.006 48.9412 176.536 50.3943C180.067 51.8459 182.767 50.3943 183.182 52.2609C183.597 54.1286 185.259 67.1986 185.883 63.4642C186.505 59.7296 183.182 53.5056 186.505 51.8459C189.828 50.1862 191.489 51.0162 194.397 47.2816C197.305 43.5472 198.343 30.8923 200.627 34.4185C202.912 37.9459 203.535 44.7919 199.174 49.5642C194.812 54.3355 187.129 55.7883 186.921 57.2402C186.713 58.693 189.413 74.0453 186.713 70.726C184.013 67.4066 183.182 55.9952 181.105 55.3733C179.029 54.7505 176.952 57.8629 172.383 52.8836C167.814 47.9046 166.983 43.9621 166.983 42.5103C166.983 41.0575 165.322 40.2278 163.453 45.2068C161.583 50.1862 155.561 72.1779 155.561 74.4603C155.561 76.7419 161.792 90.85 165.322 90.0199C168.853 89.1903 171.345 79.0246 171.552 76.7419C171.76 74.4603 165.322 58.0698 165.737 63.672C166.153 69.2732 178.822 107.239 179.859 98.7337C180.898 90.228 178.613 70.726 182.352 77.157C186.09 83.5891 183.391 99.3556 190.036 88.7753C196.682 78.1951 196.889 60.1446 206.442 50.809C215.996 41.4725 227.003 50.1862 229.702 80.2697C232.403 110.352 232.61 147.073 229.08 140.849C225.549 134.625 216.204 116.368 215.165 123.422C214.127 130.476 217.034 147.073 215.58 146.451C214.127 145.828 201.251 133.795 203.12 141.057C204.989 148.318 202.704 149.563 215.58 152.052C228.456 154.542 263 153.832 263 153.832" stroke="white" stroke-width="1.24106" stroke-miterlimit="10" stroke-linecap="round" stroke-linejoin="round"/>
</svg>
