<svg width="218" height="203" viewBox="0 0 218 203" fill="none" xmlns="http://www.w3.org/2000/svg">
<path d="M1 200.429C1 200.429 53.7464 197.482 44.8493 202.078C35.8974 206.703 41.9328 184.109 45.2131 164.145C48.4235 144.598 51.0374 128.041 48.5939 125.79C46.1547 123.544 55.2054 129.701 54.006 127.923C49.231 120.847 49.5725 111.318 55.7885 105.285C57.3348 103.784 59.3565 102.669 61.4903 102.671C60.3388 103.299 58.903 103.006 57.7212 102.445C56.5415 101.883 55.4788 101.074 54.2496 100.634C53.1509 100.241 51.9639 100.161 50.8503 99.8123C49.7376 99.4645 48.6299 98.7457 48.307 97.6178C47.7536 95.688 49.6685 93.9985 51.3418 92.8932C53.0133 91.7897 54.9133 90.1001 54.3449 88.1899C53.5859 85.6371 49.0676 85.4544 48.9133 82.799C53.9769 82.9861 59.053 80.2902 61.7216 76.0105C60.3475 82.9569 56.7073 89.4963 51.4591 94.3966C50.6799 95.124 49.8451 95.8283 48.854 96.215C47.9054 96.5848 46.8685 96.6406 45.8544 96.6246C44.0198 96.5973 42.1894 96.3519 40.4158 95.8954C40.5551 95.2105 40.6945 94.5254 40.8331 93.8413C44.6164 93.0796 48.3624 95.0604 51.4884 97.299C54.9848 99.8035 60.7923 105.072 65.4694 103.673C69.5729 102.445 72.4032 97.5137 75.4618 94.8177C78.6457 92.0121 78.3821 86.6054 81.4539 87.3371C84.5268 88.0697 82.6804 95.9115 81.5978 97.7554C80.5131 99.6038 81.5978 97.7554 80.5131 99.6038C79.4249 101.457 75.7804 105.334 76.3328 107.892C76.8862 110.457 86.6349 122.333 84.7165 123.558C82.7953 124.786 71.3071 115.164 74.8407 116.14C78.3758 117.118 92.4081 127.486 86.7038 128.591C80.9871 129.698 72.7817 121.862 74.6535 122.571C76.5261 123.28 89.7873 132.163 85.762 132.898C81.731 133.633 75.3514 127.559 75.3514 127.559C75.3514 127.559 84.2646 133.718 82.1263 134.736C79.9854 135.755 70.7856 131.962 66.7394 126.403C62.7152 120.873 51.1784 119.619 52.7308 117.738C54.2796 115.861 61.274 119.964 59.4157 124.641C57.5472 129.345 55.2054 129.701 44.093 122.394C33.0475 115.131 26.1878 105.716 28.0845 97.9565C29.9647 90.2642 46.5825 63.3271 49.8671 58.4058C53.1323 53.5136 54.4244 51.764 56.9552 54.46C59.4924 57.1629 64.5683 74.5779 62.4108 71.8421C60.2585 69.1144 56.6375 52.2487 59.4985 51.7595C62.356 51.2706 71.4915 50.6252 74.1662 49.1369C76.8358 47.6523 78.1356 44.5359 78.1356 44.5359C78.1356 44.5359 77.1535 50.6438 81.7485 52.6124C86.3506 54.5826 90.1985 54.3312 90.9467 57.1568C91.6986 59.9913 93.099 71.1501 93.1512 68.5152C93.2033 65.8873 90.9263 58.1569 92.9729 57.0342C95.0176 55.9122 97.0401 55.7903 98.484 54.0505C99.9242 52.3142 99.979 48.9428 100.777 49.3692C101.575 49.7965 102.908 55.0161 101.466 56.9574C100.02 58.903 94.7476 59.505 94.7052 61.7118C94.6637 63.924 96.0043 79.6256 94.4015 77.7231C92.8026 75.8244 91.4082 64.2048 89.8145 62.7341C88.2225 61.265 83.1157 62.4816 79.5424 59.3293C75.979 56.1867 75.4247 54.3655 75.5262 50.9794C75.6268 47.6063 77.3246 44.7022 75.6673 46.2203C74.0073 47.7414 62.632 49.2898 58.7502 50.1353C54.7173 51.0147 60.4437 45.4153 61.1257 44.6853C64.4915 41.08 67.034 36.7388 66.9713 31.7159C66.9307 28.4239 68.0137 24.4738 68.6473 21.2719C71.1588 8.59376 87.4636 8.48088 98.2299 10.8741C104.51 12.2696 105.453 15.3522 105.867 13.8453C106.281 12.3419 106.305 10.4459 100.238 8.49242C94.1774 6.54235 85.3192 6.74356 79.7603 8.21963C74.1875 9.69901 68.5475 12.7058 70.9347 12.4215C73.3199 12.1373 72.4604 8.11006 75.5165 5.01697C78.5612 1.93717 86.8777 -0.72352 94.0664 2.39258C105.875 7.51151 105.572 19.7059 106.637 30.3396C106.867 32.6435 107.125 33.4309 107.98 35.6157C108.901 37.9735 110.52 40.101 111.034 42.5763C111.441 44.5403 111.117 46.5567 111.208 48.5595C111.333 51.3138 113.151 50.8844 114.758 53.2C112.46 51.331 109.284 52.6395 106.994 50.777C103.22 47.7085 103.703 39.7151 104.389 35.3579C104.728 33.2049 106.325 31.631 105.506 29.3499C105.044 28.0655 104.211 28.4398 103.922 27.1138C103.589 25.5947 103.978 24.0438 103.979 22.5042C103.98 20.9672 103.402 19.2044 101.931 18.6015C100.442 17.9908 98.8231 18.8355 97.4462 19.599C94.9877 20.9637 92.0402 22.1705 89.339 21.1844C87.3233 20.4482 85.7251 18.5645 83.5868 18.4699C81.9711 18.3994 80.4929 19.4348 79.6272 20.7465C78.3724 22.6489 78.6105 25.0066 77.5764 26.9276C76.9568 28.0779 75.6888 27.4536 74.816 28.4478C72.728 30.8222 71.505 33.2974 70.7442 36.3793C69.3499 42.0234 64.8456 44.0195 67.802 40.19C70.7442 36.3783 75.4364 33.8244 75.8829 32.2823C76.3294 30.7419 76.9914 28.6305 76.3294 30.7419C75.6658 32.8581 77.7185 38.0238 78.3151 38.2436C78.9107 38.4635 78.459 33.1634 78.3979 35.3094C78.3372 37.4605 79.7615 44.0071 85.3079 47.5832C90.8718 51.1706 94.5148 50.5166 97.9955 47.2821C101.462 44.0619 102.936 39.2084 102.725 39.9844C102.514 40.7604 102.613 47.6581 104.776 51.1098C106.713 54.1979 118.597 54.2427 123.407 65.3769C128.668 77.5525 133.17 99.1082 133.84 109.526C134.674 122.474 137.273 159.546 133.013 161.65C130.225 163.027 117.501 162.396 116.407 162.14C113.916 161.557 129.397 159.199 130.88 161.135C130.88 161.135 133.253 177.206 130.228 182.583C127.184 187.992 114.178 184.674 116.363 182.876C117.533 181.912 116.747 180.025 116.334 170.797C115.977 162.829 120.266 165.592 118.534 156.269C114.872 136.559 115.236 77.6736 115.974 88.7935C116.721 100.05 119.551 111.94 113.147 132.727C106.589 154.01 101.103 175.748 107.593 172.349C114.054 168.967 121.799 160.753 118.328 168.655C114.826 176.627 96.5597 178.044 100.874 178.633C105.188 179.221 130.436 183.327 126.071 189.585C121.676 195.888 47.1627 201.738 60.8076 201.666C74.4226 201.594 121.733 197.587 113.459 199.667C105.156 201.754 97.1243 206.729 104.988 206.958C112.845 207.187 352 206.401 352 206.401" stroke="white" stroke-width="0.981768" stroke-miterlimit="10" stroke-linecap="round" stroke-linejoin="round"/>
</svg>
