<svg width="208" height="218" viewBox="0 0 208 218" fill="none" xmlns="http://www.w3.org/2000/svg">
<path d="M3.07919 238.718C2.58286 237.75 2.37543 237.5 2.50194 236.42C2.68271 234.876 13.6289 230.465 18.2737 229.711C19.3535 229.536 19.5917 229.931 19.7479 230.641C20.1635 232.531 20.3243 235.082 20.2248 237.014C20.2059 237.381 20.1665 237.776 19.9245 238.053C19.7141 238.294 19.391 238.398 19.0833 238.487C16.6389 239.195 14.106 238.993 11.562 239.079C9.57764 239.147 7.32729 238.895 6.10585 237.334C5.94872 237.133 5.80784 236.892 5.83854 236.639C5.90092 236.126 9.1901 233.411 11.1162 231.684C5.39107 225.904 10.3671 171.634 11.1089 152.15C11.7629 134.973 12.7784 113.131 13.7692 92.671C11.3671 88.7525 8.27937 85.2977 5.70512 81.4895C3.13086 77.6813 1.03135 73.3409 1.00035 68.7484C0.97877 65.5536 1.95941 62.4371 3.12812 59.4623C4.52728 55.901 6.21108 52.451 8.15831 49.1557C10.4963 49.6554 12.6395 51.0141 13.9975 52.546C15.0696 50.687 16.4736 49.019 18.1237 47.6439C18.5079 47.3238 18.9432 46.9422 18.9262 46.4433C18.9025 45.7448 18.0474 45.4208 17.3497 45.3554C14.328 45.0721 11.2013 46.3905 9.30028 48.7497C9.48925 48.9068 9.67829 49.0639 9.86726 49.221C9.86726 49.221 10.221 48.5034 9.89296 48.7579C12.0641 43.1848 13.7331 39.168 16.8286 33.6601C12.676 29.3086 7.7543 25.6888 2.72 22.6207C8.669 22.1973 14.5995 21.5152 21.5644 21.1995C24.1696 15.776 27.3827 8.83701 29.9879 3.41343C33.45 8.32693 35.6915 15.1846 37.7824 20.5184C44.7485 20.1936 51.7417 20.4472 58.6657 21.2755C53.3839 24.3335 48.2153 29.1013 44.1694 33.3916C47.1998 40.0948 48.2822 46.5508 51.0619 53.3612C40.2692 46.8513 39.4012 45.9209 30.4842 41.1007C24.9644 45.003 19.8518 48.8095 14.4555 53.3346C13.2202 53.9873 12.7075 55.4527 12.2747 56.7783C10.999 60.6855 9.50126 64.5205 7.79101 68.259C7.54559 68.1447 7.38572 67.8695 7.40837 67.6003C8.22504 67.7055 8.77228 68.4627 9.22583 69.1481C12.2798 73.7638 15.6861 78.1476 19.5753 83.1011C18.0372 86.1539 16.4576 89.5784 17.4031 92.8621C17.9035 94.6003 19.0622 96.0641 19.8648 97.6857C20.8361 99.6484 21.2812 101.867 21.142 104.051C21.1031 104.661 21.0117 110.25 21.6071 110.108C21.8433 104.922 23.1659 95.0749 24.922 90.188C25.3526 88.9897 25.8353 87.7507 25.7015 86.4849C25.6028 85.552 25.1761 84.6908 24.7948 83.8334C22.6589 79.0296 24.3683 73.826 24.8666 68.5948C24.9032 68.2102 24.9526 67.8103 25.1646 67.487C25.4006 67.1268 25.8039 66.9143 26.2019 66.7481C27.7508 66.1009 29.4543 65.9292 31.1316 65.8463C33.8509 65.712 36.5808 65.7924 39.2874 66.0866C40.5652 66.2255 42.8156 66.9335 43.0362 65.6707C43.3083 64.1137 40.2525 64.3142 38.6681 64.3575C32.7007 64.5204 26.5516 64.8543 21.1617 67.4134C20.7601 67.6042 20.292 67.9949 20.486 68.3941C20.6538 68.7395 21.2087 68.6898 21.4602 68.3992C21.7117 68.1086 21.751 67.6983 21.8027 67.3179C22.3599 63.2197 25.8669 59.7688 29.9457 59.0199C34.0246 58.271 38.4043 60.1259 40.6481 63.755C43.3877 70.4214 41.3739 78.0771 42.9678 83.9444C48.4146 79.8292 53.7941 66.4684 54.8276 71.5918C53.8981 71.3657 53.7364 70.0373 53.7364 69.0832C53.7364 64.6895 52.1453 64.2596 50.9028 56.1046C52.0086 54.359 53.4861 52.8488 55.2087 51.7033C53.3601 49.29 50.2593 47.888 47.2209 48.0919C46.7667 48.1224 46.2925 48.1951 45.9288 48.4681C45.1308 49.0673 45.2541 50.3635 45.8684 51.1489C46.4829 51.9344 47.4258 52.374 48.2651 52.9143C49.1043 53.4545 49.9217 54.2246 50.0016 55.2175C51.1051 54.2345 52.2086 53.2515 53.3121 52.2686C53.749 51.8793 54.2804 51.4623 54.8548 51.577C55.3052 51.667 55.6222 52.059 55.8953 52.4273C62.9204 61.9006 60.9914 74.6959 60.3415 75.973C53.0568 90.288 45.3493 96.1055 45.0701 97.8853C44.7649 99.8298 44.5658 108.374 43.1797 109.775C40.6541 106.404 41.195 95.6343 38.9218 92.0899C38.4697 91.385 37.9397 90.7149 37.6571 89.927C37.1211 88.4335 37.5586 86.7674 38.204 85.3177C38.8496 83.8677 39.3769 83.2617 36.8841 73.3525C36.5411 71.989 38.666 67.9269 38.0987 66.6401C37.9943 66.4035 37.8772 66.1573 37.6652 66.0085C37.2078 65.6876 36.5625 65.9767 36.1686 66.3726C35.7747 66.7685 35.468 67.2805 34.9617 67.5174C33.5212 68.1915 31.9343 66.1723 30.42 66.6598C29.9853 66.7998 29.6363 67.1329 29.2072 67.289C27.809 67.7975 25.9774 66.3499 24.8983 67.3718C24.4804 67.7677 24.3911 68.3902 24.3455 68.9632C24.1338 71.6265 24.3543 74.3523 25.2667 76.8643C26.179 79.3764 27.8159 81.6664 30.0629 83.1217C30.5194 83.4173 31.0171 83.6836 31.5595 83.7297C32.4282 83.8035 33.2374 83.3053 33.9215 82.7663C35.8982 81.2089 37.4561 79.1276 38.4697 77.5551C38.1699 79.1322 38.4657 80.7587 38.3731 82.3613C38.2805 83.9638 37.6385 85.722 36.1651 86.3686C34.9588 86.8979 33.2834 86.6701 32.5829 87.7832C32.3206 88.2001 32.2768 88.7129 32.24 89.2037C31.7238 96.0866 30.3094 102.951 30.6913 109.852C30.7885 111.608 32.8927 111.236 31.6871 89.4508C31.6676 89.0996 31.6365 88.719 31.4012 88.4572C31.2225 88.2584 30.9574 88.1651 30.704 88.0792C28.6176 87.3727 26.5311 86.6661 24.6163 86.9845C24.1975 87.6154 24.8862 88.4517 25.6189 88.6482C26.3516 88.8448 27.1574 88.7168 27.8588 89.0053C29.4629 89.6652 29.5185 91.8697 29.3605 93.5928C28.8283 99.3938 28.9172 105.251 29.6252 111.034C29.7303 111.893 30.1041 112.985 30.9718 112.971C31.6796 112.959 32.0932 112.183 32.3091 111.511C34.4116 104.961 32.424 97.7487 33.8161 91.013C33.9382 90.4221 34.094 89.8192 34.4539 89.3343C35.2116 88.3135 36.6151 88.0934 37.8212 87.6858C39.6954 87.0524 41.3441 85.7754 42.4232 84.1214C44.2676 86.5877 42.9664 90.2877 44.3814 93.0217C44.776 93.7842 47.1891 93.8256 47.5964 94.5815C48.2679 95.828 50.3338 85.4479 59.3501 231.309C59.3757 231.723 28.1781 235.407 12.8496 233.268C12.3317 233.196 11.7614 233.091 11.4406 232.68C11.246 232.43 11.1786 232.107 11.1188 231.796C9.37992 222.763 9.43683 213.39 11.2853 204.379C12.0701 200.553 13.1904 196.754 15.1239 193.358C15.52 192.662 16.0457 191.918 16.8386 191.796C18.1945 191.588 19.0059 193.23 19.339 194.557C20.4671 199.052 21.3242 203.615 21.9042 208.212C22.4635 212.645 22.7939 217.218 24.7077 221.258C26.6214 225.298 30.5937 228.754 35.1718 228.66C42.3821 229.749 49.498 230.095 56.4144 232.401C58.5632 233.117 62.6636 234.692 64.2837 236.271C64.6078 236.587 64.9219 236.972 64.9297 237.424C64.9357 237.771 64.7546 238.099 64.5154 238.351C63.7603 239.146 62.5475 239.25 61.4505 239.303C58.2013 239.46 47.3865 239.128 46.2449 238.772C45.1033 238.417 43.4047 232.698 45.3129 231.743C46.6444 231.077 48.1925 231.034 49.6823 231.031C51.6323 231.026 54.1218 232.126 56.0478 232.43C63.7881 233.65 61.9601 237.766 63.6433 239.04C65.2587 240.263 89.6902 239.97 94.5517 240.279C94.0542 239.185 94.5599 237.841 95.4461 237.027C96.3322 236.213 97.5182 235.819 98.6766 235.489C101.562 234.668 104.523 234.11 107.511 233.825C108.176 233.761 108.872 233.716 109.487 233.976C111.766 234.941 111.073 239.43 110.449 240.068C110.185 240.338 109.795 240.437 109.425 240.517C106.306 241.191 103.083 241.384 99.9056 241.087C98.9316 240.996 97.9141 240.84 97.1336 240.252C96.3532 239.664 95.9178 238.511 96.4284 237.679C96.6813 237.267 97.1124 237.002 97.5338 236.763C99.5706 235.612 101.76 234.728 104.026 234.143C103.112 234.274 102.231 233.618 101.805 232.8C101.379 231.982 101.308 231.033 101.246 230.114C100.775 223.185 103.347 166.18 104.582 158.938C105.196 142.173 105.627 125.402 105.875 108.629C105.938 104.36 105.999 100.022 106.476 95.5638C102.5 88.9935 98.7433 82.2915 95.2135 75.4725C94.3664 73.8362 93.5189 72.1502 93.2973 70.3221C93.1332 68.9691 93.3209 67.5995 93.554 66.2565C94.7663 59.2726 97.229 52.5065 100.791 46.373C103.183 46.5079 105.485 47.7751 106.613 49.9379C108.241 48.3561 109.87 46.7744 111.498 45.1926C111.758 44.9398 112.033 44.6587 112.08 44.2995C112.176 43.567 111.319 43.097 110.594 42.945C108.142 42.4309 105.474 43.0633 103.517 44.6222C102.978 45.0515 102.451 45.6534 102.539 46.3355C102.906 46.4183 97.1236 50.6201 97.7752 49.4136C100.703 43.993 106.506 30.0453 107.595 29.4072C103.251 27.3288 96.3701 23.1833 92.0496 20.1473C97.1503 19.8957 104.986 18.6738 112.742 17.1582C114.81 12.0754 119.877 5.49421 122.745 0.813477C124.962 5.40942 129.029 12.5637 130.674 17.3927C136.032 17.6726 145.34 20.8318 150.698 21.1116C145.985 24.0598 140.308 26.0773 135.482 29.3394C137.295 36.1116 139.584 43.0143 141.196 49.0341C134.727 46.5732 126.093 40.7472 121.037 36.5438C117.367 39.0149 115.095 41.3785 111.416 44.235C110.576 45.6653 109.683 47.151 108.274 48.031C107.895 48.2673 107.479 48.4609 107.178 48.79C106.842 49.1572 106.689 49.6506 106.548 50.127C104.647 56.5498 103.107 63.0762 101.833 69.6514C101.779 69.9314 101.719 70.2248 101.536 70.4438C101.353 70.6629 101.003 70.7721 100.775 70.6008C100.546 70.4294 100.646 69.9654 100.932 69.9761C102.938 72.5242 106.411 78.1987 113.334 85.7627C112.599 87.7872 111.853 89.877 111.95 92.0281C112.009 93.3239 112.372 94.5843 112.734 95.8304C113.738 99.2919 114.742 102.754 115.746 106.215C116.264 101.072 116.782 95.929 117.3 90.786C117.419 89.6103 117.537 88.4154 117.319 87.254C117.144 86.3246 116.761 85.4498 116.444 84.5585C114.59 79.341 115.04 73.6274 115.512 68.1122C122.001 67.3917 128.548 67.1984 135.069 67.5348C135.011 66.2963 133.339 65.9677 132.096 66.0057C130.075 66.0677 128.055 66.1296 126.034 66.1916C121.717 66.3239 117.364 66.4609 113.167 67.4728C112.746 67.5741 112.284 67.7155 112.067 68.0885C111.849 68.4616 112.137 69.0841 112.557 68.9815C113.098 64.502 116.806 60.5875 121.26 59.7938C125.714 59 130.552 61.3914 132.419 65.7956C134.095 72.5397 135.764 79.6863 133.722 86.329C133.837 85.0917 134.725 84.0826 135.569 83.1685C140.125 78.2338 142.705 74.5113 147.261 69.5766C147.438 69.3852 147.641 69.1805 147.902 69.164C148.162 69.1476 148.427 69.4591 148.268 69.6652C147.467 69.728 146.911 68.9112 146.544 68.1988C144.212 63.671 144.103 57.8035 141.162 52.3302C142.422 51.1171 143.894 50.1245 145.492 49.4113C144.939 46.8158 142.044 45.3384 139.385 45.2265C138.389 45.1846 137.37 45.2853 136.455 45.6795C136.171 46.5618 136.964 47.3936 137.678 47.9857C139.072 49.1406 140.466 50.2955 141.86 51.4503C142.963 50.7069 144.066 49.9635 145.169 49.2201C149.566 54.052 152.372 60.0778 155.111 66.0023C155.468 66.7728 155.83 67.5645 155.891 68.4109C155.947 69.1983 155.739 69.9798 155.491 70.7296C154.192 74.6563 151.799 78.1211 149.316 81.4328C146.524 85.157 143.578 88.767 140.443 92.289C137.403 96.0765 136.373 101.041 135.435 105.802C134.587 105.992 133.977 105.021 133.679 104.207C132.689 101.5 131.968 98.6952 131.529 95.8473C131.264 94.1224 131.09 92.3429 130.319 90.7763C129.804 89.7294 129.036 88.8136 128.591 87.735C128.096 86.5344 128.032 85.1617 128.413 83.9203C128.914 82.2899 130.133 80.9423 130.575 79.2952C131.25 76.7832 130.004 74.1087 130.171 71.7103C129.894 70.2131 129.616 68.716 129.338 67.2188C127.522 68.4546 125.133 68.8126 123.033 68.1637C122.777 68.0847 122.503 67.9911 122.249 68.0733C121.8 68.218 121.685 68.7877 121.386 69.1508C120.767 69.9025 119.553 69.6108 118.694 69.1499C117.835 68.689 116.855 68.1048 115.954 68.4786C115.039 68.8583 114.767 70.0096 114.719 70.9965C114.506 75.3924 116.429 79.8427 119.779 82.7082C120.425 83.261 121.17 83.7762 122.02 83.8323C122.653 83.874 123.276 83.6537 123.845 83.3749C126.486 82.0825 128.287 79.585 129.977 77.1843C128.316 79.3142 127.485 82.0715 127.693 84.7618C127.729 85.2239 127.792 85.7055 127.624 86.1376C127.079 87.5388 124.885 87.1886 123.753 88.1814C122.541 93.6574 121.98 104.5 123.483 109.594C124.165 111.907 124.252 101.25 122.507 89.3991C120.534 89.4219 118.557 88.8861 116.545 88.5491C116.235 89.603 117.858 89.9546 118.861 90.4091C120.841 91.3063 120.949 94.008 120.909 96.1764C120.808 101.772 121.753 107.386 123.683 112.641C126.098 110.651 126.582 107.15 126.368 104.033C126.154 100.916 125.424 97.7574 126.095 94.7057C126.137 94.5157 126.192 94.3126 126.345 94.1916C126.526 94.0476 126.784 94.0652 127.014 94.0899C130.719 94.4872 134.424 94.8846 138.129 95.2819C139.955 95.4778 141.162 90.6827 141.16 90.9753C141.086 99.5481 140.252 116.455 141.459 125.18C144.633 162.269 146.186 194.141 147.6 231.896C135.555 234.405 123.322 236.011 111.037 236.697C109.202 236.799 107.294 236.869 105.601 236.156C101.508 234.432 100.496 229.138 100.61 224.709C100.754 219.125 101.77 213.564 103.61 208.289C104.096 206.894 105.347 205.212 106.668 205.879C107.24 206.167 107.523 206.81 107.743 207.41C108.981 210.791 109.592 214.399 109.535 217.998C109.485 221.136 108.956 224.42 110.19 227.307C112.075 231.715 117.378 233.579 122.174 233.885C126.97 234.191 131.902 233.454 136.514 234.801C136.926 234.921 137.384 235.105 137.529 235.507C137.627 235.775 137.556 236.071 137.52 236.354C137.251 238.466 139.087 240.385 141.138 240.977C143.19 241.569 146.597 241.625 148.694 241.223C149.297 241.108 149.964 240.952 150.307 240.443C150.52 240.127 150.565 239.727 150.555 239.346C150.429 234.522 145.952 230.231 142.231 233.144C140.831 234.24 140.39 235.38 139.776 237.046C139.162 238.713 139.704 240.934 141.36 241.587C142.05 241.859 142.818 241.826 143.559 241.789C148.767 241.531 255.792 241.273 261 241.014" stroke="white" stroke-width="1.19" stroke-miterlimit="10" stroke-linecap="round" stroke-linejoin="round"/>
</svg>
