<svg width="252" height="215" viewBox="0 0 252 215" fill="none" xmlns="http://www.w3.org/2000/svg">
<path d="M1 231C13.3383 230.182 25.659 229.092 37.9499 227.733C42.1478 227.268 46.4475 226.739 50.195 224.802C52.8034 223.451 55.0447 221.467 57.6864 220.184C63.4004 217.412 70.7668 217.108 75.4451 221.394C78.6445 224.323 76.4628 226.118 74.9272 226.704C67.7415 229.448 58.0246 232.787 54.3515 226.047C51.8206 221.401 58.4 220.055 63.4305 218.373C68.4595 216.691 73.8684 216.647 79.1705 216.526C93.9485 216.19 108.708 217.191 124.813 215.842C123.109 196.316 121.405 174.726 119.701 155.2C144.269 158.202 168.835 161.206 193.403 164.206C195.028 164.405 196.786 164.579 198.203 163.759C199.845 162.809 218.113 115.457 222.3 41.3682C222.356 40.3621 222.377 39.2502 221.734 38.4738C221.094 37.7017 220.004 37.5105 219.009 37.3702C213.17 36.5443 207.331 35.7188 200.208 36.8926C200.719 33.5649 201.228 30.2383 201.738 26.9105C197.791 26.6432 193.844 26.378 189.896 26.1124C191.724 22.1596 188.942 16.8472 184.643 16.0819C180.346 15.3196 175.891 19.3452 176.235 23.6819C172.262 23.5894 168.291 23.4946 164.32 23.4025C163.083 28.8787 161.847 34.3561 160.611 39.8322C173.029 40.5688 185.447 41.3061 197.866 42.0411C197.983 39.6797 198.102 37.3179 198.221 34.9549C176.614 33.5813 154.962 32.8751 133.31 32.8365C129.218 52.8187 125.123 75.5519 122.216 95.0016C126.833 100.303 134.851 105.451 135.392 106.254C135.958 107.094 142.167 120.2 144.885 127.853C142.019 127.351 139.168 126.778 136.331 126.137C138.069 124.356 139.638 122.411 141.01 120.339C142.974 123.014 144.592 125.939 145.815 129.02C138.523 126.981 131.92 125.628 124.626 123.588C123.546 123.287 122.454 122.978 121.488 122.41C120.488 121.822 119.669 120.98 118.862 120.15C115.552 116.741 98.4346 104.389 94.5921 100.793C93.5712 100.175 92.5509 99.5583 91.5303 98.9403C95.2297 99.2114 99.0173 97.4484 101.18 94.4441C101.489 94.0146 101.779 93.4903 101.627 92.9839C101.475 92.4694 100.933 92.1885 100.437 91.9794C96.2905 90.2355 91.6823 89.5958 87.2155 90.1435C88.3286 90.0265 89.2962 89.0726 89.4262 87.9634C88.6144 86.7575 86.7199 87.2051 85.4991 87.9962C84.2787 88.7905 82.9377 89.8501 81.5376 89.451C84.2027 92.6617 82.7377 100.714 88.5341 101.388C89.2355 101.155 89.9358 100.921 90.6372 100.688C84.9566 100.41 75.7892 100.108 70.1966 101.145C69.139 101.342 68.0328 101.586 67.2265 102.299C66.3164 103.102 65.9603 104.345 65.6565 105.519C60.7145 124.607 61.5693 144.984 61.3924 164.695C61.2569 179.865 59.321 183.609 55.1732 213.991C54.5864 218.288 60.7243 207.335 62.7706 203.51C73.7925 182.881 86.8674 157.303 89.0394 134.031C89.124 133.134 89.1886 132.176 88.7553 131.386C87.9748 129.966 85.8733 129.776 84.4552 130.564C83.0344 131.351 82.1423 132.806 81.3125 134.199C77.2708 140.98 76.5955 157.31 69.1832 154.543C66.4491 153.523 73.243 125.486 72.0304 108.009C70.3775 108.752 69.6693 113.221 67.014 111.906C64.7246 110.775 68.2677 106.961 68.4638 104.422C68.5233 103.649 68.5175 102.773 67.9613 102.233C67.4833 101.767 66.7487 101.707 66.0817 101.708C61.0708 101.712 49.1419 97.7213 52.0541 76.1631C53.1614 67.9635 53.0964 69.5201 55.9534 61.7512C57.3359 57.9939 58.9528 54.2503 61.5072 51.162C64.0616 48.0734 67.6849 45.6788 70.8276 45.4739L83.6708 43.6872C83.3174 42.7447 84.5907 41.9601 85.5975 42.0483C86.601 42.1365 87.612 42.6304 88.58 42.3468C89.4787 47.1406 90.2589 51.9546 90.9164 56.7853C89.9468 52.0662 91.4878 47.2342 93.0108 42.6635C93.0829 42.4529 93.1599 42.2285 93.3326 42.0853C93.5276 41.9242 93.798 41.8997 94.0521 41.8844C94.9993 41.8224 95.9493 41.7608 96.898 41.6988C97.1094 42.4252 97.3231 43.1809 97.2088 43.9295C97.0954 44.6782 96.5555 45.4186 95.8017 45.5094C95.3472 45.566 94.8185 45.4049 94.476 45.7103C94.269 45.8964 94.2149 46.1964 94.175 46.4715C93.6047 50.3416 93.0333 54.2115 92.4614 58.0804C92.3869 58.5938 92.297 59.1345 91.9615 59.5296C91.2821 60.3291 89.8972 60.0868 89.1821 59.319C88.4666 58.5524 88.2431 57.464 88.0497 56.4345C87.5859 53.9736 87.1217 51.5127 86.659 49.0522C86.4272 47.8217 85.7712 46.2597 84.7994 47.691C80.0436 46.7013 75.2217 46.0283 70.3764 45.6831C70.1263 40.7558 71.0489 35.7739 73.0471 31.261C73.9266 29.2737 75.0175 27.3633 75.5753 25.2647C76.5956 21.44 75.8141 17.154 77.6412 13.6405C77.8193 13.2992 78.0302 12.9578 78.3575 12.7514C78.8921 12.4117 79.5853 12.5201 80.2093 12.6333C88.1852 14.0619 96.3968 14.165 104.406 12.936C105.294 12.7998 106.45 11.9326 105.809 11.3049C105.577 11.0767 105.212 11.0684 104.888 11.0739L78.0852 11.5611C78.1779 9.79506 78.5948 8.02271 79.495 6.5004C82.0373 2.19969 87.6905 0.875562 92.696 1.00902C95.9135 1.09561 99.3888 1.75103 101.542 4.13743C103.704 6.53626 103.973 10.0193 104.944 13.097C105.827 15.895 107.349 18.4698 108.114 21.3009C109.684 27.1087 107.917 33.236 106.665 39.6476C107.446 41.5456 108.029 43.5263 108.399 45.5451C106.125 45.2436 103.852 44.9424 101.576 44.6408C101 44.5667 100.399 44.4797 99.9286 44.1399C98.4596 43.0832 99.3528 40.8395 99.8084 39.0917C100.248 37.4032 100.11 35.5684 99.4177 33.965C99.2135 33.4902 98.9042 32.9909 98.4 32.8738C98.034 32.7884 97.6587 32.9301 97.301 33.0498C94.1431 34.1082 90.4617 33.4531 87.8659 31.368C87.3465 32.1955 88.6499 32.9508 89.6249 33.0498C91.4986 33.2371 93.3875 33.2893 95.2726 33.2055C96.6601 33.1422 98.1198 32.9783 99.2451 32.165C100.807 31.0352 101.316 28.9788 101.717 27.0961C102.588 22.9827 103.461 18.6913 102.407 14.6203C102.291 14.1718 102.133 13.6997 101.768 13.4106C101.307 13.0443 100.653 13.0775 100.066 13.127C96.0428 13.4683 92.0191 13.8097 87.9953 14.151C87.6697 14.1782 87.3134 14.2197 87.0825 14.4522C86.8493 14.6862 86.8148 15.0456 86.7914 15.3744C86.3538 21.7865 85.9146 28.2372 86.6089 34.6271C86.8617 36.9394 87.2524 39.341 86.5001 41.5416C85.749 43.7451 83.3696 45.6099 81.4336 46.0764C74.6691 50.4899 70.5612 58.0899 68.4855 65.8779C66.4103 73.6663 66.1092 81.7962 65.3346 89.8171C64.5377 89.8569 63.8214 89.0282 63.98 88.2492C68.6887 88.1587 73.3974 88.0651 78.1058 87.9726C73.3505 83.2685 68.5935 78.566 63.8378 73.8634C60.8497 70.907 57.8076 67.8793 55.935 64.122C49.6633 51.5237 62.1957 47.0766 68.9082 51.7134C78.0646 58.0404 97.8422 77.3987 114.724 90.04C116.104 91.1698 117.482 92.2999 118.86 93.4325C117.338 94.0325 115.562 93.0045 114.77 91.5775C113.977 90.15 113.918 88.4464 113.875 86.8153C113.693 79.557 113.512 72.2972 113.329 65.0401C110.265 72.2422 115.797 81.6297 123.6 82.472C124.951 75.8742 126.298 69.2776 127.647 62.681C120.159 59.1949 118.524 47.8422 110.662 45.3073C115.57 51.1041 121.033 56.4344 126.953 61.2001C127.684 61.788 128.662 62.399 129.494 61.96C130.204 61.5871 130.364 60.6664 130.741 59.9576C131.785 58.0031 134.447 57.7569 136.667 57.7706C158.802 57.9152 180.927 59.4083 202.878 62.2422C202.916 64.8447 202.55 67.4526 201.799 69.9451C181.918 72.7938 161.627 72.7981 141.746 69.9561C140.303 69.7512 138.621 69.601 137.592 70.6306C136.941 71.284 136.739 72.2461 136.566 73.1504L134.552 83.7146C155.799 84.18 177.046 84.6452 198.293 85.1117C198.696 89.4209 198.592 94.747 194.777 96.8154C193.558 97.4762 192.142 97.6619 190.76 97.783C184.644 98.3186 178.489 97.8298 172.37 97.3398C160.456 96.3876 148.542 95.4352 136.629 94.4829C136.434 97.0343 136.239 99.5861 136.043 102.139C135.977 103 135.951 103.976 136.55 104.6C137.05 105.121 137.836 105.227 138.556 105.303C157.428 107.285 176.301 109.267 195.175 111.248C194.04 115.869 192.906 120.489 191.771 125.108C191.468 126.346 191.133 127.641 190.267 128.577C188.992 129.953 186.93 130.194 185.053 130.314C171.906 131.165 158.654 130.438 145.679 128.16C142.532 122.318 139.385 116.477 136.238 110.636C135.075 108.479 133.204 105.973 130.807 106.506C127.936 107.142 127.845 111.157 128.436 114.03C127.202 112.975 125.171 113.009 123.971 114.106C122.772 115.204 122.564 117.217 123.515 118.534C122.091 117.439 119.722 117.965 118.9 119.558C118.323 120.68 118.49 122.019 118.587 123.275C119.321 132.702 115.003 142.371 107.487 148.139C130.877 150.328 154.267 152.519 177.658 154.71C178.998 154.835 180.379 154.958 181.672 154.574C182.826 154.232 183.824 153.511 184.763 152.762C188.787 149.558 192.206 145.603 194.791 141.163C198.929 134.056 200.854 125.919 202.725 117.916C208.384 93.7229 214.056 69.4481 216.535 44.7291C190.695 41.1107 164.677 38.7493 137.492 38.6404C133.069 63.8783 128.623 89.213 120.702 113.587C119.276 117.973 117.736 122.333 116.716 126.829C114.019 138.717 115.037 151.091 116.07 163.236C117.146 175.926 118.226 188.617 119.305 201.306C119.593 204.697 119.78 208.456 117.666 211.13C113.188 216.8 101.902 213.555 98.6405 219.996C103.321 225.816 111.119 228.984 118.548 228.083C137.7 225.762 116.134 211.029 104.559 218.248C103.356 218.998 102.05 219.989 101.971 221.4C101.869 223.274 103.929 224.455 105.708 225.074C118.454 229.511 138.862 229.559 152.333 228.697C163.782 227.963 458.551 230.527 470 229.795" stroke="white" stroke-width="0.900009" stroke-miterlimit="22.926" stroke-linecap="round" stroke-linejoin="round"/>
</svg>
