<svg width="235" height="213" viewBox="0 0 235 213" fill="none" xmlns="http://www.w3.org/2000/svg">
<path d="M1 217.241C1 217.241 92.2379 215.418 81.7843 217.958C71.4174 220.477 56.8651 222.521 55.032 212.205C53.196 201.869 53.8315 161.588 55.4256 134.768C57.035 107.685 59.839 92.2111 58.7409 98.796C57.6455 105.362 31.4814 116.844 26.2948 107.258C21.1117 97.6797 47.432 59.3962 45.4685 58.7519C43.5078 58.1077 58.26 68.5758 59.7482 67.7087C61.2388 66.8416 54.848 63.7561 56.6033 64.0321C58.3616 64.3081 61.2921 58.8795 62.3238 53.9476C63.3585 49.0052 65.59 38.4866 62.8719 38.6836C60.1599 38.8805 58.9875 44.6272 58.2146 44.6814C57.4426 44.7356 55.3318 42.1565 57.363 40.6452C59.399 39.1309 67.4837 37.5654 66.0327 36.2996C64.5827 35.0329 54.3133 38.524 57.5033 36.9238C60.702 35.3195 65.4418 30.2608 63.1222 30.632C60.8065 31.0024 53.1277 35.2928 55.5307 33.551C57.9396 31.8056 61.6218 25.6431 58.9713 26.8281C56.3264 28.0111 53.7291 32.7087 53.7291 32.7087C53.7291 32.7087 57.6665 24.7712 54.5608 27.7551C51.4653 30.7291 48.853 40.6739 49.0237 43.1911C49.1941 45.7066 51.968 52.5067 51.5887 55.4427C51.2084 58.375 47.1677 61.154 48.5898 65.1198C50.0116 69.0848 60.9563 68.409 58.9911 70.8532C57.0309 73.2915 51.1096 88.0729 49.2776 94.8776C47.4521 101.66 53.2852 86.2246 54.2212 91.5503C55.1551 96.8707 57.7081 103.445 58.8043 96.8744C59.9027 90.2845 58.978 64.8505 62.5788 60.7389C66.1946 56.6124 69.2068 57.9732 70.7668 54.9449C72.3297 51.9087 71.6364 47.2615 71.0463 50.2367C70.4576 53.208 75.531 55.9964 80.3969 58.4159C85.2751 60.8418 88.3923 75.898 86.4055 72.5023C84.4198 69.1084 84.049 60.1373 88.5451 56.3172C93.062 52.4798 95.8567 52.6873 96.5811 48.2998C97.3077 43.9056 96.1459 41.2188 96.6636 43.1593C97.1814 45.0991 101.144 51.1503 101.005 52.1466C100.866 53.1431 89.3435 62.7386 89.1937 66.6644C89.0448 70.5865 89.002 88.7169 89.2563 95.8883C89.5104 103.044 91.1272 100.641 87.7275 93.4451C84.3278 86.2511 83.5122 67.2107 81.8839 66.335C80.2565 65.4603 74.0828 63.8977 71.5594 61.1338C69.0379 58.3737 68.0839 55.708 68.9194 50.5762C69.7567 45.4349 65.5775 38.2913 65.4597 39.4752C65.3423 40.6581 63.8922 42.3275 67.1262 44.0539C70.3665 45.7843 76.8332 45.7252 77.5786 45.0847C78.3249 44.4432 80.0604 40.7831 82.1856 43.1898C84.3128 45.5979 80.2633 47.0577 78.8541 46.5656C77.4458 46.0745 71.4342 44.1426 72.3912 46.8178C73.3471 49.4922 78.6775 53.0479 84.6958 51.6642C90.7424 50.2737 94.8459 39.5313 95.0403 32.9845C95.2355 26.4231 96.3072 24.3552 92.9311 21.4351C89.5598 18.5209 87.7152 14.4942 84.6722 13.5472C81.6338 12.6021 79.8128 15.13 75.7065 15.8571C71.6135 16.5814 69.568 15.3623 68.0554 16.2749C66.5446 17.1846 65.9947 20.7776 65.4589 24.5586C64.924 28.3352 61.6465 31.9193 61.4142 28.4065C61.182 24.891 58.8803 22.5171 57.6398 24.3808C56.4024 26.2415 57.5752 23.4042 58.5435 20.3826C59.5129 17.3551 59.3572 15.0053 65.1307 13.5509C70.9299 12.0892 84.2131 9.41002 92.0709 10.7557C99.9688 12.1092 97.7771 9.09112 90.8809 7.66348C84.0138 6.24253 72.2052 7.42849 66.6178 9.27978C61.0549 11.1221 55.6995 15.6962 57.8705 16.1102C60.0438 16.5253 59.3174 8.50498 66.9089 4.70377C74.5495 0.877706 82.748 -1.22179 88.4977 4.67136C94.2596 10.5769 96.6201 22.9389 96.8269 26.3023C97.0327 29.6629 97.45 33.2032 97.8957 33.9638C98.3422 34.7251 102.783 32.0165 103.015 29.2157C103.246 26.4118 103.123 21.0412 100.439 19.8545C97.76 18.6696 95.6491 23.4121 97.1815 22.2985C98.7159 21.1841 95.5941 9.47002 92.6209 6.72147C89.6527 3.97567 99.4898 20.7253 99.7667 25.2831C100.045 29.8351 97.4376 33.0064 101.818 39.2327C106.203 45.4654 113.128 50.3469 111.347 50.8628C109.569 51.3777 98.037 46.0291 102.919 47.4726C107.815 48.9214 117.853 51.8175 123.557 52.4331C129.28 53.0509 129.649 98.3398 129.568 93.427C129.488 88.5084 138.027 77.9567 136.434 82.2063C134.844 86.4461 126.65 95.3468 130.61 93.9647C134.583 92.5781 166.539 100.215 172.852 97.7166C179.197 95.2039 182.401 92.2393 180.253 82.9191C178.102 73.5874 166.433 45.9643 165.59 45.8197C164.747 45.674 163.359 51.0141 160.343 53.0242C157.334 55.0284 150.204 53.2822 151.276 54.0149C152.35 54.7479 154.987 53.7742 153.652 52.0525C152.318 50.3326 151.84 49.1583 149.726 48.2949C147.614 47.4327 140.969 50.0823 139.2 47.7983C137.432 45.5151 146.334 42.8996 145.967 43.7276C145.6 44.5566 138.702 46.2298 137.172 44.5318C135.642 42.8348 135.949 41.0105 138.356 40.0396C140.767 39.0679 146.86 37.4311 145.475 38.535C144.093 39.6381 134.918 40.8819 134.556 38.102C134.194 35.3201 135.986 34.3874 137.396 33.884C138.806 33.3804 147.376 31.7511 145.372 32.9047C143.372 34.0562 133.775 35.1488 135.057 32.4469C136.342 29.7401 146.549 27.9774 147.97 27.4683C149.392 26.9582 144.48 27.9288 144.641 27.1095C144.802 26.291 142.612 16.5537 147.44 13.946C152.286 11.3278 149.715 17.6207 149.846 20.0428C149.978 22.463 150.816 26.4479 152.373 28.3553C153.93 30.2634 159.495 40.9827 161.752 44.2616C164.011 47.5411 161.417 49.7301 158.59 51.3261C155.77 52.9195 150.344 52.0685 149.858 54.5079C149.372 56.9433 154.698 71.2039 156.007 76.3271C157.314 81.4465 161.187 92.009 159.689 91.0904C158.193 90.1721 155.637 77.1475 154.147 80.2247C152.66 83.2967 149.167 91.038 150.485 85.0071C151.808 78.9596 155.264 70.1704 151.672 68.783C148.088 67.3982 141.402 65.234 136.662 60.9444C131.93 56.6635 131.434 51.5136 128.526 54.0968C125.627 56.6722 124.465 61.1147 124.751 66.0544C125.037 70.987 133.293 154.722 134.377 173.59C135.456 192.361 141.614 216.319 138.984 212.156C136.354 207.995 130.549 197.02 119.426 149.741C108.224 102.133 106.338 70.9185 103.434 88.7217C100.552 106.391 113.239 185.126 106.264 167.376C99.285 149.612 89.5874 94.9014 86.4086 119.01C83.2602 142.884 94.6165 193.408 91.7941 185.536C88.9699 177.66 79.6954 153.656 80.6495 168.405C81.5997 183.096 85.0194 200.317 82.4492 196.231C79.8811 192.146 74.4785 179.859 76.3381 190.707C78.1941 201.533 82.0548 213.809 96.1073 217.053C110.287 220.327 129.434 218.687 128.925 209.974C128.414 201.24 120.666 177.347 121.413 189.926C122.157 202.461 126.053 214.928 136.792 215.597C147.61 216.271 390 215.665 390 215.665" stroke="white" stroke-width="1.18997" stroke-miterlimit="10" stroke-linecap="round"/>
</svg>
