<svg width="258" height="311" viewBox="0 0 258 311" fill="none" xmlns="http://www.w3.org/2000/svg">
<g clip-path="url(#clip0_380_6095)">
<path d="M206.384 95.8452L203.748 101.335H248.325L225.708 59.6509L223.356 65.2555C223.356 65.2555 187.005 48.164 154.448 46.2676L149.81 50.2778L154.448 79.8166C154.448 79.8166 193.634 86.9854 206.378 95.8452H206.384Z" fill="#235E8B"/>
<path d="M96.2953 89.8372C96.2953 89.8372 81.5308 96.4805 75.9096 105.981H31.8149C31.8149 105.981 50.5602 63.5657 96.2953 52.3867C96.2953 52.3867 94.6066 78.0241 96.2953 89.8432V89.8372Z" fill="#235E8B"/>
<path d="M229.134 155.993C222.837 151.004 216.335 147.235 210.467 144.427C199.14 139.004 190.262 137.216 190.262 137.216V129.184L149.804 142.271L180.679 172.758L183.531 164.001C235.702 176.068 237.65 224.812 215.358 254.393L212.662 257.727C209.852 260.994 206.728 263.965 203.332 266.55C176.625 286.945 141.988 282.452 128.737 279.704C125.251 278.979 123.255 278.363 123.255 278.363L102.187 285.532L85.2456 291.433L82.7969 292.296C142.645 331.54 245.895 307.902 256.86 231.956C262.408 193.443 246.691 169.938 229.134 155.993Z" fill="#235E8B"/>
<path d="M215.365 254.392C214.502 255.528 213.598 256.663 212.669 257.726C199.117 252.146 181.704 254.121 158.255 265.867C149.672 270.155 139.588 275.21 128.738 279.704C114.962 285.417 99.9444 290.23 85.2462 291.432C70.5902 292.682 56.2719 290.321 43.8173 281.703C43.8173 281.703 23.5884 266.821 31.809 246.885C31.809 246.885 -8.32913 240.242 17.9009 199.089C17.9009 199.089 -2.26166 193.575 0.211165 170.601C2.11705 152.864 16.0011 148.443 16.0011 148.443C16.0011 148.443 -9.11922 120.027 22.1409 105.37C44.2395 95.006 96.3075 103.189 96.3075 103.189C96.3075 103.189 77.1462 13.0691 129.244 1.11711C132.821 0.277633 136.518 0.00585938 140.185 0.00585938H155.728C155.728 0.00585938 150.903 81.4414 168.05 105.98C182.935 127.256 222.826 120.269 229.146 155.998C222.85 151.009 216.348 147.241 210.48 144.433C210.48 138.526 203.254 132.342 195.395 128.67C181.168 122.026 154.986 116.808 149.817 76.2958C144.672 35.7834 146.554 11.3962 146.554 11.3962C146.554 11.3962 123.744 3.64159 110.173 17.9067C84.6672 44.7157 102.019 109.205 102.019 109.205C102.019 109.205 43.7691 101.341 28.148 116.941C22.159 122.92 17.7501 133.205 27.4002 150.671C27.4002 150.671 13.492 161.107 16.3207 178.525C19.1735 195.925 30.2288 199.415 30.2288 199.415C30.2288 199.415 17.5873 212.708 21.393 228.833C25.1746 244.983 40.9886 243.08 40.9886 243.08C40.9886 243.08 30.7294 275.699 66.2718 282.005C116.223 290.876 155.891 263.331 167.989 257.853C183.001 251.046 200.07 248.516 215.371 254.404L215.365 254.392Z" fill="#235E8B"/>
</g>
<defs>
<clipPath id="clip0_380_6095">
<rect width="258" height="311" fill="white"/>
</clipPath>
</defs>
</svg>
