<svg width="226" height="58" viewBox="0 0 226 58" fill="none" xmlns="http://www.w3.org/2000/svg">
<g clip-path="url(#clip0_2496_2155)">
<path d="M40.2542 14.7345C39.874 15.1035 39.8852 15.5955 40.2654 15.8975C40.4332 16.0317 40.6456 16.1323 40.7575 16.1323C40.8693 16.1323 41.0818 16.0317 41.2495 15.8975C41.6521 15.5844 41.6521 15.0028 41.2495 14.6897C40.8581 14.3878 40.5897 14.399 40.2542 14.7345Z" fill="#257C52"/>
<path d="M56.5036 20.2351C56.4701 24.0821 56.4589 24.261 56.224 24.686C55.9445 25.2227 55.5754 25.5806 55.1505 25.7371C54.9715 25.8042 54.1328 25.8602 53.2717 25.8602H51.7173V23.0309C51.7173 19.922 51.7173 19.9108 52.3883 19.7319C52.7014 19.6424 52.5001 19.6201 51.4154 19.6089L50.0399 19.5977V22.7289V25.8602H48.8656C47.2329 25.8602 46.6961 25.6253 46.2041 24.686C45.9916 24.2945 45.9581 24.015 45.9245 22.2481C45.891 20.5594 45.9022 20.224 46.0587 19.9891C46.1705 19.8214 46.3495 19.7095 46.5172 19.7095C46.6626 19.7095 46.8192 19.6536 46.8527 19.5977C46.8974 19.5306 46.4389 19.4859 45.5779 19.4859H44.2247V22.1698C44.2247 25.1333 44.18 25.3681 43.5537 25.6924C42.8716 26.0503 41.9322 25.7483 41.6638 25.0885C41.4849 24.6636 41.5408 20.3358 41.7309 20.1457C41.798 20.0786 42.0217 19.9779 42.2341 19.9332C42.4802 19.8773 42.167 19.8437 41.2389 19.8325L39.8634 19.8214V22.3375C39.8634 25.0438 39.8186 25.3122 39.2818 25.6812C39.1477 25.7819 38.801 25.8602 38.5214 25.8602C38.2418 25.8602 37.8952 25.7819 37.761 25.6812C37.2465 25.3234 37.1794 25.0103 37.1794 22.8072C37.1794 20.4923 37.2242 20.3358 37.9623 20.1569C38.2418 20.0898 37.9623 20.0674 37.0005 20.0562L35.6362 20.045L35.6027 22.0356C35.5579 23.9702 35.5467 24.0262 35.2224 24.686C34.954 25.2339 34.7975 25.4017 34.3837 25.6141C33.9252 25.8378 33.7463 25.8602 32.4267 25.8378L30.9729 25.8042V22.9973C30.9729 20.3805 30.9841 20.168 31.1854 19.9444C31.3084 19.8102 31.5321 19.7095 31.7222 19.7095C31.8899 19.7095 32.0353 19.6536 32.0353 19.5977C32.0353 19.5306 31.5209 19.4859 30.7045 19.4859H29.3626L29.329 23.5341L29.2955 27.5935L28.9823 28.2309C28.8034 28.5888 28.4791 29.0249 28.2554 29.215C27.92 29.4834 27.8864 29.5505 28.0653 29.5505C28.3896 29.5505 29.5639 28.969 30.0112 28.5888C30.4473 28.2198 30.917 27.3028 30.917 26.7995V26.4417L32.9076 26.3969C34.8422 26.3634 34.8981 26.3522 35.4685 26.0391C35.7928 25.8602 36.1394 25.6253 36.2401 25.5135C36.419 25.3122 36.4414 25.3234 36.8551 25.6812C37.8952 26.5647 39.5167 26.4976 40.4113 25.5247L40.7244 25.178L40.9146 25.4688C41.0264 25.6365 41.3842 25.8937 41.7197 26.0503C42.8045 26.5423 44.1912 26.3522 44.8845 25.5918C45.0411 25.4352 45.1976 25.301 45.2535 25.301C45.3095 25.301 45.5331 25.4799 45.7568 25.6924C46.4389 26.3522 46.5172 26.3634 51.3818 26.3634C56.3694 26.3634 56.347 26.3634 57.2193 25.547C57.6443 25.1445 57.8008 24.8984 57.9798 24.3281C58.181 23.6683 58.2034 23.2769 58.2034 20.2575C58.2034 17.0592 58.2146 16.9026 58.4271 16.6901C58.5501 16.5671 58.7737 16.4665 58.9303 16.4665C59.0869 16.4665 59.2099 16.4106 59.2099 16.3546C59.2099 16.2875 58.6955 16.2428 57.8791 16.2428H56.5372L56.5036 20.2351Z" fill="#257C52"/>
<path d="M60.4399 21.3322V26.4204H61.2227H61.9944L62.0279 21.6788C62.0615 17.1945 62.0727 16.9261 62.2739 16.7024C62.397 16.5682 62.6094 16.4676 62.7548 16.4676C62.9114 16.4676 62.9897 16.4228 62.9561 16.3557C62.9114 16.2886 62.3634 16.2439 61.6589 16.2439H60.4399V21.3322Z" fill="#257C52"/>
<path d="M79.897 21.3322V26.4204H80.7357H81.5632L81.5968 21.6006C81.6303 16.982 81.6415 16.7807 81.8428 16.6241C81.9658 16.5347 82.1783 16.4676 82.3349 16.4676C82.4802 16.4676 82.5585 16.4228 82.525 16.3557C82.4802 16.2886 81.9099 16.2439 81.1718 16.2439H79.897V21.3322Z" fill="#257C52"/>
<path d="M106.513 19.8452C106.513 23.7257 106.435 24.3966 105.954 25.0788C105.596 25.582 104.937 25.8616 104.076 25.8616C102.734 25.8616 102.309 25.336 102.141 23.4908C101.962 21.422 101.19 20.3372 99.4794 19.7669C99.0097 19.6103 98.6518 19.588 97.8019 19.6327C96.4823 19.6998 95.8896 19.9346 95.0509 20.7286C94.3017 21.4443 94.0556 22.0482 93.8991 23.5915C93.7761 24.7657 93.6307 25.2018 93.2057 25.582C92.9933 25.7721 92.7696 25.8057 91.573 25.8392L90.1863 25.884V23.0994C90.1863 20.0241 90.2199 19.8563 90.8573 19.6327C91.5171 19.409 86.9321 19.4426 85.9033 19.6662C84.2706 20.0353 83.1858 20.874 82.8391 22.0482C82.5036 23.2001 82.8168 24.3184 83.689 25.1123C84.5837 25.9175 85.5566 26.253 87.3794 26.3648L88.6207 26.4543L88.5536 27.0246C88.4194 28.21 88.1958 28.758 87.6143 29.3395C87.111 29.8427 87.0887 29.8875 87.3682 29.8204C87.9497 29.6862 88.9003 29.2053 89.2693 28.8474C89.7726 28.3666 90.0521 27.7851 90.1416 27.0582L90.2087 26.4431L91.6849 26.3984C93.2169 26.3536 93.4629 26.2866 94.0221 25.761L94.3352 25.4702L94.5812 25.8057C95.3305 26.8457 96.2811 27.3377 97.7013 27.4048C99.334 27.4831 100.743 26.9016 101.436 25.8728L101.727 25.4255L102.096 25.8057C102.599 26.2977 103.405 26.4767 104.836 26.3872C106.01 26.3201 106.536 26.1412 107.117 25.6379L107.498 25.3025L107.844 25.6268C108.526 26.2642 108.895 26.3648 110.427 26.3536C111.982 26.3536 112.34 26.253 113.044 25.6379C113.995 24.7992 114.118 24.1394 114.118 20.0465C114.118 16.837 114.118 16.8146 114.364 16.6468C114.498 16.5462 114.733 16.4679 114.867 16.4679C115.013 16.4679 115.124 16.412 115.124 16.3561C115.124 16.289 114.599 16.2443 113.782 16.2443H112.44V19.8787C112.44 23.6809 112.373 24.3631 111.96 24.9781C111.557 25.5597 111.166 25.7833 110.461 25.8392C109.947 25.8728 109.712 25.8281 109.309 25.6156C108.202 25.0452 108.046 24.3184 108.101 19.9794L108.135 16.8929L108.403 16.6804C108.549 16.5686 108.784 16.4679 108.929 16.4679C109.074 16.4679 109.197 16.412 109.197 16.3561C109.197 16.289 108.672 16.2443 107.855 16.2443H106.513V19.8452ZM88.2741 20.1136L88.6207 20.1807V23.077V25.9734H87.6143C86.0151 25.9734 85.1093 25.5149 84.5278 24.4078C84.2035 23.8039 84.2258 22.0594 84.5613 21.422C84.8632 20.8628 85.4224 20.4155 86.071 20.2142C86.5854 20.0465 87.7037 20.0017 88.2741 20.1136ZM98.9873 20.2589C99.2557 20.3931 99.6024 20.6727 99.8037 20.9523C100.34 21.7015 100.508 22.4396 100.463 23.9493C100.419 25.1794 100.396 25.3025 100.083 25.8057C99.6024 26.5885 98.9761 26.9016 97.992 26.8457C97.3546 26.8122 97.1757 26.7562 96.829 26.4655C96.3034 26.0517 95.8114 25.1123 95.6548 24.2401C95.4088 22.8981 95.7555 21.3213 96.4488 20.6615C97.075 20.0576 98.1598 19.8899 98.9873 20.2589Z" fill="#257C52"/>
<path d="M125.301 21.3311V26.4193H131.329H137.357L137.77 26.889C138.486 27.7165 138.766 28.3875 138.754 29.2486V30.009L138.956 29.6624C139.347 29.0249 139.537 28.2421 139.47 27.5041C139.437 27.1238 139.381 26.7324 139.336 26.6318C139.269 26.464 139.414 26.4417 140.644 26.3969C142.199 26.3522 142.579 26.218 143.351 25.4464C144.133 24.6748 144.245 24.2722 144.312 22.0915C144.38 19.9667 144.402 19.8773 145.106 19.7095C145.364 19.6536 145.028 19.6201 144.066 19.6089L142.635 19.5977V21.756C142.635 24.1715 142.534 24.6859 141.953 25.2786C141.528 25.7148 141.025 25.8602 139.94 25.8602H139.09L135.668 22.4158L132.246 18.9826L131.295 19.922C130.77 20.4476 130.367 20.8949 130.39 20.9285C130.423 20.9508 130.535 20.8949 130.647 20.7943C131.161 20.3246 131.329 20.4476 134.125 23.2322L136.764 25.8602H131.866H126.968L127.001 21.3758L127.035 16.8914L127.303 16.6789C127.449 16.5671 127.683 16.4665 127.829 16.4665C127.974 16.4665 128.097 16.4106 128.097 16.3546C128.097 16.2875 127.56 16.2428 126.699 16.2428H125.301V21.3311Z" fill="#0E4979"/>
<path d="M146.436 21.3322V26.4204H147.275H148.102L148.136 21.6565L148.169 16.8925L148.438 16.6801C148.583 16.5682 148.818 16.4676 148.963 16.4676C149.109 16.4676 149.232 16.4117 149.232 16.3557C149.232 16.2886 148.695 16.2439 147.834 16.2439H146.436V21.3322Z" fill="#0E4979"/>
<path d="M16.0652 16.6907C15.7073 17.0262 15.7297 17.6077 16.1099 17.9097C16.2776 18.0439 16.5013 18.1445 16.6243 18.1445C16.9263 18.1445 17.3848 17.6413 17.3848 17.3058C17.3848 16.948 16.9263 16.4671 16.5684 16.4671C16.423 16.4671 16.1994 16.5677 16.0652 16.6907Z" fill="#257C52"/>
<path d="M18.2237 16.7471C17.7875 17.1721 17.8882 17.7089 18.4809 18.022C18.7828 18.1785 19.1071 18.1003 19.3979 17.776C19.6998 17.4628 19.6775 17.1162 19.342 16.7583C19.0065 16.3893 18.5815 16.3781 18.2237 16.7471Z" fill="#257C52"/>
<path d="M39.1358 16.7473C38.7667 17.1052 38.7779 17.5301 39.1469 17.8656C39.4936 18.1899 39.7173 18.2123 40.0639 17.9663C40.4218 17.7203 40.5672 17.2953 40.3994 16.9934C40.0975 16.4118 39.5607 16.3112 39.1358 16.7473Z" fill="#257C52"/>
<path d="M41.3402 16.7243C40.9936 17.0933 41.0159 17.6189 41.385 17.9097C41.5527 18.0439 41.7652 18.1445 41.877 18.1445C42.2572 18.1445 42.6598 17.7084 42.6598 17.3058C42.6598 17.0374 42.5816 16.8697 42.3691 16.7019C41.9777 16.4 41.6422 16.4 41.3402 16.7243Z" fill="#257C52"/>
<path d="M121.621 16.7578C121.487 16.9256 121.386 17.1828 121.386 17.3282C121.386 17.686 121.856 18.1445 122.225 18.1445C122.616 18.1445 123.064 17.6748 123.064 17.2723C123.064 16.5454 122.068 16.1875 121.621 16.7578Z" fill="#0E4979"/>
<path d="M142.916 16.7466C142.591 17.0597 142.569 17.2499 142.804 17.686C143.061 18.2004 143.542 18.2899 144.023 17.9097C144.403 17.6077 144.425 17.0486 144.056 16.7131C143.71 16.3888 143.251 16.4 142.916 16.7466Z" fill="#0E4979"/>
<path d="M69.2511 19.5204C68.6137 19.6994 68.39 19.8783 68.1887 20.348C68.021 20.7505 67.9874 21.7235 68.144 21.7235C68.1999 21.7235 68.2782 21.5557 68.3117 21.3432C68.5913 19.8671 71.2417 19.5763 72.1251 20.9295C72.8073 21.9695 72.7737 23.9601 72.058 25.0224C71.5995 25.7046 71.1075 25.8612 69.4077 25.8612H67.9315V26.1519V26.4539L69.6984 26.3979C71.8008 26.3197 72.4383 26.1296 73.2434 25.3467C73.9815 24.631 74.2387 24.0048 74.2499 22.8977C74.2499 22.1372 74.2052 21.9024 73.9368 21.3656C73.5789 20.6387 72.9303 20.0013 72.2034 19.6882C71.5548 19.3974 70.0004 19.3079 69.2511 19.5204Z" fill="#257C52"/>
<path d="M75.9602 23.5347L75.9267 27.5941L75.6136 28.2315C75.4346 28.5894 75.1103 29.0367 74.8867 29.2268L74.4729 29.5735L74.8419 29.5064C75.7366 29.3498 76.7654 28.6453 77.2463 27.8737C77.4811 27.4935 77.4923 27.3369 77.5482 23.8366C77.6041 20.4482 77.6153 20.1686 77.8166 19.945C77.9396 19.8108 78.1633 19.7101 78.3534 19.7101C78.5211 19.7101 78.6665 19.6542 78.6665 19.5983C78.6665 19.5312 78.1521 19.4865 77.3357 19.4865H75.9938L75.9602 23.5347Z" fill="#257C52"/>
<path d="M121.365 23.5353C121.332 27.4941 121.32 27.6059 121.074 28.1539C120.94 28.4558 120.582 28.9255 120.291 29.1939C119.788 29.6636 119.788 29.6748 120.101 29.6077C120.784 29.4511 121.891 28.8584 122.304 28.4335C123.009 27.6842 123.065 27.304 123.065 23.4906C123.065 20.3034 123.076 20.1469 123.289 19.9344C123.412 19.8114 123.635 19.7108 123.792 19.7108C123.948 19.7108 124.071 19.6548 124.071 19.5989C124.071 19.5318 123.557 19.4871 122.741 19.4871H121.399L121.365 23.5353Z" fill="#0E4979"/>
<path d="M16.8042 19.7783C15.5629 20.0802 14.5117 20.7848 14.0756 21.6459C13.9638 21.836 13.8631 22.328 13.8296 22.7306C13.796 23.3233 13.8296 23.5805 14.0309 24.0502C14.5117 25.1797 15.8425 26.0967 17.3298 26.3203C17.7436 26.3874 19.421 26.421 21.2215 26.3986C24.2409 26.3651 24.3975 26.3539 24.8448 26.1079C25.5158 25.75 26.0973 25.1349 26.4216 24.4192C26.69 23.8489 26.7235 23.6252 26.7794 21.9254C26.813 20.74 26.8801 20.0131 26.9695 19.9237C27.0366 19.8566 27.2603 19.7559 27.4728 19.7112C27.7188 19.6553 27.4057 19.6217 26.4775 19.6106L25.102 19.5994V21.5564C25.102 23.67 24.9902 24.4304 24.6211 24.9784C24.1291 25.6941 23.8719 25.8059 22.5187 25.8395L21.2886 25.8842L21.3222 22.9654C21.3445 20.9525 21.4004 20.0131 21.4899 19.9237C21.557 19.8566 21.7807 19.7559 21.9931 19.7112C22.2056 19.6553 21.3557 19.6217 19.9019 19.6217C18.1797 19.6217 17.2516 19.6665 16.8042 19.7783ZM19.3763 20.2256L19.6223 20.2927V23.0773V25.8618H18.4481C17.0838 25.8618 16.7036 25.7388 16.178 25.1461C15.6188 24.5087 15.4511 24.0166 15.4399 23.0102C15.4287 22.2945 15.4846 22.0261 15.6748 21.6459C15.9767 21.0867 16.6029 20.5499 17.218 20.3375C17.6765 20.1697 18.929 20.1138 19.3763 20.2256Z" fill="#257C52"/>
<path d="M23.9828 28.098C23.5019 28.5789 23.8598 29.4399 24.542 29.4399C25.2465 29.4399 25.582 28.6012 25.0676 28.1204C24.7432 27.8184 24.2736 27.8072 23.9828 28.098Z" fill="#257C52"/>
<path d="M26.1633 28.1537C25.8166 28.4891 25.8054 28.7799 26.1409 29.1713C26.4652 29.5403 26.9125 29.5627 27.2927 29.216C27.6171 28.8917 27.6394 28.5562 27.3263 28.1648C27.0244 27.7846 26.5323 27.7734 26.1633 28.1537Z" fill="#257C52"/>
<path d="M50.2744 28.1654C50.1402 28.3332 50.0396 28.5568 50.0396 28.6687C50.0396 29.0041 50.5204 29.4626 50.8783 29.4626C51.2473 29.4626 51.717 29.0041 51.717 28.6463C51.717 28.5233 51.594 28.2996 51.4374 28.1542C51.0684 27.774 50.5763 27.7852 50.2744 28.1654Z" fill="#257C52"/>
<path d="M132.471 28.1649C132.146 28.5674 132.18 28.8358 132.571 29.2384C132.851 29.5068 132.974 29.5627 133.22 29.4956C133.678 29.3838 133.913 29.1154 133.913 28.6905C133.913 27.9076 132.952 27.561 132.471 28.1649Z" fill="#0E4979"/>
<path d="M146.528 28.0531C145.767 28.4669 145.689 29.4734 146.371 30.0213C146.606 30.2114 146.595 30.2226 146.08 30.2226C145.779 30.2226 145.544 30.2674 145.544 30.3345C145.544 30.4016 146.159 30.4463 147.165 30.4463C148.172 30.4463 148.787 30.4016 148.787 30.3345C148.787 30.2674 148.485 30.2226 148.116 30.2226C147.232 30.2226 146.819 30.0102 146.673 29.4846C146.494 28.8471 146.729 28.2992 147.244 28.1314C147.769 27.9637 148.429 28.1202 148.563 28.4669C148.653 28.7017 148.664 28.7017 148.664 28.411C148.675 28.2209 148.597 28.0643 148.462 27.986C148.138 27.8183 146.874 27.8518 146.528 28.0531Z" fill="#0E4979"/>
<path d="M38.8009 30.7262C37.9399 31.0393 37.4031 31.9004 37.4031 32.9851V33.466H36.8998C36.4749 33.466 36.3966 33.4996 36.3966 33.6897C36.3966 33.8798 36.4749 33.9133 36.8998 33.9133H37.4031V37.0446V40.1758H38.0181H38.6332V37.0446V33.9133H39.6397C40.5679 33.9133 40.6461 33.9021 40.6461 33.6897C40.6461 33.4772 40.5679 33.466 39.6397 33.466H38.6332V32.7615C38.6332 31.9563 38.8792 31.3636 39.3042 31.14C39.6508 30.961 40.3554 31.0505 40.8474 31.3524C41.4513 31.6991 41.6638 31.3748 41.1382 30.8827C40.9033 30.6591 40.7244 30.6144 40.0534 30.592C39.5502 30.5696 39.0805 30.6144 38.8009 30.7262Z" fill="#257C52"/>
<path d="M0.186015 35.0543C0.219564 39.8518 0.219564 39.8294 0.879358 40.0642C1.25958 40.1984 2.73573 40.2208 2.73573 40.0866C2.73573 40.0307 2.52325 39.9524 2.26604 39.8853C1.40496 39.6952 1.39377 39.6505 1.39377 34.8306V30.6705H0.767529H0.152466L0.186015 35.0543Z" fill="#0E4979"/>
<path d="M58.4287 30.7709C58.4287 30.838 58.5629 30.8939 58.7418 30.8939C59.1892 30.8939 59.5246 31.1735 59.6588 31.6544C59.7259 31.9004 59.7707 33.6785 59.7707 36.1164V40.1758H60.3298H60.889V37.3912V34.5955L61.258 34.3159C61.9402 33.8015 62.9578 33.7456 63.4722 34.2041C63.9643 34.6402 64.0202 34.9869 64.0202 37.6596V40.1758H64.6464H65.2615L65.2279 37.5142C65.1944 34.931 65.1832 34.8527 64.9148 34.3606C64.5122 33.6449 63.9531 33.3542 62.9578 33.3542C62.1862 33.3542 61.3586 33.6114 61.1797 33.9021C60.9672 34.2376 60.889 33.9133 60.889 32.6944C60.889 31.4531 60.8666 31.3301 60.6318 31.0505C60.3857 30.7709 60.2851 30.7374 59.4016 30.6926C58.7195 30.6591 58.4287 30.6814 58.4287 30.7709Z" fill="#257C52"/>
<path d="M6.72801 33.3989C6.42607 33.4772 6.03466 33.6673 5.84455 33.8015C5.54261 34.0252 5.47552 34.0363 5.37487 33.891C5.30777 33.8015 5.14003 33.6673 5.00583 33.6002C4.70389 33.4325 2.95935 33.4213 2.95935 33.5778C2.95935 33.6338 3.13828 33.6897 3.35075 33.6897C3.79807 33.6897 4.13356 33.9916 4.23421 34.4948C4.26776 34.6849 4.30131 36.0381 4.30131 37.5031V40.1758H4.91637H5.53143V37.38V34.5843L6.00112 34.2488C6.85102 33.6338 8.01405 33.891 8.41663 34.7856C8.55083 35.1099 8.60674 35.7138 8.64029 37.682L8.68503 40.1758H9.23299H9.78096V37.6037C9.78096 34.808 9.72504 34.506 9.14353 33.891C8.65148 33.3765 7.60028 33.1641 6.72801 33.3989Z" fill="#0E4979"/>
<path d="M13.6157 33.3539C13.2914 33.3987 12.8665 33.5329 12.6652 33.6559C11.5693 34.2933 11.3791 35.9819 12.3073 36.9101C12.654 37.2568 12.6764 37.3239 12.5422 37.4804C12.2626 37.7824 12.2179 38.1291 12.3968 38.4869C12.4974 38.6658 12.6316 38.8336 12.7099 38.8671C12.8777 38.923 12.8665 38.9342 12.2962 39.2362C10.697 40.0861 11.0213 42.2668 12.8218 42.8035C13.4815 42.9936 15.2149 43.0272 15.83 42.8594C16.87 42.5687 17.4962 41.8194 17.4962 40.8577C17.4962 39.471 16.5904 38.7777 14.5887 38.6547C13.4592 38.5764 12.9559 38.4422 12.8553 38.185C12.7211 37.8383 13.1684 37.6258 14.2196 37.5587C15.8411 37.4357 16.5345 37.1561 16.8588 36.4516C17.2502 35.6241 16.993 34.3604 16.3667 34.0249C16.0424 33.846 16.1095 33.723 16.6016 33.6447C16.8923 33.6 17.0489 33.5217 17.0489 33.4098C17.0489 33.2645 16.8141 33.2421 15.6287 33.2533C14.8347 33.2645 13.94 33.3092 13.6157 33.3539ZM14.9577 33.846C15.159 33.9243 15.405 34.092 15.5057 34.215C15.7629 34.4946 15.8971 35.2886 15.8076 35.9148C15.6846 36.8207 14.79 37.3239 13.8618 37.0219C13.2243 36.8095 12.8777 36.1273 12.9448 35.2215C13.0119 34.461 13.2355 34.0696 13.7276 33.8572C14.1861 33.6559 14.5104 33.6559 14.9577 33.846ZM14.8347 39.1803C15.2708 39.2809 15.5392 39.4263 15.8523 39.7282C16.2437 40.1196 16.2661 40.1979 16.2661 40.8242C16.2661 41.428 16.2214 41.551 15.9194 41.8977C15.3715 42.5351 14.2755 42.7141 13.3921 42.3115C13.1349 42.1885 12.8441 41.9648 12.7435 41.8083C12.2514 41.059 12.4863 39.8289 13.2243 39.3368C13.6828 39.0237 13.9736 39.0013 14.8347 39.1803Z" fill="#0E4979"/>
<path d="M20.5176 33.3536C19.3545 33.5214 18.952 33.8345 18.952 34.6061C18.952 34.9864 18.9855 35.0311 19.2315 35.0311C19.4328 35.0311 19.5223 34.9528 19.5782 34.7627C19.7012 34.2706 20.2268 33.8904 20.8642 33.8233C21.9602 33.7227 22.5081 34.293 22.62 35.6461L22.6759 36.3395L21.5129 36.3954C19.7348 36.4737 18.8513 36.9322 18.65 37.8827C18.4375 38.8445 18.7842 39.6049 19.6229 40.0299C20.4505 40.4548 21.7589 40.2983 22.3963 39.6944L22.6647 39.4484L22.9555 39.8174C23.1679 40.0634 23.3469 40.1752 23.5705 40.1752H23.8836L23.8501 37.5696C23.8165 35.0311 23.8054 34.9528 23.5258 34.416C23.0561 33.499 22.0385 33.1412 20.5176 33.3536ZM22.6423 37.8716V38.9228L22.2509 39.2694C22.0273 39.4595 21.7253 39.6496 21.5799 39.6832C20.7971 39.8733 19.992 39.3253 19.8801 38.5314C19.7459 37.5249 20.5958 36.8539 22.0608 36.8315L22.6423 36.8204V37.8716Z" fill="#0E4979"/>
<path d="M43.3197 33.6661C42.1455 34.2811 41.5752 35.4665 41.687 37.1104C41.7541 38.1952 42.1008 38.9668 42.8165 39.5707C43.2862 39.9733 44.1249 40.2864 44.7288 40.2864C45.7912 40.2864 46.8535 39.6266 47.4015 38.6089C48.0389 37.4347 47.9047 35.5113 47.0996 34.4601C46.5516 33.7332 45.7352 33.3529 44.7288 33.3529C44.0578 33.3529 43.8118 33.4089 43.3197 33.6661ZM45.7241 34.1357C46.2608 34.6166 46.4845 35.2429 46.5516 36.4954C46.6075 37.7367 46.4174 38.6089 45.9477 39.1681C45.1985 40.0515 44.2591 40.0515 43.5098 39.1681C43.1072 38.6872 42.8836 37.8261 42.8836 36.7637C42.8836 35.5672 43.1184 34.8179 43.6552 34.2476C44.0466 33.8338 44.1249 33.8003 44.7064 33.8003C45.2432 33.8003 45.3886 33.845 45.7241 34.1357Z" fill="#257C52"/>
<path d="M51.7723 33.5443C51.5934 33.6338 51.325 33.8127 51.202 33.9357C50.9672 34.1482 50.956 34.1482 50.6205 33.8127C50.2962 33.4884 50.2291 33.466 49.4351 33.466C48.9431 33.466 48.5852 33.5107 48.5852 33.5778C48.5852 33.6338 48.7306 33.6897 48.9095 33.6897C49.1332 33.6897 49.3121 33.7903 49.4687 33.9804C49.6923 34.26 49.7035 34.4166 49.7035 37.2235V40.1758H50.3186H50.9336V37.4583C50.9336 34.4054 50.9001 34.5508 51.7723 34.1817C52.2532 33.9804 52.913 34.0363 53.3268 34.3047C53.5616 34.4613 53.5952 34.4501 53.7965 34.2376C54.0089 34.0028 53.9978 34.0028 53.6399 33.6785C53.338 33.4101 53.1814 33.3542 52.6894 33.3542C52.3762 33.3654 51.9625 33.4436 51.7723 33.5443Z" fill="#257C52"/>
<path d="M77.45 33.4772C77.3046 33.5331 77.0474 33.6785 76.8685 33.8127L76.5442 34.0475L76.1975 33.7568C75.8844 33.4996 75.7614 33.466 74.9115 33.466C73.9497 33.466 73.5919 33.6449 74.453 33.712C74.8667 33.7456 74.945 33.7903 75.1128 34.137C75.2917 34.4837 75.3141 34.8862 75.3141 37.3465V40.1758H75.9291H76.5442V37.3241V34.4837L77.0251 34.1929C77.6737 33.8239 78.4229 33.8127 78.7584 34.1594C79.1275 34.5619 79.2169 35.2665 79.2281 37.7938V40.1758H79.7872H80.3464V37.4583V34.7409L80.6707 34.4277C81.0733 34.0363 81.7219 33.8127 82.1692 33.9021C82.952 34.0699 83.131 34.8639 83.1421 38.0734V40.1758H83.7013H84.2604V37.6261C84.2604 36.1723 84.2045 34.9086 84.1374 34.6626C84.0703 34.4166 83.8578 34.0475 83.6566 33.8239C83.3099 33.4548 83.2204 33.4213 82.5383 33.3765C81.6772 33.3206 80.9838 33.5331 80.5701 33.9692C80.2457 34.3159 80.0892 34.3159 79.9103 33.9916C79.6754 33.5555 79.2057 33.3542 78.4229 33.3654C78.0427 33.3654 77.5954 33.4213 77.45 33.4772Z" fill="#257C52"/>
<path d="M87.1792 33.5103C86.6983 33.678 86.3964 34.0694 86.3069 34.6174C86.251 35.0088 86.2622 35.0312 86.5417 35.0312C86.7654 35.0312 86.8661 34.9417 86.9779 34.6621C87.2351 34.0583 87.5482 33.8681 88.3422 33.8234C89.0355 33.7787 89.0803 33.7899 89.4493 34.1589C89.8184 34.5279 90.0756 35.2884 90.0756 36.0265V36.3396L88.9125 36.3955C87.9061 36.4402 87.66 36.4961 87.1009 36.7757C86.3293 37.1671 86.0385 37.5138 85.9714 38.1736C85.9155 38.7886 86.2845 39.5603 86.8101 39.9181C87.5594 40.4102 88.9461 40.3431 89.6282 39.7727C90.0308 39.4261 90.1203 39.4373 90.4111 39.8398C90.5788 40.0859 90.7465 40.1753 90.9814 40.1753H91.3057V38.4084C91.3057 35.1542 91.0485 34.1365 90.1315 33.6109C89.7513 33.3985 89.5276 33.3537 88.6218 33.3649C88.0403 33.3649 87.3805 33.432 87.1792 33.5103ZM90.0756 37.8605C90.0756 39.0011 89.9749 39.2695 89.4046 39.5603C89.0132 39.7616 88.2192 39.7727 87.839 39.5826C87.2015 39.2695 86.9779 38.017 87.4588 37.4691C87.8278 37.0665 88.5099 36.8204 89.3263 36.8204H90.0756V37.8605Z" fill="#257C52"/>
<path d="M95.6093 33.5778C95.3633 33.7008 95.0725 33.8574 94.9495 33.9357C94.7817 34.0587 94.737 34.0587 94.6923 33.9357C94.5804 33.6449 93.9989 33.466 93.149 33.466C92.6682 33.466 92.3103 33.5107 92.3103 33.5778C92.3103 33.6338 92.478 33.6897 92.6905 33.6897C92.9701 33.6897 93.1378 33.7679 93.3056 33.9804C93.5292 34.26 93.5404 34.4166 93.5404 37.2235V40.1758H94.1555H94.7706L94.7929 37.3577L94.8265 34.5396L95.285 34.2153C96.1461 33.6114 97.2867 33.8574 97.6893 34.7297C97.8682 35.1435 97.9018 35.4901 97.9018 37.682V40.1758H98.5168H99.1319V37.7938C99.1319 36.0157 99.0872 35.2665 98.9642 34.8527C98.7852 34.2488 98.2708 33.6673 97.7564 33.4772C97.2308 33.2759 96.1125 33.3318 95.6093 33.5778Z" fill="#257C52"/>
<path d="M107.8 33.5107C107.61 33.589 107.398 33.7344 107.308 33.835C107.107 34.0923 106.995 34.0699 106.604 33.7456C106.313 33.4996 106.167 33.466 105.441 33.466C104.96 33.466 104.613 33.5107 104.613 33.5778C104.613 33.6338 104.758 33.6897 104.926 33.6897C105.116 33.6897 105.34 33.7903 105.463 33.9245C105.664 34.137 105.675 34.3942 105.709 37.1676L105.743 40.1758H106.358H106.961V37.4471V34.7185L107.297 34.4277C107.778 34.0252 108.516 33.9357 109.086 34.2264C109.534 34.4389 109.545 34.4389 109.791 34.2376L110.037 34.0252L109.668 33.6897C109.366 33.3989 109.22 33.3542 108.717 33.3542C108.404 33.3654 107.979 33.4325 107.8 33.5107Z" fill="#257C52"/>
<path d="M112.719 33.5436C112.16 33.8344 111.579 34.4718 111.299 35.0757C111.087 35.5566 111.042 35.825 111.042 36.8202C111.042 37.8938 111.076 38.0504 111.377 38.6542C111.769 39.437 112.294 39.8955 113.044 40.1192C113.748 40.3317 114.151 40.3317 114.867 40.1192C115.448 39.9515 116.354 39.191 116.354 38.8779C116.354 38.6431 116.242 38.6878 115.996 39.0009C115.426 39.7278 114.061 39.985 113.29 39.5153C112.809 39.2134 112.35 38.3299 112.25 37.5136L112.183 36.9321H114.386H116.578V36.2835C116.578 34.3823 115.616 33.3535 113.838 33.3535C113.346 33.3647 112.932 33.4318 112.719 33.5436ZM114.777 34.1251C115.146 34.5165 115.347 35.1428 115.347 35.9144V36.4847H113.771H112.183L112.25 35.8138C112.328 35.0645 112.541 34.5725 112.977 34.1028C113.223 33.8456 113.357 33.8008 113.871 33.8008C114.397 33.8008 114.52 33.8456 114.777 34.1251Z" fill="#257C52"/>
<path d="M119.062 33.5887C117.474 34.3939 117.82 36.295 119.688 36.9883C120.639 37.3462 121.477 37.8159 121.712 38.1178C122.126 38.6434 121.981 39.2585 121.365 39.5716C120.952 39.7841 119.632 39.8064 119.241 39.6163C118.805 39.3815 118.38 38.9342 118.313 38.5987C118.212 38.1402 118.033 38.1961 118.033 38.6658C118.033 39.6163 118.704 40.1307 120.079 40.2426C122.059 40.4103 123.39 39.3479 122.965 37.9389C122.786 37.3462 122.238 36.9212 120.907 36.3509C119.778 35.87 119.151 35.3556 119.151 34.9195C119.151 34.1255 119.722 33.7564 120.84 33.8235C121.746 33.8683 122.126 34.0919 122.45 34.7853C122.573 35.0425 122.707 35.2438 122.763 35.255C122.898 35.255 122.853 34.5952 122.685 34.1926C122.439 33.6111 121.969 33.4321 120.661 33.3762C119.688 33.3427 119.487 33.3762 119.062 33.5887Z" fill="#257C52"/>
<path d="M126.421 33.499C125.806 33.6891 124.934 34.662 124.699 35.4225C124.117 37.2341 124.8 39.2247 126.242 39.974C126.947 40.343 128.188 40.3206 128.949 39.9292C129.977 39.3924 130.536 38.4531 130.637 37.0999C130.76 35.456 130.022 34.0582 128.725 33.5214C128.266 33.3313 127.003 33.3201 126.421 33.499ZM128.524 34.0805C129.295 34.7291 129.653 36.5967 129.284 38.0505C129.004 39.1576 128.512 39.6944 127.696 39.795C126.388 39.9628 125.482 38.207 125.761 36.0487C125.873 35.1317 126.153 34.5055 126.645 34.0917C127.137 33.6891 128.043 33.6779 128.524 34.0805Z" fill="#257C52"/>
<path d="M142.355 33.5443C142.176 33.6338 141.907 33.8127 141.784 33.9357C141.549 34.1482 141.538 34.1482 141.203 33.8127C140.878 33.4884 140.811 33.466 140.017 33.466C139.525 33.466 139.167 33.5107 139.167 33.5778C139.167 33.6338 139.313 33.6897 139.492 33.6897C139.715 33.6897 139.894 33.7903 140.051 33.9804C140.275 34.26 140.286 34.4166 140.286 37.2235V40.1758H140.901H141.516V37.4583C141.516 34.4054 141.482 34.5508 142.355 34.1817C142.835 33.9804 143.495 34.0363 143.909 34.3047C144.144 34.4613 144.177 34.4501 144.379 34.2376C144.591 34.0028 144.58 34.0028 144.222 33.6785C143.92 33.4101 143.764 33.3542 143.272 33.3542C142.959 33.3654 142.545 33.4436 142.355 33.5443Z" fill="#257C52"/>
<path d="M147.276 33.6214C146.259 34.0911 145.677 35.0528 145.576 36.4395C145.453 38.0387 146.08 39.3583 147.265 39.9734C147.925 40.32 149.323 40.3312 149.971 39.9845C150.486 39.7161 151.134 39.0899 151.134 38.8662C151.134 38.6426 151.023 38.6873 150.776 39.0004C150.24 39.6826 148.819 39.9845 148.037 39.5708C146.862 38.9669 146.404 36.6073 147.142 34.9969C147.489 34.2365 147.958 33.8898 148.73 33.8227C149.837 33.7333 150.609 34.2365 150.754 35.1535C150.877 35.8692 151.056 35.6679 151 34.8627C150.922 33.6773 150.441 33.353 148.73 33.353C148.025 33.353 147.712 33.409 147.276 33.6214Z" fill="#257C52"/>
<path d="M154.187 33.5875C153.001 34.1691 152.364 35.7347 152.599 37.4457C152.722 38.2956 152.934 38.8324 153.393 39.3356C153.963 39.9842 154.522 40.2302 155.495 40.2302C156.468 40.2302 157.027 39.9842 157.597 39.3356C158.201 38.6646 158.022 38.4633 157.396 39.1119C156.658 39.8724 155.316 39.9842 154.623 39.3468C154.209 38.9777 153.907 38.2956 153.851 37.5799L153.784 36.9313H155.998H158.213L158.145 36.1037C158.112 35.6452 157.989 35.0525 157.877 34.7841C157.609 34.1914 156.982 33.6323 156.423 33.4757C155.708 33.2744 154.712 33.3303 154.187 33.5875ZM156.222 34.046C156.625 34.3592 156.815 34.8289 156.904 35.7459L156.982 36.4839H155.35H153.717L153.784 35.8912C153.862 35.142 154.22 34.3033 154.578 34.0237C154.969 33.7106 155.808 33.7217 156.222 34.046Z" fill="#257C52"/>
<path d="M160.64 33.5656C159.958 33.9347 159.712 34.2925 159.656 34.9635C159.566 36.0371 160.014 36.4844 161.904 37.2784C163.055 37.7481 163.436 38.1059 163.436 38.6874C163.436 39.4926 162.563 39.9175 161.311 39.7163C160.584 39.6044 160.159 39.2913 159.902 38.6986L159.689 38.2177L159.656 38.7098C159.611 39.3137 159.846 39.6827 160.483 40.007C161.121 40.3313 162.854 40.3201 163.491 39.9846C164.252 39.5821 164.476 39.2578 164.531 38.4861L164.576 37.8151L164.039 37.2895C163.637 36.8981 163.234 36.6633 162.496 36.3725C161.233 35.8805 160.752 35.4555 160.752 34.8405C160.752 34.2366 161.121 33.9011 161.859 33.8228C162.966 33.7222 163.715 34.08 164.095 34.9188L164.274 35.3102L164.308 34.8293C164.386 33.8228 163.793 33.4426 162.15 33.3867C161.21 33.3531 160.964 33.3867 160.64 33.5656Z" fill="#257C52"/>
<path d="M25.9286 33.7232C25.6825 33.9357 25.6154 34.1034 25.5707 34.6179C25.5148 35.3559 25.6378 35.4342 25.895 34.8191C26.1746 34.1593 26.5995 33.9916 28.0421 33.9357C28.7914 33.9021 29.2387 33.9245 29.2387 34.0028C29.2387 34.0587 28.4112 35.4342 27.3935 37.0334C26.3759 38.6437 25.5483 40.008 25.5483 40.064C25.5483 40.131 26.6443 40.1758 28.3441 40.1758H31.1398V39.8962V39.6166L29.2052 39.5943L27.2593 39.5607L29.1493 36.5637C30.1781 34.9086 31.028 33.5443 31.028 33.5107C31.028 33.4884 29.9544 33.466 28.6348 33.466C26.2752 33.466 26.2305 33.466 25.9286 33.7232Z" fill="#0E4979"/>
<path d="M66.254 33.5776C66.254 33.6335 66.3994 33.6894 66.5672 33.6894C66.7573 33.6894 66.9809 33.7901 67.1039 33.9242C67.294 34.1367 67.3276 34.4051 67.3723 36.418C67.4282 38.4422 67.4618 38.7106 67.6854 39.1355C67.9986 39.7282 68.4459 40.0413 69.2175 40.2091C69.9444 40.3544 70.6489 40.2203 71.2975 39.7841L71.7113 39.5157L72.0244 39.8512C72.2257 40.0525 72.4494 40.1755 72.6507 40.1755H72.9638V36.8206V33.4657H72.3487H71.7337V36.1944V38.923L71.3423 39.2585C70.716 39.8177 69.8438 39.8624 69.2175 39.3815C68.7031 38.9678 68.6695 38.7888 68.6024 36.3398L68.5465 34.0025L68.2334 33.7341C67.965 33.4993 67.8085 33.4657 67.0816 33.4657C66.6007 33.4657 66.254 33.5105 66.254 33.5776Z" fill="#257C52"/>
<path d="M131.34 33.5771C131.34 33.633 131.486 33.6889 131.653 33.6889C131.844 33.6889 132.067 33.7896 132.19 33.9238C132.38 34.1363 132.414 34.4046 132.47 36.3617C132.548 38.8107 132.615 39.1127 133.275 39.6942C134.136 40.4434 135.4 40.477 136.429 39.7725L136.854 39.4817L137.122 39.8284C137.312 40.0744 137.491 40.175 137.726 40.175H138.05V36.8202V33.4653H137.435H136.82V36.261V39.0568L136.373 39.3475C135.489 39.9402 134.449 39.7613 133.968 38.9449C133.767 38.5983 133.733 38.3075 133.689 36.3169C133.633 34.058 133.566 33.6777 133.174 33.5324C132.884 33.4205 131.34 33.4541 131.34 33.5771Z" fill="#257C52"/>
<path d="M216.385 17.9687L215.896 18.9852H224.162L219.968 11.2667L219.532 12.3045C219.532 12.3045 212.792 9.13972 206.755 8.78857L205.895 9.53112L206.755 15.0007C206.756 14.9996 214.021 16.327 216.385 17.9687Z" fill="#0E4A79"/>
<path d="M195.97 16.8562C195.97 16.8562 193.232 18.0863 192.19 19.8454H184.014C184.014 19.8454 187.49 11.9916 195.97 9.92163C195.97 9.92051 195.657 14.6677 195.97 16.8562Z" fill="#0E4A79"/>
<path d="M220.603 29.1052C219.435 28.1815 218.23 27.4837 217.142 26.9637C215.041 25.9595 213.395 25.6284 213.395 25.6284V24.1411L205.894 26.5645L211.618 32.2096L212.147 30.5881C221.821 32.8224 222.182 41.8482 218.049 47.3256L217.549 47.9429C217.028 48.5479 216.448 49.0981 215.819 49.5768C210.867 53.3532 204.444 52.5212 201.988 52.0124C201.341 51.8782 200.971 51.7641 200.971 51.7641L197.065 53.0916L193.924 54.1841L193.469 54.3441C204.566 61.6107 223.71 57.2337 225.743 43.1712C226.772 36.0398 223.857 31.6885 220.603 29.1052Z" fill="#0E4A79"/>
<path d="M218.049 47.3262C217.889 47.5364 217.722 47.7466 217.549 47.9435C215.037 46.9101 211.808 47.2758 207.46 49.4509C205.869 50.2449 203.999 51.1809 201.987 52.0129C199.433 53.0708 196.649 53.9621 193.923 54.1847C191.206 54.4161 188.551 53.9789 186.242 52.3831C186.242 52.3831 182.491 49.6276 184.015 45.9361C184.015 45.9361 176.573 44.706 181.436 37.0859C181.436 37.0859 177.698 36.0649 178.156 31.8109C178.51 28.5265 181.084 27.7079 181.084 27.7079C181.084 27.7079 176.426 22.4463 182.223 19.7322C186.32 17.8132 195.974 19.3285 195.974 19.3285C195.974 19.3285 192.421 2.64129 202.081 0.428178C202.744 0.272735 203.43 0.222412 204.11 0.222412H206.992C206.992 0.222412 206.097 15.3015 209.276 19.8452C212.036 23.7849 219.433 22.491 220.605 29.1069C219.437 28.1832 218.232 27.4853 217.144 26.9653C217.144 25.8716 215.804 24.7265 214.347 24.0466C211.709 22.8165 206.854 21.8503 205.896 14.3487C204.942 6.8472 205.291 2.33152 205.291 2.33152C205.291 2.33152 201.061 0.895628 198.545 3.53704C193.816 8.50116 197.033 20.4423 197.033 20.4423C197.033 20.4423 186.233 18.9863 183.336 21.8749C182.226 22.982 181.408 24.8864 183.198 28.1205C183.198 28.1205 180.619 30.053 181.143 33.2781C181.672 36.4999 183.722 37.1463 183.722 37.1463C183.722 37.1463 181.378 39.6077 182.084 42.5935C182.785 45.5839 185.717 45.2316 185.717 45.2316C185.717 45.2316 183.815 51.2715 190.405 52.439C199.667 54.0818 207.022 48.9812 209.265 47.9669C212.047 46.7055 215.212 46.2358 218.049 47.3262Z" fill="#279552"/>
</g>
<defs>
<clipPath id="clip0_2496_2155">
<rect width="225.999" height="57.5578" fill="white" transform="translate(0.000732422 0.221191)"/>
</clipPath>
</defs>
</svg>
