<svg width="24" height="25" viewBox="0 0 24 25" fill="none" xmlns="http://www.w3.org/2000/svg">
<path d="M9.56122 11.2859C10.5412 11.8629 11.2702 12.1519 11.9992 12.1519C12.7292 12.1519 13.4582 11.8639 14.4392 11.2859L17.3812 9.54584C17.7382 9.33583 17.8562 8.87588 17.6452 8.51888C17.4352 8.16188 16.9753 8.04382 16.6183 8.25482L13.6772 9.99388C12.2032 10.8609 11.7952 10.8609 10.3232 9.99388L7.38124 8.25384C7.02524 8.04284 6.56519 8.16181 6.35419 8.51781C6.14319 8.87381 6.26225 9.33386 6.61825 9.54486L9.56122 11.2859Z" fill="white"/>
<path fill-rule="evenodd" clip-rule="evenodd" d="M9.07996 21.6099C10.062 21.6349 11.031 21.6479 12 21.6479C12.969 21.6479 13.938 21.6349 14.92 21.6099L14.9214 21.6098C18.1585 21.5278 19.9422 21.4827 21.287 20.1389C22.629 18.7859 22.666 17.0499 22.733 13.8969C22.754 12.8899 22.754 11.9119 22.733 10.9049C22.666 7.75188 22.629 6.01486 21.284 4.65986C19.941 3.31886 18.157 3.27291 14.919 3.19091C12.954 3.14091 11.044 3.14091 9.07898 3.19091L9.07763 3.19095C5.84049 3.27292 4.0568 3.31809 2.71199 4.66191C1.36999 6.01491 1.33299 7.7509 1.26599 10.9039C1.24499 11.9109 1.24499 12.8889 1.26599 13.8959C1.33299 17.0489 1.37002 18.7859 2.71502 20.1409C4.05802 21.4819 5.84196 21.5279 9.07996 21.6099ZM3.77703 19.0809C2.85603 18.1539 2.82702 16.8089 2.76502 13.8639C2.74402 12.8779 2.74402 11.9199 2.76502 10.9349C2.82702 7.98986 2.856 6.64592 3.774 5.71992C4.69293 4.80099 6.07874 4.76587 9.11622 4.68888C11.0562 4.63888 12.942 4.63886 14.881 4.68886C17.919 4.76586 19.305 4.80187 20.222 5.71787C21.143 6.64487 21.172 7.98986 21.234 10.9349C21.255 11.9209 21.255 12.8789 21.234 13.8639C21.172 16.8089 21.143 18.1529 20.225 19.0789C19.3062 19.9977 17.9205 20.0328 14.8837 20.1098L14.882 20.1099C12.942 20.1599 11.057 20.1599 9.11805 20.1099C6.08005 20.0329 4.69403 19.9969 3.77703 19.0809Z" fill="white"/>
</svg>
