<svg width="1728" height="489" viewBox="0 0 1728 489" fill="none" xmlns="http://www.w3.org/2000/svg">
<path d="M1732.62 428.915C1688.34 433.268 538.566 453.745 494.285 458.098C494.285 458.098 462.907 415.623 455.11 403.897C455.392 401.317 501.575 388.639 522.061 378.681C547.833 366.156 554.672 368.218 522.372 287.368C522.353 287.752 535.981 234.806 552.309 224.639C549.151 209.967 532.454 240.422 527.471 264.417C526.157 270.745 514.905 239.795 515.015 241.553C519.571 313.916 545.888 380.979 560.013 363.387C566.559 355.234 476.34 424.04 424.864 411.278C413.924 408.564 401.327 406.029 394.585 406.938C375.137 407.478 357.537 431.422 345.693 440.516C339.219 445.486 357.906 447.641 377.845 421.383C390.94 412.572 406.468 412.534 406.468 412.534C406.468 412.534 401.456 411.44 393.444 414.999C385.433 418.558 376.192 428.771 369.278 434.844C363.297 440.099 353.999 451.574 342.958 458.691C342.833 458.914 343.637 466.817 350.654 463.324C362.86 457.248 393.085 434.777 395.574 433.893C396.846 427.939 386.814 436.794 377.353 443.497C370.359 448.452 361.645 462.843 350.314 468.058C348.906 470.15 355.925 471.456 358.657 469.514C361.466 469.304 415.26 440.054 408.703 440.584C408.703 440.584 405.89 440.761 395.402 446.12C384.914 451.48 375.321 462.211 368.086 466.896C360.851 471.581 376.212 469.796 384.679 469.731C402.096 469.073 397.938 454.58 450.797 455.084C510.757 445.148 565.237 442.974 591.928 423.294C604.544 413.993 601.328 404.669 607.329 381.583C610.02 371.23 607.478 365.135 602.278 354.691C595.629 341.34 599.453 329.928 599.332 329.251C591.325 283.663 592.068 236.015 571.744 207.617C561.21 192.902 539.46 175.121 511.13 172.431C497.884 171.175 497.59 154.47 494.787 136.856C493.181 126.769 481.052 119.786 481.02 116.535C480.929 107.614 482.304 144.41 490.467 154.467C494.194 168.798 502.514 166.395 513.971 168.961C525.429 171.529 558.289 170.165 565.497 172.529C572.705 174.895 574.512 188.64 567.861 187.651C561.21 186.66 536.996 153.415 536.407 144.056C535.818 134.696 534.728 117.381 519.195 109.901C503.663 102.422 495.747 88.824 487.125 63.9945C480.68 45.4385 474.481 26.6044 466.621 14.6721C463.965 10.6395 468.972 12.5389 465.862 10.361C453.553 1.73931 431.605 -2.90093 406.908 8.52061C382.211 19.9422 375.335 37.6736 376.187 43.7272C377.038 49.7808 383.135 32.6017 388.055 28.5325C408.684 11.4763 452.276 8.50416 476.414 20.9731C477.138 27.5046 477.865 34.0378 478.589 40.5694C478.589 40.5694 470.631 30.029 431.953 28.7047C393.277 27.3804 380.823 47.7571 373.62 60.425C371.316 64.4775 354.531 89.9317 365.483 114.026C373.016 130.599 348.321 121.466 343.955 180.457C343.325 188.972 369.561 164.799 387.021 159.023C396.437 155.906 395.278 131.547 395.437 132.725C396.319 139.246 388.534 82.8862 388.534 82.8862C388.534 82.8862 389.817 65.8917 403.556 59.8576C417.296 53.8233 429.614 43.886 429.491 34.497C429.371 25.1079 428.452 36.6771 432.851 46.7367C437.25 56.7963 453.903 56.9911 465.272 58.155C482.688 59.9372 484.01 122.902 467.225 144.18C461.127 151.911 451.838 158.483 446.036 160.495C419.904 169.563 395.053 131.968 395.436 132.725C399.468 140.693 400.972 184.127 400.972 184.127C400.972 184.127 388.996 150.044 397.086 158.933C405.175 167.82 428.047 176.012 430.919 176.771C433.791 177.53 440.078 183.946 440.871 189.066C441.767 195.821 445.67 175.607 445.67 175.607C457.574 167.811 469.476 160.013 481.378 152.216C481.378 152.216 491.579 164.73 489.588 170.493C487.597 176.255 458.611 194.291 455.565 198.242C452.518 202.193 455.411 300.442 455.558 302.783C455.706 305.123 456.891 313.139 442.474 308.409C433.795 307.128 432.395 205.458 429.285 203.186C429.285 203.186 409.813 196.66 399.38 187.92C389.846 179.934 383.703 171.933 366.885 175.717C353.294 186.267 317.906 201.131 307.837 215.092C297.769 229.052 279.352 293.968 283.4 303.223C287.448 312.477 286.014 222.432 287.448 219.099C288.88 215.765 292.885 204.555 306.217 196.628C319.549 188.699 321.138 171.252 321.138 171.252C321.138 171.252 323.227 166.327 332.365 165.431C334.008 165.271 333.983 166.845 324.547 171.689C320.838 173.593 322.406 178.982 325.017 178.349C337.382 175.347 347.993 160.862 344.674 154.409C341.895 149.006 330.884 146.73 320.212 147.165C322.906 147.089 332.56 144.944 343.233 148.744C347.265 150.179 348.939 137.591 338.164 133.054C331.217 130.13 319.159 129.932 319.159 129.932C326.157 129.797 333.158 129.662 340.157 129.526C340.157 129.526 344.572 125.948 339.807 121.646C330.668 113.399 308.592 117.545 298.062 121.618C301.118 117.283 306.148 105.542 299.88 90.8546C293.612 76.1671 287.379 82.195 287.379 82.195C287.379 82.195 287.28 100.697 285.653 108.769C284.657 113.716 278.337 134.56 271.893 146.061C258.046 170.767 267.127 173.219 258.81 204.726C221.004 261.304 226.536 264.483 224.809 266.609C220.382 272.059 220.426 288.653 232.212 295.237C241.628 300.496 261.791 296.951 269.255 293.971C277.438 290.705 293.19 234.152 293.19 234.152C293.19 234.152 270.537 270.294 253.347 258.684C236.157 247.077 241.056 224.865 241.056 224.865C241.056 224.865 220.252 265.467 209.71 301.986C204.328 320.636 201.258 353.603 202.663 362.492C206.818 388.781 238.218 390.541 257.42 384.6C262.265 383.101 285.122 362.192 303.593 333.917C328.313 296.079 351.382 293.479 352.38 294.584C353.378 295.688 340.264 205.239 339.39 238.685C338.516 272.13 359.932 325.723 355.725 363.574C351.52 401.428 336.656 464.383 336.656 464.383C336.656 464.383 308.293 462.409 329.735 444.146C351.176 425.882 422.342 330.25 419.593 346.399C416.844 362.546 398.751 404.093 421.013 383.898C443.274 363.703 474.145 330.75 464.367 354.856C454.589 378.965 427.641 399.455 450.549 389.556C473.458 379.656 549.796 348.949 490.216 376.722C469.629 386.319 490.474 384.613 499.083 396.444C515.388 418.853 540.324 447.434 540.324 447.434L-14.9455 487.105" stroke="#6C90AD" stroke-width="2.39414" stroke-linecap="round" stroke-linejoin="round"/>
</svg>
