<svg width="1025" height="475" viewBox="0 0 1025 475" fill="none" xmlns="http://www.w3.org/2000/svg">
<path d="M1.72266 431.589C1.72266 431.589 205.037 435.243 208.415 433.216C211.789 431.194 248.113 474.073 244.685 472.041C241.251 470.008 261.142 327.871 267.818 324.621C274.483 321.375 458.388 316.405 458.499 322.344C458.606 328.283 438.934 462.906 432.514 462.895C426.084 462.885 257.691 479.482 251.436 471.368C245.168 463.241 211.562 423.459 213.595 422.791C215.628 422.123 245.194 426.743 232.323 428.02C219.405 429.3 129.478 432.061 129.279 423.799C129.082 415.535 140.575 376.401 139.015 369.49C137.455 362.576 87.0545 343.059 106.536 360.025C125.907 376.891 151.028 376.54 163.969 365.732C176.867 354.955 200.385 351.243 192.838 351.797C185.276 352.355 162.533 363.648 152.417 346.984C142.27 330.267 145.998 311.043 153.5 304.323C160.988 297.617 190.158 294.898 197.358 278.636C204.545 262.4 202.923 251.392 207.87 257.705C212.809 264.009 213.179 280.431 207.911 289.867C202.637 299.313 196.403 297.108 201.201 296.54C205.992 295.975 234.912 306.227 231.627 311.599C228.341 316.978 215.256 311.912 215.256 311.912C215.256 311.912 235.047 312.359 230.477 321.113C225.902 329.876 209.401 325.448 212.14 325.504C214.879 325.56 234.668 325.967 230.053 332.684C225.432 339.408 210.363 337.759 210.363 337.759C210.363 337.759 235.606 337.56 228.236 342.865C220.853 348.185 206.452 346.567 196.122 345.013C185.761 343.461 153.357 357.319 143.361 346.825C133.333 336.3 141.582 301.284 137.439 303.257C133.291 305.233 117.927 307.645 116.069 317.983C114.211 328.325 136.253 312.203 144.827 291.017C153.386 269.865 154.065 239.536 144.282 238.53C134.474 237.522 122.063 246.126 116.638 254.278C111.207 262.438 94.1668 344.575 100.49 343.301C106.803 342.028 118.279 264.029 125.74 253.166C133.19 242.322 138.542 232.123 152.248 221.529C165.907 210.977 184.39 193.761 184.623 173.813C184.856 153.857 187.839 133.327 192.517 126.665C197.189 120.004 211.503 114.523 234.723 112.937C257.796 111.363 282.434 126.89 285.7 122.29C288.962 117.691 290.236 114.359 276.004 109.557C261.717 104.735 235.118 99.9432 218.09 102.493C200.982 105.055 188.152 116.808 192.972 116.357C197.786 115.904 197.835 87.681 223.813 82.8865C249.612 78.127 271.543 90.2437 278.63 106.285C285.699 122.29 292.066 137.543 296.482 156.067C300.886 174.562 291.988 197.242 292.216 208.094C292.445 218.943 297.352 229.272 297.352 229.272C297.352 229.272 287.893 225.556 284.842 208.497C281.792 191.416 285.149 159.639 282.045 171.732C278.939 183.83 272.913 216.886 246.543 217.303C219.982 217.723 204.806 182.885 204.433 166.394C204.061 149.894 207.063 130.797 218.018 129.943C228.941 129.093 234.571 136.892 245.412 134.665C256.222 132.444 260.82 125.844 267.691 130.945C274.55 136.038 280.82 145.854 281.725 156.77C282.631 167.681 287.242 195.023 279.49 209.657C271.722 224.315 255.483 223.069 253.539 227.086C251.593 231.105 249.565 262.357 248.03 254.144C246.493 245.922 248.789 226.925 242.646 225.349C236.49 223.769 229.824 230.37 219.967 217.039C210.079 203.665 207.524 181.622 206.274 187.06C205.024 192.501 211.86 191.395 198.44 205.288C200.963 202.677 107.953 240.789 179.507 221.788C193.226 218.146 204.678 207.579 204.803 213.068C204.926 218.56 197.625 229.966 214.203 234.632C230.703 239.275 235.37 234.653 236.186 240.821C237.003 246.986 244.398 305.088 250.236 292.987C256.066 280.906 250.505 243.327 258.593 241.547C266.661 239.771 272.749 240.648 278.71 236.093C284.663 231.547 280.352 218.511 281.801 223.311C283.247 228.109 319.763 248.251 327.171 253.199C334.565 258.138 331.869 320.589 327.655 309.067C323.439 297.531 326.438 249.809 334.565 258.138C342.67 266.449 356.072 322.855 353.65 320.39C352.306 319.022 331.705 280.254 329.576 241.154C327.983 211.861 326.904 180.313 324.92 167.869C321.173 144.382 301.651 234.842 305.449 232.928C312.288 226.293 321.776 165.342 319.636 145.603C319.94 128.032 314.823 106.111 306.887 109.772C298.936 113.439 284.396 124.266 291.696 119.867C298.976 115.476 308.68 99.6931 319.921 94.8634C331.127 90.0497 331.434 83.3818 337.123 69.5041C342.807 55.6399 341.953 46.1241 347.077 37.6545C352.197 29.1933 359.372 24.929 380.463 27.6427C401.43 30.3404 436.785 37.7437 441.265 36.0208C445.739 34.3007 443.707 28.8384 420.273 19.3188C396.675 9.73581 360.476 14.2015 353.976 19.1739C347.467 24.1571 351.562 30.5045 353.411 23.8661C355.258 17.2326 368.874 5.99058 385.224 3.05955C401.499 0.138403 432.243 2.05 437.827 24.4606C443.395 46.8187 438.956 50.5495 446.343 66.982C453.71 83.3711 449.456 96.4354 454.248 112.641C459.029 128.815 470.82 144.631 470.82 144.631C470.82 144.631 454.686 136.568 446.696 120.896C438.684 105.179 437.779 91.1433 432.327 75.5075C426.864 59.8403 428.647 54.3185 414.992 52.8137C401.284 51.3059 390.253 59.851 382.355 57.3581C374.438 54.8596 377.59 48.3237 369.057 48.4717C360.503 48.6168 356.542 48.3748 354.156 61.0514C351.77 73.7336 350.152 80.9591 341.087 90.5889C332.002 100.24 320.284 112.486 326.709 101.314C333.122 90.1579 353.471 81.8178 354.199 85.2289C354.927 88.64 363.819 138.232 388.745 139.414C413.499 140.588 435.121 87 428.661 86.642C422.187 86.2864 427.223 113.245 422.383 131.007C417.543 148.785 397.363 146.513 394.206 151.72C391.045 156.931 388.955 183.607 386.117 172.112C383.279 160.601 385.085 152.643 381.734 148.468C378.377 144.29 378.589 155.028 369.713 137.169C360.81 119.254 356.516 102.203 353.376 110.122C350.238 118.051 349.404 142.263 359.464 150.805C369.496 159.32 377.974 157.012 377.437 163.024C376.899 169.035 386.185 208.918 388.614 199.649C391.043 190.383 393.814 165.083 400.892 160.716C407.958 156.355 419.602 154.88 425.186 142.475C430.768 130.084 429.795 112.712 432.504 119.512C435.213 126.31 480.977 142.468 487.034 161.247C493.075 179.986 503.045 279.03 484.225 288.371C465.309 297.764 418.551 270.003 421.722 266.773C424.888 263.545 435.764 259.232 436.841 247.99C437.919 236.748 432.641 229.929 429.379 227.821C426.111 225.713 414.998 219.325 412.851 208.589C410.699 197.839 410.15 169.137 403.244 181.526C396.326 193.936 401.898 212.845 401.898 212.845C401.898 212.845 387.476 208.299 383.715 216.184C379.947 224.077 393.69 225.9 393.69 225.9C393.69 225.9 372.739 223.821 380.065 230.101C387.372 236.369 399.809 239.456 399.809 239.456C399.809 239.456 371.694 237.179 379.673 243.468C387.632 249.737 396.098 249.342 396.098 249.342C396.098 249.342 374.475 245.304 383.793 253.625C393.085 261.924 400.989 266.826 411.3 263.138C421.582 259.461 424.257 264.191 427.258 252.33C430.26 240.471 427.455 228.42 437.164 230.751C446.846 233.077 464.159 228.387 466.201 235.72C468.247 243.051 465.358 259.456 456.868 248.623C448.355 237.761 445.006 237.65 443.868 211.088C442.732 184.496 462.473 142.25 473.591 156.674C484.666 171.049 486.316 192.238 483.61 218.517C480.904 244.8 477.579 307.293 477.579 307.293C477.579 307.293 474.01 424.809 463.425 427.173C452.81 429.542 449.157 424.629 457.395 421.024C465.613 417.428 495.066 418.886 495.066 418.886C495.066 418.886 725.182 419.576 694.343 419.32C663.224 419.064 511.419 417.807 510.059 406.883C506.277 395.951 499.118 258.382 506.764 285.305C510.742 312.174 507.619 400.794 497.194 406.756C486.74 412.736 460.969 422.274 460.679 406.396C460.385 390.513 465.997 243.75 475.198 229.359C484.381 214.996 518.164 201.636 529.744 197.224C541.286 192.828 541.203 187.966 541.203 187.966C541.203 187.966 536.709 179.569 538.957 183.769C541.203 187.966 549.609 196.96 554.839 198.532C560.06 200.104 561.34 225.127 564.215 216.156C567.09 207.192 562.237 201.101 570.396 198.25C578.533 195.404 584.112 194.726 589.578 187.707C595.04 180.703 596.16 170.349 598.788 174.083C601.414 177.811 605.375 185.209 604.614 191.045C603.851 196.884 594.204 208.697 586.058 208.834C577.894 208.969 576.201 210.716 575.414 215.217C574.626 219.719 570.017 253.986 564.248 244.281C558.47 234.557 559.429 214.16 554.619 211.252C549.8 208.34 543.789 212.205 538.427 203.8C533.055 195.38 532.549 191.256 533.719 183.093C534.888 174.931 531.84 149.685 532.373 155.19C532.902 160.695 545.957 186.34 562.839 185.228C579.641 184.122 590.584 170.101 594.684 158.518C598.783 146.947 601.495 128.98 597.479 118.816C593.459 108.637 592.449 99.0583 584.264 97.7045C576.061 96.3448 566.166 98.5332 562.24 96.4981C558.308 94.4575 553.466 90.0858 548.714 91.6471C543.958 93.2116 539.242 97.5215 534.004 97.2361C528.758 96.9508 525.662 94.9507 524.053 103.102C522.443 111.262 526.775 134.359 526.947 144.428C527.121 154.491 532.964 164.348 525.778 178.191C518.581 192.055 492.882 204.766 497.276 204.021C501.664 203.276 510.473 179.368 510.648 164.265C510.822 149.157 503.193 140.086 506.474 126.483C509.753 112.89 512.559 97.4434 516.864 92.6321C521.164 87.8298 550.317 83.5199 570.284 86.0184C590.133 88.4977 603.946 94.7078 603.459 91.0602C602.973 87.4072 596.021 81.1215 572.31 77.9416C548.433 74.7382 509.578 77.541 512.303 82.7446C515.028 87.9458 519.046 66.6164 535.995 60.2903C552.864 53.9933 577.136 56.3809 587.238 68.808C597.307 81.1938 606.568 98.4742 607.71 116.632C608.85 134.773 605.502 139.129 611.277 153.414C617.038 167.668 636.239 178.547 626.494 179.026C616.72 179.507 595.956 157.673 601.217 165.6C606.471 173.515 619.411 183.549 639.814 186.663C660.093 189.762 672.691 190.736 683.041 212.588C693.352 234.361 726.78 316.947 714.657 334.362C702.5 351.831 625.358 347.736 627.777 339.716C630.193 331.702 632.482 315.628 629.819 307.495C627.154 299.357 627.138 298.461 621.185 297.408C615.222 296.353 601.511 291.494 596.149 276.925C590.779 262.326 593.757 234.431 581.933 245.778C570.068 257.157 586.899 287.491 586.899 287.491C586.899 287.491 556.742 286.667 563.793 295.012C570.828 303.336 591.39 300.24 588.818 300.175C586.246 300.111 553.506 300.184 559.697 308.492C565.878 316.786 577.907 315.254 577.907 315.254C577.907 315.254 554.629 315.62 561.651 322.119C568.658 328.601 583.279 328.913 583.279 328.913C583.279 328.913 555.72 329.234 569.713 340.373C583.648 351.465 610.067 347.451 615.926 341.279C621.771 335.113 624.135 323.505 623.982 313.634C623.829 303.759 614.383 297.231 630.486 295.858C646.513 294.487 657.483 296.566 671.673 292.479C685.806 288.411 705.4 322.649 691.981 312.575C678.504 302.459 667.513 294.151 658.803 272.477C650.066 250.734 640.483 230.686 647.048 218.37C653.606 206.072 675.191 247.1 684.164 290.145C693.105 333.024 707.627 421.787 695.808 405.76C683.943 389.67 653.03 335.754 653.404 360.75C653.78 385.724 673.647 408.414 657.578 397.588C641.427 386.708 581.858 346.923 607.954 375.249C633.831 403.338 690.202 419.878 707.603 420.02C724.915 420.163 1022.95 420.343 1022.95 420.343" stroke="#6C90AD" stroke-width="2.3282" stroke-miterlimit="10" stroke-linecap="round"/>
</svg>
