<svg width="1140" height="606" viewBox="0 0 1140 606" fill="none" xmlns="http://www.w3.org/2000/svg">
<path d="M1.5 596.892C1.5 596.892 147.018 593.43 132.297 596.584C117.575 599.74 108.111 500.894 103.903 486.17C99.6975 471.448 94.4392 456.728 90.2343 477.757C86.0283 498.792 68.1513 540.852 82.8741 545.058C97.5956 549.265 163.843 559.779 199.596 551.367C235.347 542.955 267.946 544.007 265.842 546.111C263.74 548.213 267.946 470.397 267.946 434.644C267.946 398.894 259.533 363.14 259.533 358.934C259.533 354.728 235.347 369.448 233.246 353.677C231.142 337.904 235.348 320.026 231.142 325.284C226.936 330.541 205.92 320.472 204.464 325.203C203.008 329.932 214.289 331.023 213.196 334.298C212.105 337.572 208.101 339.391 196.095 338.664C184.087 337.937 169.533 333.206 178.629 338.664C187.727 344.122 204.1 344.122 200.097 344.849C196.095 345.579 170.261 341.578 179.72 346.306C189.181 351.038 195.732 351.764 195.732 351.764C195.732 351.764 170.261 351.764 182.632 355.404C195.003 359.041 202.644 357.949 200.826 359.041C199.005 360.131 175.718 361.954 193.548 362.68C211.378 363.407 219.746 362.315 228.842 357.949C237.94 353.581 247.399 351.037 245.579 339.756C243.761 328.477 229.569 321.563 238.667 322.29C247.763 323.019 261.953 307.737 265.956 309.194C269.958 310.647 272.141 323.019 268.139 317.561C264.136 312.103 254.677 300.822 255.404 275.719C256.131 250.611 266.32 209.494 265.229 222.228C264.136 234.963 264.502 258.253 239.758 273.535C215.015 288.814 184.087 296.455 191.001 304.828C197.913 313.195 210.649 304.097 195.003 292.82C179.357 281.538 144.062 270.261 136.421 236.42C128.781 202.579 129.508 201.488 120.411 197.121C111.315 192.754 106.22 180.75 97.4888 192.027C88.7561 203.309 80.0225 294.638 83.6622 323.746C87.3001 352.855 88.0275 422.717 98.9427 433.633C109.86 444.549 136.785 423.446 133.874 424.899C130.963 426.356 137.513 435.815 140.424 446.005C143.334 456.192 145.518 472.201 141.152 468.564C136.785 464.924 133.874 452.555 133.147 457.648C132.419 462.742 126.598 501.31 124.414 496.217C122.23 491.124 125.869 471.474 123.687 475.114C121.503 478.751 111.315 504.223 112.771 494.033C114.225 483.848 114.953 469.291 114.953 472.931C114.953 476.567 99.6714 509.316 101.126 496.217C102.582 483.117 108.404 462.014 108.404 464.198C108.404 466.381 101.854 497.673 99.6714 486.03C97.4888 474.385 98.943 461.288 101.126 448.915C103.31 436.542 97.4888 425.63 109.86 421.263C122.23 416.896 133.874 419.08 130.235 417.623C126.598 416.166 114.953 359.405 118.593 326.656C122.23 293.911 122.23 268.438 120.776 235.693C119.32 202.944 101.854 197.121 106.22 184.025C110.588 170.926 137.513 156.37 141.88 132.354C146.246 108.341 138.969 63.2225 169.533 52.303C200.097 41.3899 221.93 49.3928 227.751 85.7814C233.572 122.167 230.662 143.999 218.29 162.192C205.92 180.385 170.988 206.585 172.443 200.761C173.901 194.938 188.453 173.108 181.906 175.292C175.355 177.476 144.062 186.935 158.617 178.929C173.171 170.926 199.37 159.279 211.741 135.994C224.112 112.708 217.562 82.8685 206.647 74.8654C195.732 66.8593 168.077 66.8593 162.256 88.6917C156.435 110.524 159.345 156.37 183.36 154.916C207.375 153.46 214.652 133.083 216.107 143.27C217.563 153.46 199.37 167.286 206.647 169.468C213.925 171.652 216.836 153.46 235.028 165.829C253.221 178.202 259.043 180.385 249.583 205.854C240.123 231.326 178.266 253.885 210.285 250.245C242.306 246.61 266.32 215.313 267.048 211.677C267.777 208.037 260.499 175.292 262.683 181.842C264.866 188.388 299.797 296.094 299.797 317.197C299.797 338.303 267.048 363.772 268.504 353.581C269.958 343.396 290.336 208.037 300.523 207.311C310.712 206.585 325.994 237.146 326.722 256.795C327.45 276.445 327.45 350.672 316.533 355.038C305.618 359.405 288.152 355.038 309.983 350.672C331.816 346.306 382.029 325.929 384.213 331.753C386.395 337.572 370.386 349.215 382.029 360.862C393.671 372.505 405.314 360.131 395.129 365.228C384.939 370.321 299.797 405.25 280.876 384.147C261.953 363.045 295.43 230.597 298.34 221.136C301.251 211.677 303.435 202.943 313.623 199.304C323.811 195.668 336.182 192.754 341.276 189.844C346.37 186.934 347.099 178.928 346.37 186.934C345.643 194.937 339.821 200.761 355.831 235.693C371.839 270.622 394.403 315.013 392.219 317.197C390.035 319.379 307.073 257.522 314.35 248.062C321.629 238.602 337.638 232.779 334 226.96C330.36 221.136 317.99 214.586 326.722 210.22C335.455 205.853 350.737 184.024 352.191 187.661C353.648 191.301 373.296 252.429 390.761 238.602C408.228 224.776 407.498 189.845 408.228 193.485C408.954 197.121 412.595 286.631 419.871 275.718C427.147 264.802 451.163 226.23 443.887 224.046C436.607 221.863 419.144 222.593 424.964 216.77C430.787 210.951 432.24 206.585 430.06 202.217C427.877 197.851 425.694 191.301 412.595 186.205C399.495 181.111 397.311 172.378 397.311 172.378C397.311 172.378 387.852 189.845 371.113 184.751C354.375 179.658 342.732 154.915 342.732 141.086C342.732 127.261 354.375 96.6943 354.375 96.6943C354.375 96.6943 356.558 110.524 371.112 118.527C385.668 126.534 395.128 146.183 397.311 156.37C399.495 166.559 400.951 176.745 412.595 181.842C424.237 186.934 441.703 181.111 435.88 184.751C430.06 188.388 427.146 189.845 422.78 165.102C418.414 140.36 431.513 101.791 406.044 79.9588C380.571 58.1265 355.83 76.318 355.83 76.318C355.83 76.318 338.364 80.6854 336.182 94.5109C333.999 108.341 339.092 152.002 332.543 167.286C325.994 182.568 313.623 187.661 322.354 184.751C331.089 181.842 344.188 183.295 350.009 202.944C355.831 222.594 379.118 257.522 391.488 264.072C403.861 270.622 411.137 322.29 406.771 349.946C402.404 377.598 401.677 426.357 374.023 432.179C346.37 437.999 281.603 406.706 296.157 403.798C310.712 400.883 310.712 401.614 310.712 407.433C310.712 413.256 301.251 451.825 301.251 488.213C301.251 524.599 304.89 598.1 304.89 598.1C304.89 598.1 259.772 609.743 259.772 599.553C259.772 589.367 252.494 499.126 249.583 511.5C246.673 523.873 255.792 595.535 243.421 602.082C231.05 608.632 155.707 597.369 195.732 598.1C235.756 598.827 344.188 598.1 347.098 595.916C350.01 593.733 437.336 595.186 427.877 591.549C418.414 587.91 440.246 465.651 442.43 439.455C444.613 413.257 435.154 367.412 428.604 377.598C422.054 387.787 413.321 412.53 417.688 423.446C422.054 434.359 455.529 437.273 459.895 424.173C464.263 411.073 458.439 386.331 454.073 389.24C449.706 392.154 408.954 413.983 403.861 429.266C398.768 444.549 382.755 475.841 395.129 466.381C407.498 456.921 432.24 446.732 417.688 456.921C403.131 467.108 382.029 459.831 380.571 480.933C379.118 502.04 365.29 587.91 365.29 587.91C365.29 587.91 415.504 525.326 408.227 540.608C400.951 555.891 377.663 577.724 389.305 576.266C400.951 574.81 420.597 569.717 413.321 577.724C406.045 585.726 396.585 581.361 411.138 587.183C425.694 593.003 467.898 590.093 467.898 590.093C467.898 590.093 441.255 604.137 441.255 577.658C441.255 551.182 433.839 373.238 447.607 373.238C461.379 373.238 509.042 379.595 515.398 371.121C521.75 362.647 509.042 346.758 514.335 353.115C519.633 359.471 606.485 352.056 577.887 359.471C549.289 366.882 522.809 362.647 497.391 353.115C471.97 343.582 461.379 347.817 467.735 329.81C474.087 311.808 504.803 296.978 494.211 300.154C483.62 303.334 450.787 291.68 444.431 300.154C438.074 308.628 468.794 321.341 458.203 324.517C447.607 327.693 397.827 330.869 420.071 348.876C442.313 366.882 478.326 373.239 450.787 367.941C423.248 362.647 403.123 329.81 417.951 294.86C432.781 259.906 447.607 175.172 463.496 184.704C479.385 194.237 468.794 247.198 468.794 229.191C468.794 211.185 462.437 180.469 482.561 173.054C502.685 165.64 518.84 165.468 523.572 156.734C528.3 148.002 527.208 141.817 527.573 144C527.939 146.183 530.848 160.01 538.124 161.463C545.404 162.919 547.949 189.118 546.131 181.477C544.313 173.835 541.764 162.554 554.499 159.644C567.233 156.734 575.605 158.552 585.791 149.458C595.981 140.36 597.434 131.627 599.617 136.72C601.8 141.817 606.897 149.458 603.622 158.191C600.347 166.921 591.249 176.745 573.783 177.837C556.317 178.929 547.588 232.779 542.491 218.227C537.398 203.671 543.583 183.66 534.85 178.202C526.121 172.744 509.746 173.108 507.563 174.562C505.379 176.019 512.291 157.461 497.373 159.279C482.456 161.102 456.621 174.2 474.814 172.745C493.007 171.287 501.013 154.186 497.008 130.17C493.007 106.158 482.82 105.067 487.548 86.1442C492.28 67.225 496.646 53.7599 504.288 48.3018C511.929 42.8435 522.481 39.2081 545.767 38.4772C569.055 37.7507 620.724 55.5781 619.994 49.3936C619.267 43.209 615.266 39.5721 593.798 35.9324C572.331 32.2927 528.301 25.7427 514.113 29.0183C499.921 32.2927 486.457 46.1192 494.463 43.5744C502.466 41.0255 502.105 13.3737 525.029 5.0052C547.95 -3.36627 578.15 2.09202 593.798 14.8266C609.443 27.5612 619.994 43.5744 619.268 65.4027C618.541 87.2364 607.625 101.792 621.086 119.62C634.55 137.451 661.476 173.836 652.377 176.746C643.283 179.659 622.542 163.284 613.809 142.544C605.076 121.803 595.251 127.261 595.251 109.069C595.251 90.8757 596.708 69.4076 587.975 66.8596C579.242 64.3116 581.426 71.5911 562.507 67.5862C543.583 63.5853 542.13 55.2167 532.667 56.6731C523.208 58.1272 511.565 53.7599 508.289 67.9516C505.015 82.1422 512.291 148.367 545.767 152.368C579.242 156.37 587.974 104.337 592.342 114.527C596.708 124.712 595.251 165.103 628 180.385C660.75 195.669 673.119 194.212 673.119 220.411C673.119 246.611 643.283 376.142 595.982 375.416C548.68 374.689 474.449 346.307 481.729 333.938C489.005 321.564 491.188 300.461 507.924 299.732C524.664 299.005 569.782 300.461 574.876 309.195C579.972 317.924 575.605 347.033 572.692 328.84C569.782 310.648 567.599 305.555 583.608 267.712C599.617 229.871 625.817 177.476 649.103 207.312C672.392 237.147 637.46 347.763 639.642 392.154C641.826 436.543 667.298 605.376 653.469 574.083C639.642 542.793 584.334 415.441 584.334 444.55C584.334 473.659 596.708 547.159 587.974 527.51C579.242 507.862 544.314 459.833 543.583 484.575C542.856 509.317 563.233 561.712 554.499 573.358C545.766 585.002 517.387 551.526 518.114 554.436C518.84 557.346 511.565 588.641 508.655 594.461C505.741 600.284 455.53 597.37 485.365 591.55C515.205 585.727 678.941 595.186 678.941 595.186C678.941 595.186 657.649 399.424 675.54 436.389C693.425 473.355 711.311 530.595 717.273 515.092C723.234 499.59 718.466 443.545 730.391 475.739C742.315 507.937 778.09 591.412 768.55 593.796C759.01 596.181 722.044 591.412 749.47 586.64C776.896 581.872 850.831 587.833 846.059 583.061C841.292 578.294 834.135 476.933 834.135 445.929C834.135 414.925 854.409 357.687 846.059 371.994C837.713 386.305 691.041 345.762 689.847 337.412C688.653 329.066 725.623 305.218 707.733 302.831C689.847 300.446 668.383 293.294 663.611 305.218C658.843 317.142 644.535 336.222 661.228 336.222C677.923 336.222 707.733 329.066 712.504 319.526C717.273 309.986 706.542 302.831 723.234 306.408C739.93 309.986 817.443 313.565 813.865 324.298C810.288 335.028 800.748 340.99 800.748 324.298C800.748 307.603 794.786 321.91 801.938 281.367C809.094 240.823 821.018 171.66 840.097 189.549C859.177 207.435 854.409 286.139 854.409 309.986C854.409 333.837 840.097 371.994 837.713 350.53C835.329 329.066 846.059 237.245 841.291 215.781C836.52 194.317 837.713 185.971 819.827 181.199C801.938 176.432 785.246 160.93 785.246 160.93C785.246 160.93 780.474 166.892 768.549 172.853C756.626 178.815 751.854 178.815 751.854 187.162C751.854 195.512 757.816 224.131 751.854 207.436C745.892 190.74 745.892 176.432 745.892 176.432C745.892 176.432 730.39 171.66 729.2 166.892C728.005 162.12 735.162 157.352 728.005 162.12C720.85 166.892 711.31 169.276 697.002 176.432C682.691 183.584 687.462 307.603 688.652 268.252C689.846 228.899 694.224 178.929 683.308 181.112C672.392 183.296 660.749 193.485 669.481 188.388C678.214 183.296 681.85 169.469 691.311 160.737C700.774 152.003 702.227 144 702.227 135.267C702.227 126.535 697.133 99.6085 705.867 82.8688C714.599 66.1333 721.149 61.767 734.249 59.5833C747.345 57.4007 805.563 75.5922 804.11 67.5862C802.653 59.5833 796.103 55.9433 775.001 53.0333C753.895 50.1241 713.87 51.577 712.417 55.2167C710.959 58.8565 715.326 37.7504 732.792 30.4741C750.258 23.1978 783.734 29.0181 791.736 41.3904C799.743 53.7596 801.197 69.7699 803.379 93.0585C805.563 116.344 820.119 127.261 820.845 141.087C821.576 154.916 813.569 169.469 810.66 167.286C807.746 165.103 804.11 149.094 801.926 133.81C799.744 118.528 796.833 79.233 786.644 79.9596C776.454 80.6862 776.454 93.0586 763.358 90.8759C750.258 88.6922 745.161 77.7759 733.518 79.2333C721.876 80.6865 714.599 77.0496 714.599 88.6922C714.599 100.335 716.052 154.916 744.435 155.643C758.199 155.993 771.792 148.817 781.064 139.835C790.912 130.299 795.88 118.725 791.01 111.978C781.551 98.8791 778.637 159.28 792.467 176.746C806.292 194.212 771.361 299.005 763.358 286.632C755.351 274.262 742.252 218.228 729.152 244.427C716.052 270.623 767.724 293.911 775.001 307.008C782.277 320.107 660.018 365.955 655.652 355.765C651.285 345.58 641.099 335.39 657.834 343.397C674.574 351.399 689.857 352.856 707.323 363.773C724.786 374.689 758.261 534.787 773.544 485.3C788.828 435.816 791.01 389.241 796.103 423.447C801.197 457.649 825.942 555.892 837.585 572.628C849.228 589.368 858.031 590.379 864.511 588.641C873.525 586.217 895.884 586.217 897.424 580.05C898.965 573.88 908.987 506.808 898.195 488.306C887.403 469.803 849.627 450.529 871.985 457.47C894.339 464.407 910.531 488.306 908.987 476.744C907.446 465.178 910.531 442.048 910.531 461.322C910.531 480.599 906.676 505.268 909.761 529.167C912.842 553.066 917.468 582.362 913.612 583.132C909.761 583.906 980.428 588.783 980.428 588.783C980.428 588.783 1003.04 467.492 998.42 470.574C993.795 473.659 938.285 474.429 930.576 464.407C922.864 454.385 912.842 372.666 910.531 337.201C908.216 301.736 919.012 231.58 930.576 204.598C942.137 177.615 945.223 148.32 952.934 156.027C960.641 163.738 969.122 177.615 967.581 180.696C966.04 183.781 946.767 183.011 954.474 188.407C962.185 193.803 980.688 196.118 970.666 205.369C960.641 214.621 926.719 249.312 919.782 274.755C912.842 300.196 903.591 341.057 905.135 331.035C906.676 321.01 908.987 406.588 908.987 406.588C908.987 406.588 879.692 399.646 892.028 405.043C904.361 410.443 922.093 411.984 913.612 413.525C905.135 415.069 894.339 405.817 889.714 413.525C885.088 421.235 884.318 452.845 868.129 454.385C851.938 455.926 834.978 457.47 848.081 454.385C861.189 451.3 872.755 452.071 880.462 401.962C888.173 351.849 892.799 340.283 884.318 303.281C875.837 266.274 882.006 206.14 885.862 190.722C889.714 175.3 892.028 168.363 888.943 168.363C885.862 168.363 853.482 185.323 855.793 189.178C858.108 193.033 875.066 196.118 871.211 199.2C867.359 202.285 857.334 202.285 859.648 206.911C861.959 211.536 868.9 231.58 873.525 263.189C878.151 294.8 873.525 193.804 876.61 187.637C879.692 181.471 896.53 170.379 896.53 170.379C896.53 170.379 905.262 188.389 912.357 185.662C919.454 182.931 939.103 160.011 939.103 164.377C939.103 168.743 935.828 214.044 933.645 210.222C931.462 206.403 918.362 186.206 916.723 194.395C915.088 202.581 912.904 228.78 909.63 251.156C906.354 273.536 908.538 347.763 905.811 354.858C903.08 361.955 892.711 378.325 892.711 376.143C892.711 373.959 882.886 369.596 885.069 353.766C887.253 337.939 882.887 254.43 889.436 228.779C895.985 203.128 904.172 193.304 904.172 193.304L894.346 195.486C894.346 195.486 889.98 165.469 890.527 157.279C891.072 149.094 886.161 127.809 887.253 133.811C888.344 139.817 895.437 157.827 913.448 159.463C931.462 161.102 949.471 141.452 951.111 129.444C952.747 117.436 956.565 89.0539 959.84 97.2432C963.115 105.428 963.115 122.895 957.657 117.984C952.203 113.07 948.38 107.612 946.744 96.1513C945.105 84.6916 944.561 64.4943 942.921 68.3173C941.286 72.136 941.83 74.8662 926.547 72.136C911.265 69.4079 902.535 67.2253 895.438 71.044C888.344 74.8659 884.521 90.1496 883.977 96.6954C883.43 103.248 885.069 117.984 885.069 115.253C885.069 112.526 879.063 96.151 879.063 107.067C879.063 117.984 882.886 137.633 883.977 128.352C885.069 119.075 876.88 108.703 878.519 83.5996C880.155 58.4916 886.161 53.5777 910.173 48.667C934.189 43.7563 944.561 41.5739 946.745 45.3927C948.928 49.2146 943.47 54.6697 944.013 53.0336C944.561 51.3943 944.013 43.209 953.839 50.3034C963.663 57.4007 964.207 68.8603 964.207 79.7766C964.207 90.6929 940.195 134.359 949.472 148.546C958.749 162.737 960.388 166.56 980.581 176.385C1000.78 186.206 1010.06 193.303 1010.06 193.303C1010.06 193.303 991.498 236.421 994.773 220.594C998.047 204.763 1004.05 173.654 1014.97 196.578C1025.88 219.502 1043.35 318.837 1045.53 348.307C1047.71 377.782 1045.53 446.55 1038.98 448.733C1032.43 450.916 1003.51 454.191 1007.32 446.006C1011.15 437.817 999.686 364.137 1004.6 353.765C1009.51 343.397 1018.24 343.397 1012.78 341.213C1007.32 339.03 996.957 343.941 996.412 330.841C995.865 317.745 971.304 280.082 983.312 257.706C995.32 235.329 996.956 221.137 1003.51 235.329C1010.06 249.519 1046.62 371.775 1034.62 377.233C1022.61 382.691 1020.42 382.148 1025.88 392.516C1031.34 402.888 1032.98 419.26 1032.98 421.99C1032.98 424.718 1016.61 439.456 1013.33 444.367C1010.06 449.281 1008.42 456.922 1008.42 467.839C1008.42 467.839 998.503 496.448 1004.24 493.26C1009.98 490.072 1018.91 469.029 1018.91 472.22C1018.91 475.407 1022.1 486.246 1016.36 497.086C1010.62 507.927 990.216 514.938 1004.24 515.578C1018.27 516.216 1029.11 495.174 1029.11 497.086C1029.11 498.998 1004.88 519.404 1018.27 516.216C1031.66 513.026 1036.13 500.912 1036.13 500.912C1036.13 500.912 1027.84 523.869 1034.85 512.391C1041.87 500.912 1041.83 487.321 1042.8 468.927C1043.48 456.203 1039.53 441.64 1035.71 440.001C1031.89 438.365 1010.6 448.733 1004.6 440.001C998.592 431.268 992.589 349.399 988.771 340.122C984.948 330.841 932.005 353.221 946.745 355.948C961.48 358.679 982.765 350.49 974.58 365.229C966.391 379.964 938.555 412.166 958.749 417.081C978.946 421.99 988.771 415.441 989.862 430.724C990.954 446.006 985.496 479.844 981.673 511.501C977.854 543.159 976.951 577.683 968.218 577.683C959.484 577.683 1128.08 578.584 1139 578.584" stroke="url(#paint0_linear_2182_525)" stroke-width="2" stroke-miterlimit="10" stroke-linecap="round" stroke-linejoin="round"/>
<defs>
<linearGradient id="paint0_linear_2182_525" x1="554" y1="604" x2="554" y2="0.999972" gradientUnits="userSpaceOnUse">
<stop stop-color="#149C75" stop-opacity="0"/>
<stop offset="1" stop-color="#10637C"/>
</linearGradient>
</defs>
</svg>
