<svg width="190" height="64" viewBox="0 0 190 64" fill="none" xmlns="http://www.w3.org/2000/svg">
<rect x="1.23438" y="0.867188" width="188.267" height="62" rx="7.5" stroke="#727272"/>
<path fill-rule="evenodd" clip-rule="evenodd" d="M44.3502 32.9743C44.3074 28.5631 47.9434 26.4154 48.1113 26.3162C46.0529 23.2981 42.8616 22.8878 41.7385 22.8546C39.0609 22.5734 36.4623 24.4696 35.0988 24.4696C33.7056 24.4696 31.6011 22.8845 29.3385 22.9308C26.4205 22.9772 23.6934 24.6748 22.1982 27.3056C19.1155 32.6765 21.4144 40.5657 24.3719 44.9074C25.854 47.0319 27.5798 49.4079 29.8424 49.3219C32.0556 49.2292 32.8822 47.9055 35.5533 47.9055C38.2012 47.9055 38.9785 49.3219 41.2873 49.2689C43.6619 49.2292 45.1571 47.1345 46.5832 44.9868C48.2958 42.5512 48.9809 40.152 49.0072 40.0296C48.9512 40.0097 44.3963 38.2624 44.3502 32.9743" fill="white"/>
<path fill-rule="evenodd" clip-rule="evenodd" d="M39.9828 20.0113C41.1718 18.5152 41.9919 16.4764 41.7614 14.411C40.0388 14.4904 37.8848 15.6092 36.643 17.0722C35.5462 18.363 34.5613 20.478 34.8182 22.464C36.7549 22.6095 38.7411 21.4842 39.9828 20.0113" fill="white"/>
<path d="M140.125 20.2972C140.258 20.2972 140.325 20.4739 140.325 20.8272C140.325 21.1872 140.258 21.3672 140.125 21.3672H138.065V21.4872C138.065 22.9405 136.675 23.6672 133.895 23.6672C132.548 23.6672 131.508 23.4605 130.775 23.0472C130.048 22.6405 129.685 21.9505 129.685 20.9772C129.685 20.7572 129.702 20.4972 129.735 20.1972C129.768 19.8905 129.818 19.6039 129.885 19.3372L131.005 19.5972C130.958 19.7839 130.918 20.0105 130.885 20.2772C130.852 20.5372 130.835 20.7639 130.835 20.9572C130.835 21.3639 130.932 21.6839 131.125 21.9172C131.318 22.1572 131.635 22.3305 132.075 22.4372C132.522 22.5439 133.132 22.5972 133.905 22.5972C134.918 22.5972 135.645 22.5105 136.085 22.3372C136.532 22.1705 136.755 21.9172 136.755 21.5772C136.755 21.4972 136.745 21.4272 136.725 21.3672H136.595C135.808 21.3672 135.218 21.1639 134.825 20.7572L135.625 19.9972C135.732 20.1039 135.858 20.1805 136.005 20.2272C136.152 20.2739 136.348 20.2972 136.595 20.2972H137.855V13.9572H139.005V20.2972H140.125ZM145.905 20.2972V21.3672H140.125C139.992 21.3672 139.925 21.1872 139.925 20.8272C139.925 20.4739 139.992 20.2972 140.125 20.2972H141.355C141.055 19.8839 140.905 19.4039 140.905 18.8572C140.905 18.3572 141.028 17.9072 141.275 17.5072C141.522 17.1005 141.858 16.7839 142.285 16.5572C142.712 16.3239 143.178 16.2072 143.685 16.2072C144.325 16.2072 145.012 16.3839 145.745 16.7372L145.235 17.6872C144.615 17.4139 144.102 17.2772 143.695 17.2772C143.382 17.2772 143.098 17.3472 142.845 17.4872C142.598 17.6205 142.405 17.8072 142.265 18.0472C142.125 18.2872 142.055 18.5539 142.055 18.8472C142.055 19.2072 142.158 19.5205 142.365 19.7872C142.578 20.0472 142.862 20.2172 143.215 20.2972H145.905ZM152.244 21.3672C151.898 21.3672 151.588 21.4239 151.314 21.5372C151.048 21.6572 150.838 21.8139 150.684 22.0072C150.531 22.2072 150.454 22.4305 150.454 22.6772C150.454 22.9239 150.531 23.1439 150.684 23.3372C150.844 23.5372 151.058 23.6939 151.324 23.8072C151.591 23.9205 151.888 23.9772 152.214 23.9772C152.601 23.9772 152.978 23.9139 153.344 23.7872L153.724 24.8072C153.224 24.9672 152.714 25.0472 152.194 25.0472C151.668 25.0472 151.184 24.9439 150.744 24.7372C150.304 24.5305 149.954 24.2439 149.694 23.8772C149.434 23.5172 149.304 23.1139 149.304 22.6672C149.304 22.2139 149.438 21.8039 149.704 21.4372C149.978 21.0772 150.344 20.7972 150.804 20.5972C151.264 20.3905 151.764 20.2905 152.304 20.2972H153.974V18.7772C153.974 18.2705 153.811 17.8672 153.484 17.5672C153.164 17.2672 152.734 17.1172 152.194 17.1172C151.601 17.1172 151.048 17.3005 150.534 17.6672L150.034 16.6872C150.688 16.2605 151.408 16.0472 152.194 16.0472C152.761 16.0472 153.264 16.1639 153.704 16.3972C154.151 16.6305 154.498 16.9539 154.744 17.3672C154.998 17.7805 155.124 18.2505 155.124 18.7772V20.2972H155.544L155.384 21.3672H152.244ZM159.283 20.2972C159.416 20.2972 159.483 20.4739 159.483 20.8272C159.483 21.1872 159.416 21.3672 159.283 21.3672H156.943V13.9572H158.093V20.2972H159.283ZM163.195 20.2972C163.328 20.2972 163.395 20.4739 163.395 20.8272C163.395 21.1872 163.328 21.3672 163.195 21.3672H162.645C162.078 21.3672 161.612 21.2239 161.245 20.9372C160.932 21.2239 160.448 21.3672 159.795 21.3672H159.285C159.152 21.3672 159.085 21.1872 159.085 20.8272C159.085 20.4739 159.152 20.2972 159.285 20.2972H159.705C160.065 20.2972 160.312 20.2272 160.445 20.0872C160.578 19.9405 160.645 19.6905 160.645 19.3372V16.5072H161.795V19.3472C161.795 19.6472 161.765 19.9139 161.705 20.1472C161.878 20.2472 162.088 20.2972 162.335 20.2972H163.195ZM162.015 15.8072C161.842 15.8072 161.695 15.7472 161.575 15.6272C161.462 15.5072 161.405 15.3572 161.405 15.1772C161.405 14.9905 161.462 14.8405 161.575 14.7272C161.695 14.6072 161.842 14.5472 162.015 14.5472C162.188 14.5472 162.332 14.6072 162.445 14.7272C162.565 14.8405 162.625 14.9905 162.625 15.1772C162.625 15.3572 162.565 15.5072 162.445 15.6272C162.332 15.7472 162.188 15.8072 162.015 15.8072ZM160.435 15.8072C160.262 15.8072 160.115 15.7472 159.995 15.6272C159.882 15.5072 159.825 15.3572 159.825 15.1772C159.825 14.9905 159.882 14.8405 159.995 14.7272C160.115 14.6072 160.262 14.5472 160.435 14.5472C160.608 14.5472 160.752 14.6072 160.865 14.7272C160.985 14.8405 161.045 14.9905 161.045 15.1772C161.045 15.3572 160.985 15.5072 160.865 15.6272C160.752 15.7472 160.608 15.8072 160.435 15.8072ZM166.311 16.0472C166.878 16.0472 167.405 16.2572 167.891 16.6772C168.378 17.0905 168.758 17.6572 169.031 18.3772C169.305 19.0905 169.425 19.8739 169.391 20.7272C168.931 20.9339 168.435 21.0939 167.901 21.2072C167.375 21.3139 166.898 21.3672 166.471 21.3672C165.831 21.3672 165.208 21.2305 164.601 20.9572C164.268 21.2305 163.845 21.3672 163.331 21.3672H163.191C163.058 21.3672 162.991 21.1872 162.991 20.8272C162.991 20.4739 163.058 20.2972 163.191 20.2972H163.331C163.545 20.2972 163.711 20.2472 163.831 20.1472C163.958 20.0405 164.038 19.8739 164.071 19.6472L164.101 19.3872C164.161 18.8605 164.245 18.3672 164.351 17.9072C164.465 17.4472 164.678 17.0239 164.991 16.6372C165.311 16.2439 165.751 16.0472 166.311 16.0472ZM165.181 20.0072C165.595 20.2005 166.028 20.2972 166.481 20.2972C167.015 20.2972 167.598 20.2005 168.231 20.0072C168.185 19.4939 168.065 19.0172 167.871 18.5772C167.678 18.1305 167.445 17.7772 167.171 17.5172C166.905 17.2505 166.635 17.1172 166.361 17.1172C166.101 17.1172 165.895 17.2372 165.741 17.4772C165.595 17.7105 165.491 17.9805 165.431 18.2872C165.371 18.5939 165.318 18.9572 165.271 19.3772L165.211 19.8572L165.181 20.0072Z" fill="white"/>
<path d="M133.82 35.1825V38.0971H131.964V40.0085H133.82V46.5031C133.82 48.7207 134.839 49.6078 137.402 49.6078C137.852 49.6078 138.281 49.555 138.657 49.4916V47.6013C138.335 47.633 138.131 47.6541 137.777 47.6541C136.63 47.6541 136.126 47.1261 136.126 45.9222V40.0085H138.657V38.0971H136.126V35.1825H133.82Z" fill="white"/>
<path d="M145.186 49.7662C148.597 49.7662 150.688 47.5168 150.688 43.7891C150.688 40.0825 148.586 37.8226 145.186 37.8226C141.776 37.8226 139.674 40.0825 139.674 43.7891C139.674 47.5168 141.765 49.7662 145.186 49.7662ZM145.186 47.7492C143.181 47.7492 142.055 46.3024 142.055 43.7891C142.055 41.2969 143.181 39.8396 145.186 39.8396C147.181 39.8396 148.318 41.2969 148.318 43.7891C148.318 46.2919 147.181 47.7492 145.186 47.7492Z" fill="white"/>
<path d="M152.477 49.5444H154.783V42.7542C154.783 41.1385 156.017 40.0508 157.765 40.0508C158.172 40.0508 158.859 40.1247 159.052 40.1881V37.9493C158.805 37.8859 158.365 37.8543 158.022 37.8543C156.499 37.8543 155.202 38.6779 154.869 39.8079H154.697V38.0443H152.477V49.5444Z" fill="white"/>
<path d="M164.777 39.7551C166.482 39.7551 167.598 40.9273 167.651 42.7331H161.753C161.881 40.9378 163.072 39.7551 164.777 39.7551ZM167.641 46.4397C167.212 47.3373 166.257 47.8336 164.863 47.8336C163.018 47.8336 161.828 46.5559 161.753 44.5389V44.4121H170V43.6201C170 40.0085 168.037 37.8226 164.788 37.8226C161.495 37.8226 159.404 40.1564 159.404 43.8313C159.404 47.5063 161.452 49.7662 164.798 49.7662C167.469 49.7662 169.335 48.4989 169.861 46.4397H167.641Z" fill="white"/>
<path d="M118.699 45.2976C118.876 48.1215 121.266 49.9275 124.823 49.9275C128.625 49.9275 131.004 48.0339 131.004 45.013C131.004 42.6379 129.648 41.3244 126.357 40.5692L124.59 40.1424C122.5 39.6608 121.655 39.015 121.655 37.8876C121.655 36.4647 122.967 35.5344 124.935 35.5344C126.802 35.5344 128.092 36.4428 128.325 37.8986H130.748C130.604 35.2388 128.225 33.3672 124.968 33.3672C121.466 33.3672 119.132 35.2388 119.132 38.0518C119.132 40.3722 120.455 41.7513 123.356 42.419L125.424 42.9115C127.547 43.4041 128.481 44.1265 128.481 45.3304C128.481 46.7314 127.013 47.7494 125.012 47.7494C122.867 47.7494 121.378 46.7971 121.166 45.2976H118.699Z" fill="white"/>
<path d="M94.8126 37.8543C93.2254 37.8543 91.8526 38.6357 91.1448 39.9452H90.9732V38.0443H88.7531V53.3672H91.059V47.802H91.2413C91.8526 49.0164 93.1717 49.7345 94.8341 49.7345C97.7834 49.7345 99.6602 47.4429 99.6602 43.7891C99.6602 40.1353 97.7834 37.8543 94.8126 37.8543ZM94.1584 47.6964C92.228 47.6964 91.0161 46.1968 91.0161 43.7996C91.0161 41.3919 92.228 39.8924 94.1692 39.8924C96.1211 39.8924 97.2901 41.3602 97.2901 43.7891C97.2901 46.2285 96.1211 47.6964 94.1584 47.6964Z" fill="white"/>
<path d="M107.729 37.8543C106.141 37.8543 104.769 38.6357 104.061 39.9452H103.889V38.0443H101.669V53.3672H103.975V47.802H104.157C104.769 49.0164 106.088 49.7345 107.75 49.7345C110.699 49.7345 112.576 47.4429 112.576 43.7891C112.576 40.1353 110.699 37.8543 107.729 37.8543ZM107.074 47.6964C105.144 47.6964 103.932 46.1968 103.932 43.7996C103.932 41.3919 105.144 39.8924 107.085 39.8924C109.037 39.8924 110.206 41.3602 110.206 43.7891C110.206 46.2285 109.037 47.6964 107.074 47.6964Z" fill="white"/>
<path d="M84.6161 49.5444H87.2617L81.4703 33.7503H78.7914L73 49.5444H75.5567L77.0351 45.3523H83.1488L84.6161 49.5444ZM80.003 36.618H80.192L82.5152 43.2946H77.6687L80.003 36.618Z" fill="white"/>
</svg>
