<svg width="190" height="64" viewBox="0 0 190 64" fill="none" xmlns="http://www.w3.org/2000/svg">
<rect x="1.23438" y="1.01855" width="188.267" height="62" rx="7.5" fill="#212121"/>
<rect x="1.23438" y="1.01855" width="188.267" height="62" rx="7.5" stroke="#727272"/>
<path fill-rule="evenodd" clip-rule="evenodd" d="M44.3502 33.1256C44.3074 28.7145 47.9434 26.5668 48.1113 26.4675C46.0529 23.4495 42.8616 23.0391 41.7385 23.006C39.0609 22.7248 36.4623 24.621 35.0988 24.621C33.7056 24.621 31.6011 23.0358 29.3385 23.0822C26.4205 23.1285 23.6934 24.8262 22.1982 27.4569C19.1155 32.8279 21.4144 40.7171 24.3719 45.0588C25.854 47.1833 27.5798 49.5593 29.8424 49.4732C32.0556 49.3806 32.8822 48.0569 35.5533 48.0569C38.2012 48.0569 38.9785 49.4732 41.2873 49.4203C43.6619 49.3806 45.1571 47.2859 46.5832 45.1382C48.2958 42.7026 48.9809 40.3034 49.0072 40.181C48.9512 40.1611 44.3963 38.4138 44.3502 33.1256" fill="white"/>
<path fill-rule="evenodd" clip-rule="evenodd" d="M39.9828 20.1627C41.1718 18.6666 41.9919 16.6278 41.7614 14.5624C40.0388 14.6418 37.8848 15.7605 36.643 17.2235C35.5462 18.5144 34.5613 20.6294 34.8182 22.6153C36.7549 22.7609 38.7411 21.6356 39.9828 20.1626" fill="white"/>
<path d="M140.125 20.4486C140.258 20.4486 140.325 20.6252 140.325 20.9786C140.325 21.3386 140.258 21.5186 140.125 21.5186H138.065V21.6386C138.065 23.0919 136.675 23.8186 133.895 23.8186C132.548 23.8186 131.508 23.6119 130.775 23.1986C130.048 22.7919 129.685 22.1019 129.685 21.1286C129.685 20.9086 129.702 20.6486 129.735 20.3486C129.768 20.0419 129.818 19.7552 129.885 19.4886L131.005 19.7486C130.958 19.9352 130.918 20.1619 130.885 20.4286C130.852 20.6886 130.835 20.9152 130.835 21.1086C130.835 21.5152 130.932 21.8352 131.125 22.0686C131.318 22.3086 131.635 22.4819 132.075 22.5886C132.522 22.6952 133.132 22.7486 133.905 22.7486C134.918 22.7486 135.645 22.6619 136.085 22.4886C136.532 22.3219 136.755 22.0686 136.755 21.7286C136.755 21.6486 136.745 21.5786 136.725 21.5186H136.595C135.808 21.5186 135.218 21.3152 134.825 20.9086L135.625 20.1486C135.732 20.2552 135.858 20.3319 136.005 20.3786C136.152 20.4252 136.348 20.4486 136.595 20.4486H137.855V14.1086H139.005V20.4486H140.125ZM145.905 20.4486V21.5186H140.125C139.992 21.5186 139.925 21.3386 139.925 20.9786C139.925 20.6252 139.992 20.4486 140.125 20.4486H141.355C141.055 20.0352 140.905 19.5552 140.905 19.0086C140.905 18.5086 141.028 18.0586 141.275 17.6586C141.522 17.2519 141.858 16.9352 142.285 16.7086C142.712 16.4752 143.178 16.3586 143.685 16.3586C144.325 16.3586 145.012 16.5352 145.745 16.8886L145.235 17.8386C144.615 17.5652 144.102 17.4286 143.695 17.4286C143.382 17.4286 143.098 17.4986 142.845 17.6386C142.598 17.7719 142.405 17.9586 142.265 18.1986C142.125 18.4386 142.055 18.7052 142.055 18.9986C142.055 19.3586 142.158 19.6719 142.365 19.9386C142.578 20.1986 142.862 20.3686 143.215 20.4486H145.905ZM152.244 21.5186C151.898 21.5186 151.588 21.5752 151.314 21.6886C151.048 21.8086 150.838 21.9652 150.684 22.1586C150.531 22.3586 150.454 22.5819 150.454 22.8286C150.454 23.0752 150.531 23.2952 150.684 23.4886C150.844 23.6886 151.058 23.8452 151.324 23.9586C151.591 24.0719 151.888 24.1286 152.214 24.1286C152.601 24.1286 152.978 24.0652 153.344 23.9386L153.724 24.9586C153.224 25.1186 152.714 25.1986 152.194 25.1986C151.668 25.1986 151.184 25.0952 150.744 24.8886C150.304 24.6819 149.954 24.3952 149.694 24.0286C149.434 23.6686 149.304 23.2652 149.304 22.8186C149.304 22.3652 149.438 21.9552 149.704 21.5886C149.978 21.2286 150.344 20.9486 150.804 20.7486C151.264 20.5419 151.764 20.4419 152.304 20.4486H153.974V18.9286C153.974 18.4219 153.811 18.0186 153.484 17.7186C153.164 17.4186 152.734 17.2686 152.194 17.2686C151.601 17.2686 151.048 17.4519 150.534 17.8186L150.034 16.8386C150.688 16.4119 151.408 16.1986 152.194 16.1986C152.761 16.1986 153.264 16.3152 153.704 16.5486C154.151 16.7819 154.498 17.1052 154.744 17.5186C154.998 17.9319 155.124 18.4019 155.124 18.9286V20.4486H155.544L155.384 21.5186H152.244ZM159.283 20.4486C159.416 20.4486 159.483 20.6252 159.483 20.9786C159.483 21.3386 159.416 21.5186 159.283 21.5186H156.943V14.1086H158.093V20.4486H159.283ZM163.195 20.4486C163.328 20.4486 163.395 20.6252 163.395 20.9786C163.395 21.3386 163.328 21.5186 163.195 21.5186H162.645C162.078 21.5186 161.612 21.3752 161.245 21.0886C160.932 21.3752 160.448 21.5186 159.795 21.5186H159.285C159.152 21.5186 159.085 21.3386 159.085 20.9786C159.085 20.6252 159.152 20.4486 159.285 20.4486H159.705C160.065 20.4486 160.312 20.3786 160.445 20.2386C160.578 20.0919 160.645 19.8419 160.645 19.4886V16.6586H161.795V19.4986C161.795 19.7986 161.765 20.0652 161.705 20.2986C161.878 20.3986 162.088 20.4486 162.335 20.4486H163.195ZM162.015 15.9586C161.842 15.9586 161.695 15.8986 161.575 15.7786C161.462 15.6586 161.405 15.5086 161.405 15.3286C161.405 15.1419 161.462 14.9919 161.575 14.8786C161.695 14.7586 161.842 14.6986 162.015 14.6986C162.188 14.6986 162.332 14.7586 162.445 14.8786C162.565 14.9919 162.625 15.1419 162.625 15.3286C162.625 15.5086 162.565 15.6586 162.445 15.7786C162.332 15.8986 162.188 15.9586 162.015 15.9586ZM160.435 15.9586C160.262 15.9586 160.115 15.8986 159.995 15.7786C159.882 15.6586 159.825 15.5086 159.825 15.3286C159.825 15.1419 159.882 14.9919 159.995 14.8786C160.115 14.7586 160.262 14.6986 160.435 14.6986C160.608 14.6986 160.752 14.7586 160.865 14.8786C160.985 14.9919 161.045 15.1419 161.045 15.3286C161.045 15.5086 160.985 15.6586 160.865 15.7786C160.752 15.8986 160.608 15.9586 160.435 15.9586ZM166.311 16.1986C166.878 16.1986 167.405 16.4086 167.891 16.8286C168.378 17.2419 168.758 17.8086 169.031 18.5286C169.305 19.2419 169.425 20.0252 169.391 20.8786C168.931 21.0852 168.435 21.2452 167.901 21.3586C167.375 21.4652 166.898 21.5186 166.471 21.5186C165.831 21.5186 165.208 21.3819 164.601 21.1086C164.268 21.3819 163.845 21.5186 163.331 21.5186H163.191C163.058 21.5186 162.991 21.3386 162.991 20.9786C162.991 20.6252 163.058 20.4486 163.191 20.4486H163.331C163.545 20.4486 163.711 20.3986 163.831 20.2986C163.958 20.1919 164.038 20.0252 164.071 19.7986L164.101 19.5386C164.161 19.0119 164.245 18.5186 164.351 18.0586C164.465 17.5986 164.678 17.1752 164.991 16.7886C165.311 16.3952 165.751 16.1986 166.311 16.1986ZM165.181 20.1586C165.595 20.3519 166.028 20.4486 166.481 20.4486C167.015 20.4486 167.598 20.3519 168.231 20.1586C168.185 19.6452 168.065 19.1686 167.871 18.7286C167.678 18.2819 167.445 17.9286 167.171 17.6686C166.905 17.4019 166.635 17.2686 166.361 17.2686C166.101 17.2686 165.895 17.3886 165.741 17.6286C165.595 17.8619 165.491 18.1319 165.431 18.4386C165.371 18.7452 165.318 19.1086 165.271 19.5286L165.211 20.0086L165.181 20.1586Z" fill="white"/>
<path d="M133.82 35.3339V38.2485H131.964V40.1599H133.82V46.6544C133.82 48.8721 134.839 49.7591 137.402 49.7591C137.852 49.7591 138.281 49.7063 138.657 49.643V47.7527C138.335 47.7844 138.131 47.8055 137.777 47.8055C136.63 47.8055 136.126 47.2775 136.126 46.0736V40.1599H138.657V38.2485H136.126V35.3339H133.82Z" fill="white"/>
<path d="M145.186 49.9175C148.597 49.9175 150.688 47.6682 150.688 43.9405C150.688 40.2338 148.586 37.9739 145.186 37.9739C141.776 37.9739 139.674 40.2338 139.674 43.9405C139.674 47.6682 141.765 49.9175 145.186 49.9175ZM145.186 47.9005C143.181 47.9005 142.055 46.4538 142.055 43.9405C142.055 41.4482 143.181 39.9909 145.186 39.9909C147.181 39.9909 148.318 41.4482 148.318 43.9405C148.318 46.4432 147.181 47.9005 145.186 47.9005Z" fill="white"/>
<path d="M152.477 49.6958H154.783V42.9056C154.783 41.2898 156.017 40.2021 157.765 40.2021C158.172 40.2021 158.859 40.2761 159.052 40.3394V38.1007C158.805 38.0373 158.365 38.0056 158.022 38.0056C156.499 38.0056 155.202 38.8293 154.869 39.9593H154.697V38.1957H152.477V49.6958Z" fill="white"/>
<path d="M164.777 39.9065C166.482 39.9065 167.598 41.0786 167.651 42.8844H161.753C161.881 41.0892 163.072 39.9065 164.777 39.9065ZM167.641 46.5911C167.212 47.4887 166.257 47.985 164.863 47.985C163.018 47.985 161.828 46.7072 161.753 44.6902V44.5635H170V43.7715C170 40.1599 168.037 37.9739 164.788 37.9739C161.495 37.9739 159.404 40.3077 159.404 43.9827C159.404 47.6576 161.452 49.9175 164.798 49.9175C167.469 49.9175 169.335 48.6503 169.861 46.5911H167.641Z" fill="white"/>
<path d="M118.699 45.449C118.876 48.2729 121.266 50.0788 124.823 50.0788C128.625 50.0788 131.004 48.1853 131.004 45.1644C131.004 42.7893 129.648 41.4758 126.357 40.7206L124.59 40.2937C122.5 39.8121 121.655 39.1663 121.655 38.039C121.655 36.6161 122.967 35.6857 124.935 35.6857C126.802 35.6857 128.092 36.5942 128.325 38.0499H130.748C130.604 35.3902 128.225 33.5186 124.968 33.5186C121.466 33.5186 119.132 35.3902 119.132 38.2032C119.132 40.5236 120.455 41.9027 123.356 42.5703L125.424 43.0629C127.547 43.5554 128.481 44.2778 128.481 45.4818C128.481 46.8828 127.013 47.9007 125.012 47.9007C122.867 47.9007 121.378 46.9485 121.166 45.449H118.699Z" fill="white"/>
<path d="M94.8126 38.0056C93.2254 38.0056 91.8526 38.7871 91.1448 40.0965H90.9732V38.1957H88.7531V53.5186H91.059V47.9533H91.2413C91.8526 49.1678 93.1717 49.8858 94.8341 49.8858C97.7834 49.8858 99.6602 47.5943 99.6602 43.9405C99.6602 40.2866 97.7834 38.0056 94.8126 38.0056ZM94.1584 47.8477C92.228 47.8477 91.0161 46.3482 91.0161 43.951C91.0161 41.5433 92.228 40.0437 94.1692 40.0437C96.1211 40.0437 97.2901 41.5116 97.2901 43.9405C97.2901 46.3799 96.1211 47.8477 94.1584 47.8477Z" fill="white"/>
<path d="M107.729 38.0056C106.141 38.0056 104.769 38.7871 104.061 40.0965H103.889V38.1957H101.669V53.5186H103.975V47.9533H104.157C104.769 49.1678 106.088 49.8858 107.75 49.8858C110.699 49.8858 112.576 47.5943 112.576 43.9405C112.576 40.2866 110.699 38.0056 107.729 38.0056ZM107.074 47.8477C105.144 47.8477 103.932 46.3482 103.932 43.951C103.932 41.5433 105.144 40.0437 107.085 40.0437C109.037 40.0437 110.206 41.5116 110.206 43.9405C110.206 46.3799 109.037 47.8477 107.074 47.8477Z" fill="white"/>
<path d="M84.6161 49.6958H87.2617L81.4703 33.9016H78.7914L73 49.6958H75.5567L77.0351 45.5037H83.1488L84.6161 49.6958ZM80.003 36.7693H80.192L82.5152 43.446H77.6687L80.003 36.7693Z" fill="white"/>
</svg>
