<svg width="32" height="33" viewBox="0 0 32 33" fill="none" xmlns="http://www.w3.org/2000/svg">
<path d="M5.03813 16.4226C3.7741 14.2184 3.16377 12.4187 2.79575 10.5943C2.25146 7.89612 3.49705 5.26043 5.56047 3.57864C6.43257 2.86786 7.43227 3.11071 7.94797 4.03588L9.11221 6.12456C10.035 7.78011 10.4964 8.60787 10.4049 9.48547C10.3134 10.3631 9.69113 11.0778 8.44659 12.5074L5.03813 16.4226ZM5.03813 16.4226C7.59665 20.8838 11.6118 24.9011 16.0781 27.4626M16.0781 27.4626C18.2822 28.7266 20.082 29.337 21.9064 29.705C24.6045 30.2492 27.2402 29.0036 28.922 26.9402C29.6328 26.0682 29.39 25.0684 28.4648 24.5527L26.3761 23.3884C24.7205 22.4656 23.8928 22.0043 23.0152 22.0958C22.1376 22.1872 21.4228 22.8095 19.9933 24.054L16.0781 27.4626Z" stroke="#0E4A79" stroke-width="2" stroke-linejoin="round"/>
</svg>
