<svg width="20" height="20" viewBox="0 0 20 20" fill="none" xmlns="http://www.w3.org/2000/svg">
<path d="M2.08398 9.99967C2.08398 6.26772 2.08398 4.40175 3.24335 3.24237C4.40273 2.08301 6.2687 2.08301 10.0007 2.08301C13.7326 2.08301 15.5986 2.08301 16.758 3.24237C17.9173 4.40175 17.9173 6.26772 17.9173 9.99967C17.9173 13.7316 17.9173 15.5976 16.758 16.757C15.5986 17.9163 13.7326 17.9163 10.0007 17.9163C6.2687 17.9163 4.40273 17.9163 3.24335 16.757C2.08398 15.5976 2.08398 13.7316 2.08398 9.99967Z" stroke="#667680" stroke-width="1.25" stroke-linejoin="round"/>
<path d="M13.75 10C13.75 12.0711 12.0711 13.75 10 13.75C7.92893 13.75 6.25 12.0711 6.25 10C6.25 7.92893 7.92893 6.25 10 6.25C12.0711 6.25 13.75 7.92893 13.75 10Z" stroke="#667680" stroke-width="1.25"/>
<path d="M14.5915 5.41602H14.584" stroke="#667680" stroke-width="1.66667" stroke-linecap="round" stroke-linejoin="round"/>
</svg>
