<svg width="20" height="20" viewBox="0 0 20 20" fill="none" xmlns="http://www.w3.org/2000/svg">
<path d="M3.74935 7.91602H3.33268C2.54701 7.91602 2.15417 7.91602 1.91009 8.16009C1.66602 8.40418 1.66602 8.79702 1.66602 9.58268V16.666C1.66602 17.4517 1.66602 17.8445 1.91009 18.0886C2.15417 18.3327 2.54701 18.3327 3.33268 18.3327H3.74935C4.53502 18.3327 4.92786 18.3327 5.17194 18.0886C5.41602 17.8445 5.41602 17.4517 5.41602 16.666V9.58268C5.41602 8.79702 5.41602 8.40418 5.17194 8.16009C4.92786 7.91602 4.53502 7.91602 3.74935 7.91602Z" stroke="#667680" stroke-width="1.25"/>
<path d="M5.41602 3.54102C5.41602 4.57655 4.57655 5.41602 3.54102 5.41602C2.50548 5.41602 1.66602 4.57655 1.66602 3.54102C1.66602 2.50548 2.50548 1.66602 3.54102 1.66602C4.57655 1.66602 5.41602 2.50548 5.41602 3.54102Z" stroke="#667680" stroke-width="1.25"/>
<path d="M10.271 7.91602H9.58268C8.79702 7.91602 8.40418 7.91602 8.16009 8.16009C7.91602 8.40418 7.91602 8.79702 7.91602 9.58268V16.666C7.91602 17.4517 7.91602 17.8445 8.16009 18.0886C8.40418 18.3327 8.79702 18.3327 9.58268 18.3327H9.99935C10.785 18.3327 11.1778 18.3327 11.4219 18.0886C11.666 17.8445 11.666 17.4517 11.666 16.666L11.6661 13.7494C11.6661 12.3688 12.1061 11.2494 13.4059 11.2494C14.0558 11.2494 14.5827 11.8091 14.5827 12.4994V16.2494C14.5827 17.0351 14.5827 17.4279 14.8268 17.672C15.0708 17.9161 15.4637 17.9161 16.2493 17.9161H16.6649C17.4504 17.9161 17.8432 17.9161 18.0873 17.6721C18.3313 17.4281 18.3314 17.0354 18.3316 16.2499L18.3328 11.6662C18.3328 9.59518 16.363 7.91622 14.4133 7.91622C13.3034 7.91622 12.3133 8.46027 11.6661 9.31102C11.666 8.78593 11.666 8.52343 11.552 8.32852C11.4798 8.20507 11.3769 8.10229 11.2535 8.03007C11.0586 7.91602 10.7961 7.91602 10.271 7.91602Z" stroke="#667680" stroke-width="1.25" stroke-linejoin="round"/>
</svg>
