<svg width="32" height="33" viewBox="0 0 32 33" fill="none" xmlns="http://www.w3.org/2000/svg">
<path d="M2.66797 8.5L11.8853 13.7226C15.2834 15.648 16.7192 15.648 20.1173 13.7226L29.3346 8.5" stroke="#0E4A79" stroke-width="2" stroke-linejoin="round"/>
<path d="M2.689 18.4668C2.77616 22.5543 2.81974 24.5979 4.32792 26.1119C5.83608 27.6257 7.93508 27.6784 12.1331 27.7839C14.7204 27.8489 17.2822 27.8489 19.8696 27.7839C24.0676 27.6784 26.1665 27.6257 27.6748 26.1119C29.1829 24.5979 29.2265 22.5543 29.3136 18.4668C29.3417 17.1525 29.3417 15.8461 29.3136 14.5319C29.2265 10.4445 29.1829 8.4008 27.6748 6.8869C26.1665 5.37299 24.0676 5.32026 19.8696 5.21478C17.2822 5.14976 14.7204 5.14976 12.1331 5.21476C7.93507 5.32023 5.83608 5.37296 4.3279 6.88688C2.81973 8.40079 2.77616 10.4445 2.68898 14.5319C2.66096 15.8461 2.66097 17.1525 2.689 18.4668Z" stroke="#0E4A79" stroke-width="2" stroke-linejoin="round"/>
</svg>
