<svg width="20" height="20" viewBox="0 0 20 20" fill="none" xmlns="http://www.w3.org/2000/svg">
<path d="M5.47898 6.18638C5.47898 3.68986 7.50282 1.66602 9.99935 1.66602C12.4958 1.66602 14.5197 3.68986 14.5197 6.18638C14.5197 10.1428 14.7169 12.1207 18.3327 13.703C16.4808 14.166 16.0178 14.629 15.5549 16.4808C12.3142 16.4808 11.8512 18.3327 9.99935 18.3327C8.1475 18.3327 7.68453 16.4808 4.44379 16.4808C3.98083 14.629 3.51787 14.166 1.66602 13.703C5.28176 12.1207 5.47898 10.1428 5.47898 6.18638Z" stroke="#667680" stroke-width="1.25" stroke-linecap="round" stroke-linejoin="round"/>
<path d="M1.66602 13.3333C4.85232 11.5976 4.85232 9.95858 2.46259 7.5" stroke="#667680" stroke-width="1.25" stroke-linecap="round"/>
<path d="M18.3321 13.3333C15.1457 11.5976 15.1457 9.95858 17.5355 7.5" stroke="#667680" stroke-width="1.25" stroke-linecap="round"/>
</svg>
