<svg width="20" height="20" viewBox="0 0 20 20" fill="none" xmlns="http://www.w3.org/2000/svg">
<path d="M10.0013 18.3327C14.6036 18.3327 18.3346 14.6017 18.3346 9.99935C18.3346 5.39697 14.6036 1.66602 10.0013 1.66602C5.39893 1.66602 1.66797 5.39697 1.66797 9.99935C1.66797 11.1484 1.90053 12.2432 2.32115 13.2391C2.55362 13.7894 2.66985 14.0647 2.68424 14.2727C2.69864 14.4807 2.63742 14.7094 2.51499 15.167L1.66797 18.3327L4.83361 17.4857C5.2912 17.3633 5.52 17.302 5.72799 17.3164C5.93598 17.3308 6.21118 17.447 6.76159 17.6795C7.75751 18.1001 8.85222 18.3327 10.0013 18.3327Z" stroke="#667680" stroke-width="1.25" stroke-linejoin="round"/>
<path d="M7.15744 10.3141L7.88323 9.41267C8.18912 9.03276 8.56723 8.67909 8.5969 8.17322C8.60432 8.04546 8.51448 7.47182 8.33465 6.32456C8.26399 5.87368 7.84303 5.83301 7.47842 5.83301C7.00327 5.83301 6.76569 5.83301 6.52978 5.94077C6.2316 6.07697 5.92548 6.45993 5.85829 6.78078C5.80514 7.03464 5.84464 7.20957 5.92364 7.55942C6.25918 9.04534 7.04633 10.5128 8.26688 11.7334C9.48748 12.954 10.955 13.7412 12.4409 14.0767C12.7907 14.1557 12.9657 14.1952 13.2196 14.142C13.5404 14.0748 13.9233 13.7688 14.0596 13.4705C14.1673 13.2346 14.1673 12.9971 14.1673 12.5219C14.1673 12.1573 14.1267 11.7363 13.6757 11.6657C12.5285 11.4858 11.9549 11.396 11.8271 11.4034C11.3212 11.4331 10.9676 11.8112 10.5877 12.1171L9.68623 12.8428" stroke="#667680" stroke-width="1.25"/>
</svg>
